G04 #@! TF.FileFunction,Copper,L1,Top,Signal*
%FSLAX46Y46*%
G04 Gerber Fmt 4.6, Leading zero omitted, Abs format (unit mm)*
G04 Created by KiCad (PCBNEW 4.0.5) date 01/03/18 17:15:43*
%MOMM*%
%LPD*%
G01*
G04 APERTURE LIST*
%ADD10C,0.100000*%
%ADD11R,0.750000X0.800000*%
%ADD12R,0.800000X0.750000*%
%ADD13R,0.800000X0.800000*%
%ADD14R,2.030000X1.140000*%
%ADD15R,0.700000X1.300000*%
%ADD16R,1.350000X0.400000*%
%ADD17R,1.600000X2.100000*%
%ADD18R,1.900000X1.900000*%
%ADD19R,1.900000X1.800000*%
%ADD20R,1.727200X1.727200*%
%ADD21O,1.727200X1.727200*%
%ADD22R,0.900000X0.500000*%
%ADD23R,0.500000X0.900000*%
%ADD24R,0.250000X0.700000*%
%ADD25R,0.700000X0.250000*%
%ADD26R,2.750000X2.750000*%
%ADD27R,0.200000X0.750000*%
%ADD28R,0.750000X0.200000*%
%ADD29R,0.290000X1.000000*%
%ADD30R,1.000000X0.290000*%
%ADD31R,0.650000X0.400000*%
%ADD32R,2.900000X0.900000*%
%ADD33R,0.500000X0.325000*%
%ADD34C,0.406400*%
%ADD35C,0.152400*%
%ADD36C,0.254000*%
G04 APERTURE END LIST*
D10*
D11*
X84201000Y-109081000D03*
X84201000Y-107581000D03*
X85598000Y-109081000D03*
X85598000Y-107581000D03*
X88265000Y-110478000D03*
X88265000Y-108978000D03*
X86868000Y-110478000D03*
X86868000Y-108978000D03*
D12*
X94984000Y-97409000D03*
X93484000Y-97409000D03*
X93738000Y-104521000D03*
X95238000Y-104521000D03*
X93738000Y-107569000D03*
X95238000Y-107569000D03*
D13*
X91948000Y-111544000D03*
X91948000Y-109944000D03*
X94742000Y-111544000D03*
X94742000Y-109944000D03*
X97536000Y-111544000D03*
X97536000Y-109944000D03*
X81089500Y-95986500D03*
X81089500Y-94386500D03*
D14*
X81089500Y-97606000D03*
X81089500Y-100006000D03*
D15*
X94935000Y-106045000D03*
X96835000Y-106045000D03*
D16*
X82431000Y-105791000D03*
X82431000Y-105141000D03*
X82431000Y-107091000D03*
X82431000Y-106441000D03*
X82431000Y-104491000D03*
D17*
X82306000Y-108891000D03*
X82306000Y-102691000D03*
D18*
X79756000Y-106991000D03*
X79756000Y-104591000D03*
D19*
X79756000Y-109591000D03*
X79756000Y-101991000D03*
D20*
X93980000Y-115824000D03*
D21*
X93980000Y-118364000D03*
X91440000Y-115824000D03*
X91440000Y-118364000D03*
X88900000Y-115824000D03*
X88900000Y-118364000D03*
X86360000Y-115824000D03*
X86360000Y-118364000D03*
X83820000Y-115824000D03*
X83820000Y-118364000D03*
D20*
X93980000Y-81026000D03*
D21*
X93980000Y-83566000D03*
X91440000Y-81026000D03*
X91440000Y-83566000D03*
X88900000Y-81026000D03*
X88900000Y-83566000D03*
X86360000Y-81026000D03*
X86360000Y-83566000D03*
X83820000Y-81026000D03*
X83820000Y-83566000D03*
D22*
X90551000Y-111252000D03*
X90551000Y-109752000D03*
X93345000Y-111240000D03*
X93345000Y-109740000D03*
X96139000Y-111240000D03*
X96139000Y-109740000D03*
X81089500Y-93206000D03*
X81089500Y-91706000D03*
D23*
X83451000Y-98044000D03*
X84951000Y-98044000D03*
X84340000Y-100330000D03*
X85840000Y-100330000D03*
X84340000Y-101854000D03*
X85840000Y-101854000D03*
X84340000Y-103378000D03*
X85840000Y-103378000D03*
X92444000Y-100330000D03*
X90944000Y-100330000D03*
X94984000Y-101219000D03*
X93484000Y-101219000D03*
X92444000Y-102108000D03*
X90944000Y-102108000D03*
X94984000Y-102997000D03*
X93484000Y-102997000D03*
X94984000Y-98806000D03*
X93484000Y-98806000D03*
D22*
X94234000Y-91706000D03*
X94234000Y-93206000D03*
X92710000Y-91706000D03*
X92710000Y-93206000D03*
X91186000Y-91706000D03*
X91186000Y-93206000D03*
X89662000Y-91706000D03*
X89662000Y-93206000D03*
X88138000Y-91706000D03*
X88138000Y-93206000D03*
X86614000Y-91706000D03*
X86614000Y-93206000D03*
X85090000Y-91706000D03*
X85090000Y-93206000D03*
X83566000Y-91706000D03*
X83566000Y-93206000D03*
X97155000Y-102818500D03*
X97155000Y-104318500D03*
X98679000Y-104318500D03*
X98679000Y-102818500D03*
D24*
X90150000Y-103562000D03*
D25*
X90875000Y-106787000D03*
D24*
X87650000Y-107512000D03*
D25*
X86925000Y-104287000D03*
X86925000Y-104787000D03*
X86925000Y-105287000D03*
X86925000Y-105787000D03*
X86925000Y-106287000D03*
X86925000Y-106787000D03*
D24*
X88150000Y-107512000D03*
X88650000Y-107512000D03*
X89150000Y-107512000D03*
X89650000Y-107512000D03*
X90150000Y-107512000D03*
D25*
X90875000Y-106287000D03*
X90875000Y-105787000D03*
X90875000Y-105287000D03*
X90875000Y-104787000D03*
X90875000Y-104287000D03*
D24*
X89650000Y-103562000D03*
X89150000Y-103562000D03*
X88650000Y-103562000D03*
X88150000Y-103562000D03*
X87650000Y-103562000D03*
D26*
X88900000Y-105537000D03*
D27*
X92964000Y-106770000D03*
X92964000Y-105320000D03*
D28*
X92239000Y-106045000D03*
X93689000Y-105645000D03*
X92239000Y-106445000D03*
X93689000Y-106445000D03*
X93689000Y-106045000D03*
X92239000Y-105645000D03*
D29*
X90650000Y-96186000D03*
X90650000Y-98886000D03*
D30*
X86650000Y-97286000D03*
X91150000Y-97786000D03*
X91150000Y-97286000D03*
D31*
X88212500Y-97536000D03*
D32*
X88900000Y-97536000D03*
D31*
X89587500Y-97536000D03*
D30*
X86650000Y-97786000D03*
D29*
X90150000Y-98886000D03*
X89650000Y-98886000D03*
X89150000Y-98886000D03*
X88650000Y-98886000D03*
X88150000Y-98886000D03*
X87650000Y-98886000D03*
X87150000Y-98886000D03*
X90150000Y-96186000D03*
X89650000Y-96186000D03*
X89150000Y-96186000D03*
X88650000Y-96186000D03*
X88150000Y-96186000D03*
X87650000Y-96186000D03*
X87150000Y-96186000D03*
D33*
X85252000Y-89654000D03*
X86452000Y-89654000D03*
X86452000Y-89154000D03*
X86452000Y-88654000D03*
X85252000Y-89154000D03*
X85252000Y-88654000D03*
X91348000Y-89654000D03*
X92548000Y-89654000D03*
X92548000Y-89154000D03*
X92548000Y-88654000D03*
X91348000Y-89154000D03*
X91348000Y-88654000D03*
X85563000Y-105037000D03*
X84363000Y-105037000D03*
X84363000Y-105537000D03*
X84363000Y-106037000D03*
X85563000Y-105537000D03*
X85563000Y-106037000D03*
D34*
X97917000Y-103568500D03*
X94493602Y-104521000D03*
X94482398Y-107569000D03*
X81089500Y-90551000D03*
X93472000Y-88011000D03*
X86868000Y-111506000D03*
X84201000Y-110426500D03*
X88900000Y-105537000D03*
X88900000Y-97536000D03*
X87122000Y-88011000D03*
X84899500Y-108331000D03*
X92710000Y-95758000D03*
X84201000Y-98044000D03*
X97155000Y-102818500D03*
X96202500Y-88011000D03*
X90043000Y-88011000D03*
X82042000Y-88011000D03*
X84391500Y-88011000D03*
X86365400Y-105287000D03*
X81280000Y-105791000D03*
X86106000Y-106680000D03*
X81280000Y-105156000D03*
X89776313Y-108839000D03*
X89217500Y-108839000D03*
X90424000Y-108839000D03*
X88201500Y-108204000D03*
X87150000Y-100330000D03*
X85090000Y-100330000D03*
X87650000Y-101219000D03*
X85090000Y-101854000D03*
X88150000Y-102108000D03*
X85090000Y-103378000D03*
X88646000Y-100330000D03*
X91694000Y-100330000D03*
X89150000Y-101219000D03*
X94234000Y-101219000D03*
X91694000Y-102108000D03*
X89650000Y-102108000D03*
D35*
X91440000Y-115824000D02*
X92303599Y-116687599D01*
X92303599Y-116687599D02*
X93980000Y-118364000D01*
X98679000Y-102818500D02*
X98667000Y-102818500D01*
X98667000Y-102818500D02*
X97917000Y-103568500D01*
X95238000Y-104521000D02*
X94493602Y-104521000D01*
X93738000Y-107569000D02*
X94482398Y-107569000D01*
X81089500Y-91706000D02*
X81089500Y-90551000D01*
X92673000Y-89154000D02*
X93100400Y-89154000D01*
X93100400Y-89154000D02*
X93472000Y-88782400D01*
X93472000Y-88782400D02*
X93472000Y-88011000D01*
X93689000Y-106445000D02*
X93689000Y-107520000D01*
X93689000Y-107520000D02*
X93738000Y-107569000D01*
X84238000Y-105537000D02*
X83851518Y-105537000D01*
X83851518Y-105537000D02*
X83502500Y-105886018D01*
X83502500Y-105886018D02*
X83502500Y-106846900D01*
X83258400Y-107091000D02*
X82431000Y-107091000D01*
X83502500Y-106846900D02*
X83258400Y-107091000D01*
X86868000Y-110478000D02*
X86868000Y-111506000D01*
X84201000Y-109081000D02*
X84201000Y-110426500D01*
X82306000Y-102691000D02*
X80456000Y-102691000D01*
X80456000Y-102691000D02*
X79756000Y-101991000D01*
X79756000Y-104591000D02*
X79756000Y-103488600D01*
X79756000Y-103488600D02*
X79756000Y-101991000D01*
X79756000Y-104591000D02*
X79756000Y-105693400D01*
X79756000Y-105693400D02*
X79756000Y-106991000D01*
X79756000Y-106991000D02*
X79756000Y-108093400D01*
X79756000Y-108093400D02*
X79756000Y-109591000D01*
X82431000Y-107091000D02*
X82431000Y-108766000D01*
X82431000Y-108766000D02*
X82306000Y-108891000D01*
X82306000Y-108891000D02*
X80456000Y-108891000D01*
X80456000Y-108891000D02*
X79756000Y-109591000D01*
X84201000Y-109081000D02*
X82496000Y-109081000D01*
X82496000Y-109081000D02*
X82306000Y-108891000D01*
X86868000Y-110478000D02*
X88265000Y-110478000D01*
X85598000Y-109081000D02*
X84201000Y-109081000D01*
X86925000Y-104787000D02*
X88150000Y-104787000D01*
X88150000Y-104787000D02*
X88900000Y-105537000D01*
X94984000Y-97409000D02*
X94984000Y-97397000D01*
X94984000Y-97397000D02*
X94361000Y-96774000D01*
X94361000Y-96774000D02*
X91712000Y-96774000D01*
X91712000Y-96774000D02*
X91150000Y-97336000D01*
X89100000Y-97336000D02*
X88900000Y-97536000D01*
X91150000Y-97336000D02*
X89100000Y-97336000D01*
X86577000Y-89154000D02*
X86995000Y-89154000D01*
X87122000Y-89027000D02*
X87122000Y-88011000D01*
X86995000Y-89154000D02*
X87122000Y-89027000D01*
X84899500Y-108331000D02*
X84899500Y-108279500D01*
X84899500Y-108279500D02*
X85598000Y-107581000D01*
X86925000Y-106287000D02*
X86925000Y-106787000D01*
X85598000Y-107581000D02*
X86408400Y-107581000D01*
X86408400Y-107581000D02*
X86925000Y-107064400D01*
X86925000Y-107064400D02*
X86925000Y-106787000D01*
X84201000Y-107581000D02*
X85598000Y-107581000D01*
X84340000Y-103378000D02*
X84340000Y-103980400D01*
X84340000Y-103980400D02*
X84988400Y-104628800D01*
X84988400Y-104628800D02*
X84988400Y-105264800D01*
X84988400Y-105264800D02*
X85260600Y-105537000D01*
X85260600Y-105537000D02*
X85688000Y-105537000D01*
X83451000Y-98044000D02*
X84201000Y-98044000D01*
X86868000Y-108978000D02*
X86868000Y-109003000D01*
X86868000Y-109003000D02*
X81661000Y-114210000D01*
X81661000Y-114210000D02*
X81661000Y-116205000D01*
X82956401Y-117500401D02*
X83820000Y-118364000D01*
X81661000Y-116205000D02*
X82956401Y-117500401D01*
X93738000Y-104521000D02*
X93738000Y-105596000D01*
X93738000Y-105596000D02*
X93689000Y-105645000D01*
X94984000Y-102997000D02*
X94984000Y-103197000D01*
X94984000Y-103197000D02*
X93738000Y-104443000D01*
X93738000Y-104443000D02*
X93738000Y-104521000D01*
X94984000Y-98806000D02*
X94984000Y-99408400D01*
X94984000Y-99408400D02*
X94984000Y-101219000D01*
X92444000Y-100330000D02*
X94295000Y-100330000D01*
X94295000Y-100330000D02*
X94984000Y-101019000D01*
X94984000Y-101019000D02*
X94984000Y-101219000D01*
X92444000Y-102108000D02*
X94295000Y-102108000D01*
X94295000Y-102108000D02*
X94984000Y-102797000D01*
X94984000Y-102797000D02*
X94984000Y-102997000D01*
X94984000Y-102997000D02*
X94984000Y-102394600D01*
X94984000Y-102394600D02*
X94984000Y-101219000D01*
X84340000Y-101854000D02*
X84340000Y-102456400D01*
X84340000Y-102456400D02*
X84340000Y-103378000D01*
X84340000Y-100330000D02*
X84340000Y-100932400D01*
X84340000Y-100932400D02*
X84340000Y-101854000D01*
X83451000Y-98044000D02*
X83451000Y-99843400D01*
X83451000Y-99843400D02*
X83937600Y-100330000D01*
X83937600Y-100330000D02*
X84340000Y-100330000D01*
X87650000Y-107512000D02*
X87650000Y-108723400D01*
X87650000Y-108723400D02*
X87395400Y-108978000D01*
X87395400Y-108978000D02*
X86868000Y-108978000D01*
X86868000Y-108978000D02*
X88265000Y-108978000D01*
X93484000Y-98806000D02*
X93484000Y-97409000D01*
X91150000Y-97736000D02*
X93157000Y-97736000D01*
X93157000Y-97736000D02*
X93484000Y-97409000D01*
X90650000Y-98886000D02*
X90947400Y-98886000D01*
X90947400Y-98886000D02*
X91150000Y-98683400D01*
X91150000Y-98683400D02*
X91150000Y-98033400D01*
X91150000Y-98033400D02*
X91150000Y-97736000D01*
D36*
X91802500Y-94678500D02*
X97917000Y-94678500D01*
X90650000Y-96186000D02*
X90650000Y-95831000D01*
X90650000Y-95831000D02*
X91802500Y-94678500D01*
D35*
X95238000Y-107569000D02*
X95213000Y-107569000D01*
X95213000Y-107569000D02*
X94451000Y-108331000D01*
X94451000Y-108331000D02*
X93313518Y-108331000D01*
X93313518Y-108331000D02*
X92964000Y-107981482D01*
X92964000Y-107981482D02*
X92964000Y-107297400D01*
X92964000Y-107297400D02*
X92964000Y-106770000D01*
X96835000Y-106045000D02*
X96835000Y-105745000D01*
X96835000Y-105745000D02*
X96139000Y-105049000D01*
X97155000Y-103220900D02*
X97155000Y-102818500D01*
X96139000Y-105049000D02*
X96139000Y-104236900D01*
X96139000Y-104236900D02*
X97155000Y-103220900D01*
X95238000Y-107569000D02*
X95611000Y-107569000D01*
X95611000Y-107569000D02*
X96835000Y-106345000D01*
X96835000Y-106345000D02*
X96835000Y-106045000D01*
X91223000Y-89154000D02*
X90795600Y-89154000D01*
X90795600Y-89154000D02*
X90043000Y-88401400D01*
X90043000Y-88401400D02*
X90043000Y-88011000D01*
X85127000Y-89154000D02*
X84699600Y-89154000D01*
X84699600Y-89154000D02*
X84391500Y-88845900D01*
X84391500Y-88845900D02*
X84391500Y-88011000D01*
X90551000Y-111252000D02*
X90751000Y-111252000D01*
X90751000Y-111252000D02*
X91948000Y-110055000D01*
X91948000Y-110055000D02*
X91948000Y-109944000D01*
X93345000Y-111240000D02*
X93545000Y-111240000D01*
X93545000Y-111240000D02*
X94742000Y-110043000D01*
X94742000Y-110043000D02*
X94742000Y-109944000D01*
X96139000Y-111240000D02*
X96339000Y-111240000D01*
X96339000Y-111240000D02*
X97536000Y-110043000D01*
X97536000Y-110043000D02*
X97536000Y-109944000D01*
X81089500Y-93206000D02*
X81089500Y-94386500D01*
X81089500Y-100006000D02*
X82256900Y-100006000D01*
X82256900Y-100006000D02*
X83566000Y-101315100D01*
X83566000Y-101315100D02*
X83566000Y-103831000D01*
X83566000Y-103831000D02*
X82906000Y-104491000D01*
X82906000Y-104491000D02*
X82431000Y-104491000D01*
X93689000Y-106045000D02*
X94935000Y-106045000D01*
X82431000Y-105791000D02*
X81280000Y-105791000D01*
X85688000Y-105037000D02*
X86115400Y-105037000D01*
X86115400Y-105037000D02*
X86365400Y-105287000D01*
X86365400Y-105287000D02*
X86422600Y-105287000D01*
X86422600Y-105287000D02*
X86925000Y-105287000D01*
X85688000Y-106037000D02*
X85979000Y-106037000D01*
X85979000Y-106037000D02*
X86115400Y-106037000D01*
X86106000Y-106680000D02*
X86106000Y-106164000D01*
X86106000Y-106164000D02*
X85979000Y-106037000D01*
X82431000Y-105141000D02*
X81295000Y-105141000D01*
X81295000Y-105141000D02*
X81280000Y-105156000D01*
X86115400Y-106037000D02*
X86365400Y-105787000D01*
X86365400Y-105787000D02*
X86422600Y-105787000D01*
X86422600Y-105787000D02*
X86925000Y-105787000D01*
X89150000Y-108132432D02*
X89776313Y-108758745D01*
X89776313Y-108758745D02*
X89776313Y-108839000D01*
X89150000Y-107512000D02*
X89150000Y-108132432D01*
X89014301Y-108600581D02*
X89014301Y-108635801D01*
X89014301Y-108635801D02*
X89217500Y-108839000D01*
X88650000Y-108236280D02*
X89014301Y-108600581D01*
X88650000Y-107512000D02*
X88650000Y-108236280D01*
X92673000Y-89654000D02*
X93059482Y-89654000D01*
X93059482Y-89654000D02*
X93980000Y-88733482D01*
X93980000Y-88733482D02*
X93980000Y-84787314D01*
X93980000Y-84787314D02*
X93980000Y-83566000D01*
X94234000Y-91706000D02*
X94234000Y-91140000D01*
X94234000Y-91140000D02*
X92748000Y-89654000D01*
X92748000Y-89654000D02*
X92673000Y-89654000D01*
X92100400Y-88799200D02*
X92245600Y-88654000D01*
X92710000Y-91303600D02*
X92100400Y-90694000D01*
X92100400Y-88823338D02*
X92100400Y-88799200D01*
X92710000Y-91706000D02*
X92710000Y-91303600D01*
X92100400Y-90694000D02*
X92100400Y-89984662D01*
X92100400Y-89984662D02*
X92094799Y-89979061D01*
X92245600Y-88654000D02*
X92673000Y-88654000D01*
X92094799Y-89979061D02*
X92094799Y-88828939D01*
X92094799Y-88828939D02*
X92100400Y-88823338D01*
X92673000Y-88654000D02*
X92673000Y-84799000D01*
X92673000Y-84799000D02*
X91440000Y-83566000D01*
X91348000Y-88654000D02*
X91348000Y-88339100D01*
X91348000Y-88339100D02*
X90170000Y-87161100D01*
X90170000Y-87161100D02*
X90170000Y-82296000D01*
X90170000Y-82296000D02*
X89763599Y-81889599D01*
X89763599Y-81889599D02*
X88900000Y-81026000D01*
X91186000Y-91706000D02*
X91186000Y-91303600D01*
X91186000Y-91303600D02*
X91801201Y-90688399D01*
X91801201Y-90688399D02*
X91801201Y-88704801D01*
X91801201Y-88704801D02*
X91750400Y-88654000D01*
X91750400Y-88654000D02*
X91348000Y-88654000D01*
X91223000Y-89654000D02*
X90795600Y-89654000D01*
X90795600Y-89654000D02*
X88900000Y-87758400D01*
X88900000Y-87758400D02*
X88900000Y-84787314D01*
X88900000Y-84787314D02*
X88900000Y-83566000D01*
X89662000Y-91706000D02*
X89662000Y-91140000D01*
X89662000Y-91140000D02*
X91148000Y-89654000D01*
X91148000Y-89654000D02*
X91223000Y-89654000D01*
X86577000Y-89654000D02*
X87004400Y-89654000D01*
X87004400Y-89654000D02*
X87630000Y-89028400D01*
X87630000Y-89028400D02*
X87630000Y-82296000D01*
X87630000Y-82296000D02*
X87223599Y-81889599D01*
X87223599Y-81889599D02*
X86360000Y-81026000D01*
X88138000Y-91706000D02*
X88138000Y-91140000D01*
X88138000Y-91140000D02*
X86652000Y-89654000D01*
X86652000Y-89654000D02*
X86577000Y-89654000D01*
X86614000Y-91303600D02*
X86029800Y-90719400D01*
X86029800Y-88773800D02*
X86149600Y-88654000D01*
X86149600Y-88654000D02*
X86577000Y-88654000D01*
X86029800Y-90719400D02*
X86029800Y-90010062D01*
X86614000Y-91706000D02*
X86614000Y-91303600D01*
X86577000Y-88654000D02*
X86577000Y-83783000D01*
X86029800Y-90010062D02*
X85998799Y-89979061D01*
X85998799Y-89979061D02*
X85998799Y-88828939D01*
X85998799Y-88828939D02*
X86029800Y-88797938D01*
X86029800Y-88797938D02*
X86029800Y-88773800D01*
X86577000Y-83783000D02*
X86360000Y-83566000D01*
X85252000Y-88654000D02*
X85115400Y-88517400D01*
X85115400Y-88517400D02*
X85115400Y-82321400D01*
X85115400Y-82321400D02*
X83820000Y-81026000D01*
X85090000Y-91706000D02*
X85090000Y-91303600D01*
X85090000Y-91303600D02*
X85705201Y-90688399D01*
X85705201Y-90688399D02*
X85705201Y-88704801D01*
X85654400Y-88654000D02*
X85252000Y-88654000D01*
X85705201Y-88704801D02*
X85654400Y-88654000D01*
X85127000Y-89654000D02*
X84740518Y-89654000D01*
X84740518Y-89654000D02*
X83820000Y-88733482D01*
X83820000Y-88733482D02*
X83820000Y-84787314D01*
X83820000Y-84787314D02*
X83820000Y-83566000D01*
X83566000Y-91706000D02*
X83566000Y-91140000D01*
X83566000Y-91140000D02*
X85052000Y-89654000D01*
X85052000Y-89654000D02*
X85127000Y-89654000D01*
X90424000Y-108839000D02*
X90424000Y-109625000D01*
X90424000Y-109625000D02*
X90551000Y-109752000D01*
X88150000Y-107512000D02*
X88150000Y-108152500D01*
X88150000Y-108152500D02*
X88201500Y-108204000D01*
X93116434Y-109740000D02*
X93345000Y-109740000D01*
X91783633Y-108407199D02*
X93116434Y-109740000D01*
X90042799Y-108407199D02*
X91783633Y-108407199D01*
X89650000Y-108014400D02*
X90042799Y-108407199D01*
X89650000Y-107512000D02*
X89650000Y-108014400D01*
X90150000Y-107512000D02*
X91319500Y-107512000D01*
X92837000Y-109029500D02*
X95228500Y-109029500D01*
X91319500Y-107512000D02*
X92837000Y-109029500D01*
X95228500Y-109029500D02*
X95939000Y-109740000D01*
X95939000Y-109740000D02*
X96139000Y-109740000D01*
X84951000Y-98044000D02*
X86639400Y-98044000D01*
X86639400Y-98044000D02*
X86650000Y-98033400D01*
X86650000Y-98033400D02*
X86650000Y-97736000D01*
X86925000Y-104287000D02*
X86925000Y-104009600D01*
X86925000Y-104009600D02*
X86650000Y-103734600D01*
X86650000Y-103734600D02*
X86650000Y-98033400D01*
X87150000Y-102421732D02*
X87150000Y-100330000D01*
X87150000Y-100330000D02*
X87150000Y-99538400D01*
X85840000Y-100330000D02*
X85090000Y-100330000D01*
X87650000Y-103562000D02*
X87650000Y-102921732D01*
X87650000Y-102921732D02*
X87150000Y-102421732D01*
X87150000Y-99538400D02*
X87150000Y-98886000D01*
X87650000Y-102490666D02*
X87650000Y-101219000D01*
X87650000Y-101219000D02*
X87650000Y-99538400D01*
X85840000Y-101854000D02*
X85090000Y-101854000D01*
X88150000Y-103562000D02*
X88150000Y-102990666D01*
X88150000Y-102990666D02*
X87650000Y-102490666D01*
X87650000Y-99538400D02*
X87650000Y-98886000D01*
X88150000Y-102559600D02*
X88150000Y-102108000D01*
X88150000Y-102108000D02*
X88150000Y-99538400D01*
X85437600Y-103378000D02*
X85090000Y-103378000D01*
X85840000Y-103378000D02*
X85437600Y-103378000D01*
X88650000Y-103562000D02*
X88650000Y-103059600D01*
X88650000Y-103059600D02*
X88150000Y-102559600D01*
X88150000Y-99538400D02*
X88150000Y-98886000D01*
X88646000Y-100330000D02*
X88646000Y-98890000D01*
X88646000Y-98890000D02*
X88650000Y-98886000D01*
X90944000Y-100330000D02*
X91694000Y-100330000D01*
X89150000Y-103562000D02*
X89150000Y-103059600D01*
X88650000Y-99538400D02*
X88650000Y-98886000D01*
X89150000Y-103059600D02*
X88650000Y-102559600D01*
X88650000Y-102559600D02*
X88650000Y-99538400D01*
X89150000Y-102559600D02*
X89150000Y-101219000D01*
X89150000Y-101219000D02*
X89150000Y-99538400D01*
X93484000Y-101219000D02*
X94234000Y-101219000D01*
X89650000Y-103562000D02*
X89650000Y-103059600D01*
X89650000Y-103059600D02*
X89150000Y-102559600D01*
X89150000Y-99538400D02*
X89150000Y-98886000D01*
X91694000Y-102108000D02*
X90944000Y-102108000D01*
X89650000Y-102108000D02*
X89650000Y-99538400D01*
X89650000Y-102559600D02*
X89650000Y-102108000D01*
X90150000Y-103562000D02*
X90150000Y-103059600D01*
X90150000Y-103059600D02*
X89650000Y-102559600D01*
X89650000Y-99538400D02*
X89650000Y-98886000D01*
X90875000Y-104287000D02*
X90875000Y-103181000D01*
X90875000Y-103181000D02*
X91059000Y-102997000D01*
X91059000Y-102997000D02*
X93081600Y-102997000D01*
X93081600Y-102997000D02*
X93484000Y-102997000D01*
X90875000Y-104287000D02*
X90875000Y-103150482D01*
X90150000Y-99538400D02*
X90150000Y-98886000D01*
X90875000Y-103150482D02*
X90150000Y-102425482D01*
X90150000Y-102425482D02*
X90150000Y-99538400D01*
X94034000Y-93206000D02*
X94234000Y-93206000D01*
X93082189Y-94157811D02*
X94034000Y-93206000D01*
X91525789Y-94157811D02*
X93082189Y-94157811D01*
X90150000Y-95533600D02*
X91525789Y-94157811D01*
X90150000Y-96186000D02*
X90150000Y-95533600D01*
X91863000Y-93853000D02*
X92510000Y-93206000D01*
X91330600Y-93853000D02*
X91863000Y-93853000D01*
X89650000Y-96186000D02*
X89650000Y-95533600D01*
X89650000Y-95533600D02*
X91330600Y-93853000D01*
X92510000Y-93206000D02*
X92710000Y-93206000D01*
X89150000Y-96186000D02*
X89150000Y-95042000D01*
X89150000Y-95042000D02*
X90986000Y-93206000D01*
X90986000Y-93206000D02*
X91186000Y-93206000D01*
X88650000Y-96186000D02*
X88650000Y-94018000D01*
X88650000Y-94018000D02*
X89462000Y-93206000D01*
X89462000Y-93206000D02*
X89662000Y-93206000D01*
X88150000Y-96186000D02*
X88150000Y-93218000D01*
X88150000Y-93218000D02*
X88138000Y-93206000D01*
X87650000Y-96186000D02*
X87650000Y-94042000D01*
X87650000Y-94042000D02*
X86814000Y-93206000D01*
X86814000Y-93206000D02*
X86614000Y-93206000D01*
X87150000Y-96186000D02*
X87150000Y-95066000D01*
X87150000Y-95066000D02*
X85290000Y-93206000D01*
X85290000Y-93206000D02*
X85090000Y-93206000D01*
X86650000Y-97336000D02*
X86650000Y-96090000D01*
X86650000Y-96090000D02*
X83766000Y-93206000D01*
X83766000Y-93206000D02*
X83566000Y-93206000D01*
X98679000Y-104720900D02*
X98679000Y-104318500D01*
X98679000Y-105612482D02*
X98679000Y-104720900D01*
X95566793Y-108724689D02*
X98679000Y-105612482D01*
X93037689Y-108724689D02*
X95566793Y-108724689D01*
X90875000Y-106787000D02*
X91100000Y-106787000D01*
X91100000Y-106787000D02*
X93037689Y-108724689D01*
X97155000Y-104318500D02*
X98679000Y-104318500D01*
X90875000Y-106287000D02*
X91377400Y-106287000D01*
X91377400Y-106287000D02*
X91535400Y-106445000D01*
X91535400Y-106445000D02*
X91711600Y-106445000D01*
X91711600Y-106445000D02*
X92239000Y-106445000D01*
X90875000Y-105787000D02*
X91377400Y-105787000D01*
X91377400Y-105787000D02*
X91635400Y-106045000D01*
X91635400Y-106045000D02*
X91711600Y-106045000D01*
X91711600Y-106045000D02*
X92239000Y-106045000D01*
X90875000Y-105287000D02*
X92133400Y-105287000D01*
X92133400Y-105287000D02*
X92239000Y-105392600D01*
X92239000Y-105392600D02*
X92239000Y-105645000D01*
X90875000Y-104787000D02*
X92706000Y-104787000D01*
X92706000Y-104787000D02*
X92964000Y-105045000D01*
X92964000Y-105045000D02*
X92964000Y-105320000D01*
D36*
G36*
X80054500Y-95460191D02*
X80054500Y-95700750D01*
X80213250Y-95859500D01*
X80962500Y-95859500D01*
X80962500Y-95839500D01*
X81216500Y-95839500D01*
X81216500Y-95859500D01*
X81965750Y-95859500D01*
X82124500Y-95700750D01*
X82124500Y-95460191D01*
X82063739Y-95313500D01*
X84867712Y-95313500D01*
X85938800Y-96384588D01*
X85938800Y-96533300D01*
X85914683Y-96537838D01*
X85698559Y-96676910D01*
X85553569Y-96889110D01*
X85522038Y-97044816D01*
X85452890Y-96997569D01*
X85201000Y-96946560D01*
X84701000Y-96946560D01*
X84465683Y-96990838D01*
X84249559Y-97129910D01*
X84203031Y-97198006D01*
X84060698Y-97055673D01*
X83827309Y-96959000D01*
X83734750Y-96959000D01*
X83576000Y-97117750D01*
X83576000Y-97917000D01*
X83598000Y-97917000D01*
X83598000Y-98171000D01*
X83576000Y-98171000D01*
X83576000Y-98970250D01*
X83734750Y-99129000D01*
X83827309Y-99129000D01*
X84060698Y-99032327D01*
X84201936Y-98891090D01*
X84236910Y-98945441D01*
X84449110Y-99090431D01*
X84701000Y-99141440D01*
X85201000Y-99141440D01*
X85436317Y-99097162D01*
X85652441Y-98958090D01*
X85791070Y-98755200D01*
X85938800Y-98755200D01*
X85938800Y-99232560D01*
X85590000Y-99232560D01*
X85354683Y-99276838D01*
X85138559Y-99415910D01*
X85092031Y-99484006D01*
X84949698Y-99341673D01*
X84716309Y-99245000D01*
X84623750Y-99245000D01*
X84465000Y-99403750D01*
X84465000Y-99769550D01*
X84379823Y-99854578D01*
X84251946Y-100162540D01*
X84251655Y-100495997D01*
X84378995Y-100804182D01*
X84465000Y-100890337D01*
X84465000Y-101293550D01*
X84379823Y-101378578D01*
X84277200Y-101625722D01*
X84277200Y-101315100D01*
X84258968Y-101223440D01*
X84223063Y-101042935D01*
X84215000Y-101030868D01*
X84215000Y-100457000D01*
X84193000Y-100457000D01*
X84193000Y-100203000D01*
X84215000Y-100203000D01*
X84215000Y-99403750D01*
X84056250Y-99245000D01*
X83963691Y-99245000D01*
X83730302Y-99341673D01*
X83551673Y-99520301D01*
X83455000Y-99753690D01*
X83455000Y-100044250D01*
X83613748Y-100202998D01*
X83459686Y-100202998D01*
X82759794Y-99503106D01*
X82751940Y-99497858D01*
X82751940Y-99436000D01*
X82707662Y-99200683D01*
X82568590Y-98984559D01*
X82356390Y-98839569D01*
X82215312Y-98811000D01*
X82230809Y-98811000D01*
X82464198Y-98714327D01*
X82566000Y-98612526D01*
X82566000Y-98620310D01*
X82662673Y-98853699D01*
X82841302Y-99032327D01*
X83074691Y-99129000D01*
X83167250Y-99129000D01*
X83326000Y-98970250D01*
X83326000Y-98171000D01*
X83304000Y-98171000D01*
X83304000Y-97917000D01*
X83326000Y-97917000D01*
X83326000Y-97117750D01*
X83167250Y-96959000D01*
X83074691Y-96959000D01*
X82841302Y-97055673D01*
X82739500Y-97157474D01*
X82739500Y-96909690D01*
X82642827Y-96676301D01*
X82464198Y-96497673D01*
X82230809Y-96401000D01*
X82124500Y-96401000D01*
X82124500Y-96272250D01*
X81965750Y-96113500D01*
X81216500Y-96113500D01*
X81216500Y-97479000D01*
X81236500Y-97479000D01*
X81236500Y-97733000D01*
X81216500Y-97733000D01*
X81216500Y-97753000D01*
X80962500Y-97753000D01*
X80962500Y-97733000D01*
X79598250Y-97733000D01*
X79439500Y-97891750D01*
X79439500Y-98302310D01*
X79536173Y-98535699D01*
X79714802Y-98714327D01*
X79948191Y-98811000D01*
X79955242Y-98811000D01*
X79839183Y-98832838D01*
X79623059Y-98971910D01*
X79478069Y-99184110D01*
X79427060Y-99436000D01*
X79427060Y-100443560D01*
X78806000Y-100443560D01*
X78570683Y-100487838D01*
X78354559Y-100626910D01*
X78209569Y-100839110D01*
X78158560Y-101091000D01*
X78158560Y-102891000D01*
X78202838Y-103126317D01*
X78293190Y-103266727D01*
X78209569Y-103389110D01*
X78158560Y-103641000D01*
X78158560Y-105541000D01*
X78202838Y-105776317D01*
X78210342Y-105787979D01*
X78209569Y-105789110D01*
X78158560Y-106041000D01*
X78158560Y-107941000D01*
X78202838Y-108176317D01*
X78293190Y-108316727D01*
X78209569Y-108439110D01*
X78158560Y-108691000D01*
X78158560Y-110491000D01*
X78202838Y-110726317D01*
X78341910Y-110942441D01*
X78554110Y-111087431D01*
X78806000Y-111138440D01*
X80706000Y-111138440D01*
X80941317Y-111094162D01*
X81157441Y-110955090D01*
X81302431Y-110742890D01*
X81340495Y-110554924D01*
X81506000Y-110588440D01*
X83106000Y-110588440D01*
X83341317Y-110544162D01*
X83362709Y-110530396D01*
X83362655Y-110592497D01*
X83489995Y-110900682D01*
X83725578Y-111136677D01*
X84033540Y-111264554D01*
X84366997Y-111264845D01*
X84675182Y-111137505D01*
X84911177Y-110901922D01*
X85039054Y-110593960D01*
X85039345Y-110260503D01*
X84960786Y-110070377D01*
X84971110Y-110077431D01*
X85223000Y-110128440D01*
X85845560Y-110128440D01*
X85845560Y-110878000D01*
X85889838Y-111113317D01*
X86028910Y-111329441D01*
X86032660Y-111332003D01*
X86029946Y-111338540D01*
X86029655Y-111671997D01*
X86156995Y-111980182D01*
X86392578Y-112216177D01*
X86700540Y-112344054D01*
X87033997Y-112344345D01*
X87342182Y-112217005D01*
X87578177Y-111981422D01*
X87706054Y-111673460D01*
X87706216Y-111488223D01*
X87890000Y-111525440D01*
X88640000Y-111525440D01*
X88875317Y-111481162D01*
X89091441Y-111342090D01*
X89236431Y-111129890D01*
X89287440Y-110878000D01*
X89287440Y-110078000D01*
X89243162Y-109842683D01*
X89176671Y-109739354D01*
X89178327Y-109737698D01*
X89203391Y-109677188D01*
X89383497Y-109677345D01*
X89453560Y-109648395D01*
X89453560Y-110002000D01*
X89497838Y-110237317D01*
X89636910Y-110453441D01*
X89706711Y-110501134D01*
X89649559Y-110537910D01*
X89504569Y-110750110D01*
X89453560Y-111002000D01*
X89453560Y-111502000D01*
X89497838Y-111737317D01*
X89636910Y-111953441D01*
X89849110Y-112098431D01*
X90101000Y-112149440D01*
X90945777Y-112149440D01*
X91009673Y-112303698D01*
X91188301Y-112482327D01*
X91421690Y-112579000D01*
X91662250Y-112579000D01*
X91821000Y-112420250D01*
X91821000Y-111671000D01*
X91801000Y-111671000D01*
X91801000Y-111417000D01*
X91821000Y-111417000D01*
X91821000Y-111397000D01*
X92075000Y-111397000D01*
X92075000Y-111417000D01*
X92095000Y-111417000D01*
X92095000Y-111671000D01*
X92075000Y-111671000D01*
X92075000Y-112420250D01*
X92233750Y-112579000D01*
X92474310Y-112579000D01*
X92707699Y-112482327D01*
X92886327Y-112303698D01*
X92955193Y-112137440D01*
X93734807Y-112137440D01*
X93803673Y-112303698D01*
X93982301Y-112482327D01*
X94215690Y-112579000D01*
X94456250Y-112579000D01*
X94615000Y-112420250D01*
X94615000Y-111671000D01*
X94595000Y-111671000D01*
X94595000Y-111417000D01*
X94615000Y-111417000D01*
X94615000Y-111397000D01*
X94869000Y-111397000D01*
X94869000Y-111417000D01*
X94889000Y-111417000D01*
X94889000Y-111671000D01*
X94869000Y-111671000D01*
X94869000Y-112420250D01*
X95027750Y-112579000D01*
X95268310Y-112579000D01*
X95501699Y-112482327D01*
X95680327Y-112303698D01*
X95749193Y-112137440D01*
X96528807Y-112137440D01*
X96597673Y-112303698D01*
X96776301Y-112482327D01*
X97009690Y-112579000D01*
X97250250Y-112579000D01*
X97409000Y-112420250D01*
X97409000Y-111671000D01*
X97663000Y-111671000D01*
X97663000Y-112420250D01*
X97821750Y-112579000D01*
X98062310Y-112579000D01*
X98295699Y-112482327D01*
X98474327Y-112303698D01*
X98571000Y-112070309D01*
X98571000Y-111829750D01*
X98412250Y-111671000D01*
X97663000Y-111671000D01*
X97409000Y-111671000D01*
X97389000Y-111671000D01*
X97389000Y-111417000D01*
X97409000Y-111417000D01*
X97409000Y-111397000D01*
X97663000Y-111397000D01*
X97663000Y-111417000D01*
X98412250Y-111417000D01*
X98571000Y-111258250D01*
X98571000Y-111017691D01*
X98474327Y-110784302D01*
X98432366Y-110742340D01*
X98532431Y-110595890D01*
X98583440Y-110344000D01*
X98583440Y-109544000D01*
X98539162Y-109308683D01*
X98400090Y-109092559D01*
X98187890Y-108947569D01*
X97936000Y-108896560D01*
X97136000Y-108896560D01*
X96908044Y-108939453D01*
X96840890Y-108893569D01*
X96589000Y-108842560D01*
X96454710Y-108842560D01*
X96902770Y-108394500D01*
X99874000Y-108394500D01*
X99874000Y-121158000D01*
X77926000Y-121158000D01*
X77926000Y-118723026D01*
X82365042Y-118723026D01*
X82537312Y-119138947D01*
X82931510Y-119570821D01*
X83460973Y-119818968D01*
X83693000Y-119698469D01*
X83693000Y-118491000D01*
X82486183Y-118491000D01*
X82365042Y-118723026D01*
X77926000Y-118723026D01*
X77926000Y-115824000D01*
X82292041Y-115824000D01*
X82406115Y-116397489D01*
X82730971Y-116883670D01*
X83054228Y-117099664D01*
X82931510Y-117157179D01*
X82537312Y-117589053D01*
X82365042Y-118004974D01*
X82486183Y-118237000D01*
X83693000Y-118237000D01*
X83693000Y-118217000D01*
X83947000Y-118217000D01*
X83947000Y-118237000D01*
X83967000Y-118237000D01*
X83967000Y-118491000D01*
X83947000Y-118491000D01*
X83947000Y-119698469D01*
X84179027Y-119818968D01*
X84708490Y-119570821D01*
X85090008Y-119152839D01*
X85270971Y-119423670D01*
X85757152Y-119748526D01*
X86330641Y-119862600D01*
X86389359Y-119862600D01*
X86962848Y-119748526D01*
X87449029Y-119423670D01*
X87630000Y-119152828D01*
X87810971Y-119423670D01*
X88297152Y-119748526D01*
X88870641Y-119862600D01*
X88929359Y-119862600D01*
X89502848Y-119748526D01*
X89989029Y-119423670D01*
X90170000Y-119152828D01*
X90350971Y-119423670D01*
X90837152Y-119748526D01*
X91410641Y-119862600D01*
X91469359Y-119862600D01*
X92042848Y-119748526D01*
X92529029Y-119423670D01*
X92710000Y-119152828D01*
X92890971Y-119423670D01*
X93377152Y-119748526D01*
X93950641Y-119862600D01*
X94009359Y-119862600D01*
X94582848Y-119748526D01*
X95069029Y-119423670D01*
X95393885Y-118937489D01*
X95507959Y-118364000D01*
X95393885Y-117790511D01*
X95069029Y-117304330D01*
X95055358Y-117295195D01*
X95078917Y-117290762D01*
X95295041Y-117151690D01*
X95440031Y-116939490D01*
X95491040Y-116687600D01*
X95491040Y-114960400D01*
X95446762Y-114725083D01*
X95307690Y-114508959D01*
X95095490Y-114363969D01*
X94843600Y-114312960D01*
X93116400Y-114312960D01*
X92881083Y-114357238D01*
X92664959Y-114496310D01*
X92519969Y-114708510D01*
X92511092Y-114752345D01*
X92042848Y-114439474D01*
X91469359Y-114325400D01*
X91410641Y-114325400D01*
X90837152Y-114439474D01*
X90350971Y-114764330D01*
X90170000Y-115035172D01*
X89989029Y-114764330D01*
X89502848Y-114439474D01*
X88929359Y-114325400D01*
X88870641Y-114325400D01*
X88297152Y-114439474D01*
X87810971Y-114764330D01*
X87630000Y-115035172D01*
X87449029Y-114764330D01*
X86962848Y-114439474D01*
X86389359Y-114325400D01*
X86330641Y-114325400D01*
X85757152Y-114439474D01*
X85270971Y-114764330D01*
X85090000Y-115035172D01*
X84909029Y-114764330D01*
X84422848Y-114439474D01*
X83849359Y-114325400D01*
X83790641Y-114325400D01*
X83217152Y-114439474D01*
X82730971Y-114764330D01*
X82406115Y-115250511D01*
X82292041Y-115824000D01*
X77926000Y-115824000D01*
X77926000Y-96909690D01*
X79439500Y-96909690D01*
X79439500Y-97320250D01*
X79598250Y-97479000D01*
X80962500Y-97479000D01*
X80962500Y-96113500D01*
X80213250Y-96113500D01*
X80054500Y-96272250D01*
X80054500Y-96401000D01*
X79948191Y-96401000D01*
X79714802Y-96497673D01*
X79536173Y-96676301D01*
X79439500Y-96909690D01*
X77926000Y-96909690D01*
X77926000Y-95313500D01*
X80115261Y-95313500D01*
X80054500Y-95460191D01*
X80054500Y-95460191D01*
G37*
X80054500Y-95460191D02*
X80054500Y-95700750D01*
X80213250Y-95859500D01*
X80962500Y-95859500D01*
X80962500Y-95839500D01*
X81216500Y-95839500D01*
X81216500Y-95859500D01*
X81965750Y-95859500D01*
X82124500Y-95700750D01*
X82124500Y-95460191D01*
X82063739Y-95313500D01*
X84867712Y-95313500D01*
X85938800Y-96384588D01*
X85938800Y-96533300D01*
X85914683Y-96537838D01*
X85698559Y-96676910D01*
X85553569Y-96889110D01*
X85522038Y-97044816D01*
X85452890Y-96997569D01*
X85201000Y-96946560D01*
X84701000Y-96946560D01*
X84465683Y-96990838D01*
X84249559Y-97129910D01*
X84203031Y-97198006D01*
X84060698Y-97055673D01*
X83827309Y-96959000D01*
X83734750Y-96959000D01*
X83576000Y-97117750D01*
X83576000Y-97917000D01*
X83598000Y-97917000D01*
X83598000Y-98171000D01*
X83576000Y-98171000D01*
X83576000Y-98970250D01*
X83734750Y-99129000D01*
X83827309Y-99129000D01*
X84060698Y-99032327D01*
X84201936Y-98891090D01*
X84236910Y-98945441D01*
X84449110Y-99090431D01*
X84701000Y-99141440D01*
X85201000Y-99141440D01*
X85436317Y-99097162D01*
X85652441Y-98958090D01*
X85791070Y-98755200D01*
X85938800Y-98755200D01*
X85938800Y-99232560D01*
X85590000Y-99232560D01*
X85354683Y-99276838D01*
X85138559Y-99415910D01*
X85092031Y-99484006D01*
X84949698Y-99341673D01*
X84716309Y-99245000D01*
X84623750Y-99245000D01*
X84465000Y-99403750D01*
X84465000Y-99769550D01*
X84379823Y-99854578D01*
X84251946Y-100162540D01*
X84251655Y-100495997D01*
X84378995Y-100804182D01*
X84465000Y-100890337D01*
X84465000Y-101293550D01*
X84379823Y-101378578D01*
X84277200Y-101625722D01*
X84277200Y-101315100D01*
X84258968Y-101223440D01*
X84223063Y-101042935D01*
X84215000Y-101030868D01*
X84215000Y-100457000D01*
X84193000Y-100457000D01*
X84193000Y-100203000D01*
X84215000Y-100203000D01*
X84215000Y-99403750D01*
X84056250Y-99245000D01*
X83963691Y-99245000D01*
X83730302Y-99341673D01*
X83551673Y-99520301D01*
X83455000Y-99753690D01*
X83455000Y-100044250D01*
X83613748Y-100202998D01*
X83459686Y-100202998D01*
X82759794Y-99503106D01*
X82751940Y-99497858D01*
X82751940Y-99436000D01*
X82707662Y-99200683D01*
X82568590Y-98984559D01*
X82356390Y-98839569D01*
X82215312Y-98811000D01*
X82230809Y-98811000D01*
X82464198Y-98714327D01*
X82566000Y-98612526D01*
X82566000Y-98620310D01*
X82662673Y-98853699D01*
X82841302Y-99032327D01*
X83074691Y-99129000D01*
X83167250Y-99129000D01*
X83326000Y-98970250D01*
X83326000Y-98171000D01*
X83304000Y-98171000D01*
X83304000Y-97917000D01*
X83326000Y-97917000D01*
X83326000Y-97117750D01*
X83167250Y-96959000D01*
X83074691Y-96959000D01*
X82841302Y-97055673D01*
X82739500Y-97157474D01*
X82739500Y-96909690D01*
X82642827Y-96676301D01*
X82464198Y-96497673D01*
X82230809Y-96401000D01*
X82124500Y-96401000D01*
X82124500Y-96272250D01*
X81965750Y-96113500D01*
X81216500Y-96113500D01*
X81216500Y-97479000D01*
X81236500Y-97479000D01*
X81236500Y-97733000D01*
X81216500Y-97733000D01*
X81216500Y-97753000D01*
X80962500Y-97753000D01*
X80962500Y-97733000D01*
X79598250Y-97733000D01*
X79439500Y-97891750D01*
X79439500Y-98302310D01*
X79536173Y-98535699D01*
X79714802Y-98714327D01*
X79948191Y-98811000D01*
X79955242Y-98811000D01*
X79839183Y-98832838D01*
X79623059Y-98971910D01*
X79478069Y-99184110D01*
X79427060Y-99436000D01*
X79427060Y-100443560D01*
X78806000Y-100443560D01*
X78570683Y-100487838D01*
X78354559Y-100626910D01*
X78209569Y-100839110D01*
X78158560Y-101091000D01*
X78158560Y-102891000D01*
X78202838Y-103126317D01*
X78293190Y-103266727D01*
X78209569Y-103389110D01*
X78158560Y-103641000D01*
X78158560Y-105541000D01*
X78202838Y-105776317D01*
X78210342Y-105787979D01*
X78209569Y-105789110D01*
X78158560Y-106041000D01*
X78158560Y-107941000D01*
X78202838Y-108176317D01*
X78293190Y-108316727D01*
X78209569Y-108439110D01*
X78158560Y-108691000D01*
X78158560Y-110491000D01*
X78202838Y-110726317D01*
X78341910Y-110942441D01*
X78554110Y-111087431D01*
X78806000Y-111138440D01*
X80706000Y-111138440D01*
X80941317Y-111094162D01*
X81157441Y-110955090D01*
X81302431Y-110742890D01*
X81340495Y-110554924D01*
X81506000Y-110588440D01*
X83106000Y-110588440D01*
X83341317Y-110544162D01*
X83362709Y-110530396D01*
X83362655Y-110592497D01*
X83489995Y-110900682D01*
X83725578Y-111136677D01*
X84033540Y-111264554D01*
X84366997Y-111264845D01*
X84675182Y-111137505D01*
X84911177Y-110901922D01*
X85039054Y-110593960D01*
X85039345Y-110260503D01*
X84960786Y-110070377D01*
X84971110Y-110077431D01*
X85223000Y-110128440D01*
X85845560Y-110128440D01*
X85845560Y-110878000D01*
X85889838Y-111113317D01*
X86028910Y-111329441D01*
X86032660Y-111332003D01*
X86029946Y-111338540D01*
X86029655Y-111671997D01*
X86156995Y-111980182D01*
X86392578Y-112216177D01*
X86700540Y-112344054D01*
X87033997Y-112344345D01*
X87342182Y-112217005D01*
X87578177Y-111981422D01*
X87706054Y-111673460D01*
X87706216Y-111488223D01*
X87890000Y-111525440D01*
X88640000Y-111525440D01*
X88875317Y-111481162D01*
X89091441Y-111342090D01*
X89236431Y-111129890D01*
X89287440Y-110878000D01*
X89287440Y-110078000D01*
X89243162Y-109842683D01*
X89176671Y-109739354D01*
X89178327Y-109737698D01*
X89203391Y-109677188D01*
X89383497Y-109677345D01*
X89453560Y-109648395D01*
X89453560Y-110002000D01*
X89497838Y-110237317D01*
X89636910Y-110453441D01*
X89706711Y-110501134D01*
X89649559Y-110537910D01*
X89504569Y-110750110D01*
X89453560Y-111002000D01*
X89453560Y-111502000D01*
X89497838Y-111737317D01*
X89636910Y-111953441D01*
X89849110Y-112098431D01*
X90101000Y-112149440D01*
X90945777Y-112149440D01*
X91009673Y-112303698D01*
X91188301Y-112482327D01*
X91421690Y-112579000D01*
X91662250Y-112579000D01*
X91821000Y-112420250D01*
X91821000Y-111671000D01*
X91801000Y-111671000D01*
X91801000Y-111417000D01*
X91821000Y-111417000D01*
X91821000Y-111397000D01*
X92075000Y-111397000D01*
X92075000Y-111417000D01*
X92095000Y-111417000D01*
X92095000Y-111671000D01*
X92075000Y-111671000D01*
X92075000Y-112420250D01*
X92233750Y-112579000D01*
X92474310Y-112579000D01*
X92707699Y-112482327D01*
X92886327Y-112303698D01*
X92955193Y-112137440D01*
X93734807Y-112137440D01*
X93803673Y-112303698D01*
X93982301Y-112482327D01*
X94215690Y-112579000D01*
X94456250Y-112579000D01*
X94615000Y-112420250D01*
X94615000Y-111671000D01*
X94595000Y-111671000D01*
X94595000Y-111417000D01*
X94615000Y-111417000D01*
X94615000Y-111397000D01*
X94869000Y-111397000D01*
X94869000Y-111417000D01*
X94889000Y-111417000D01*
X94889000Y-111671000D01*
X94869000Y-111671000D01*
X94869000Y-112420250D01*
X95027750Y-112579000D01*
X95268310Y-112579000D01*
X95501699Y-112482327D01*
X95680327Y-112303698D01*
X95749193Y-112137440D01*
X96528807Y-112137440D01*
X96597673Y-112303698D01*
X96776301Y-112482327D01*
X97009690Y-112579000D01*
X97250250Y-112579000D01*
X97409000Y-112420250D01*
X97409000Y-111671000D01*
X97663000Y-111671000D01*
X97663000Y-112420250D01*
X97821750Y-112579000D01*
X98062310Y-112579000D01*
X98295699Y-112482327D01*
X98474327Y-112303698D01*
X98571000Y-112070309D01*
X98571000Y-111829750D01*
X98412250Y-111671000D01*
X97663000Y-111671000D01*
X97409000Y-111671000D01*
X97389000Y-111671000D01*
X97389000Y-111417000D01*
X97409000Y-111417000D01*
X97409000Y-111397000D01*
X97663000Y-111397000D01*
X97663000Y-111417000D01*
X98412250Y-111417000D01*
X98571000Y-111258250D01*
X98571000Y-111017691D01*
X98474327Y-110784302D01*
X98432366Y-110742340D01*
X98532431Y-110595890D01*
X98583440Y-110344000D01*
X98583440Y-109544000D01*
X98539162Y-109308683D01*
X98400090Y-109092559D01*
X98187890Y-108947569D01*
X97936000Y-108896560D01*
X97136000Y-108896560D01*
X96908044Y-108939453D01*
X96840890Y-108893569D01*
X96589000Y-108842560D01*
X96454710Y-108842560D01*
X96902770Y-108394500D01*
X99874000Y-108394500D01*
X99874000Y-121158000D01*
X77926000Y-121158000D01*
X77926000Y-118723026D01*
X82365042Y-118723026D01*
X82537312Y-119138947D01*
X82931510Y-119570821D01*
X83460973Y-119818968D01*
X83693000Y-119698469D01*
X83693000Y-118491000D01*
X82486183Y-118491000D01*
X82365042Y-118723026D01*
X77926000Y-118723026D01*
X77926000Y-115824000D01*
X82292041Y-115824000D01*
X82406115Y-116397489D01*
X82730971Y-116883670D01*
X83054228Y-117099664D01*
X82931510Y-117157179D01*
X82537312Y-117589053D01*
X82365042Y-118004974D01*
X82486183Y-118237000D01*
X83693000Y-118237000D01*
X83693000Y-118217000D01*
X83947000Y-118217000D01*
X83947000Y-118237000D01*
X83967000Y-118237000D01*
X83967000Y-118491000D01*
X83947000Y-118491000D01*
X83947000Y-119698469D01*
X84179027Y-119818968D01*
X84708490Y-119570821D01*
X85090008Y-119152839D01*
X85270971Y-119423670D01*
X85757152Y-119748526D01*
X86330641Y-119862600D01*
X86389359Y-119862600D01*
X86962848Y-119748526D01*
X87449029Y-119423670D01*
X87630000Y-119152828D01*
X87810971Y-119423670D01*
X88297152Y-119748526D01*
X88870641Y-119862600D01*
X88929359Y-119862600D01*
X89502848Y-119748526D01*
X89989029Y-119423670D01*
X90170000Y-119152828D01*
X90350971Y-119423670D01*
X90837152Y-119748526D01*
X91410641Y-119862600D01*
X91469359Y-119862600D01*
X92042848Y-119748526D01*
X92529029Y-119423670D01*
X92710000Y-119152828D01*
X92890971Y-119423670D01*
X93377152Y-119748526D01*
X93950641Y-119862600D01*
X94009359Y-119862600D01*
X94582848Y-119748526D01*
X95069029Y-119423670D01*
X95393885Y-118937489D01*
X95507959Y-118364000D01*
X95393885Y-117790511D01*
X95069029Y-117304330D01*
X95055358Y-117295195D01*
X95078917Y-117290762D01*
X95295041Y-117151690D01*
X95440031Y-116939490D01*
X95491040Y-116687600D01*
X95491040Y-114960400D01*
X95446762Y-114725083D01*
X95307690Y-114508959D01*
X95095490Y-114363969D01*
X94843600Y-114312960D01*
X93116400Y-114312960D01*
X92881083Y-114357238D01*
X92664959Y-114496310D01*
X92519969Y-114708510D01*
X92511092Y-114752345D01*
X92042848Y-114439474D01*
X91469359Y-114325400D01*
X91410641Y-114325400D01*
X90837152Y-114439474D01*
X90350971Y-114764330D01*
X90170000Y-115035172D01*
X89989029Y-114764330D01*
X89502848Y-114439474D01*
X88929359Y-114325400D01*
X88870641Y-114325400D01*
X88297152Y-114439474D01*
X87810971Y-114764330D01*
X87630000Y-115035172D01*
X87449029Y-114764330D01*
X86962848Y-114439474D01*
X86389359Y-114325400D01*
X86330641Y-114325400D01*
X85757152Y-114439474D01*
X85270971Y-114764330D01*
X85090000Y-115035172D01*
X84909029Y-114764330D01*
X84422848Y-114439474D01*
X83849359Y-114325400D01*
X83790641Y-114325400D01*
X83217152Y-114439474D01*
X82730971Y-114764330D01*
X82406115Y-115250511D01*
X82292041Y-115824000D01*
X77926000Y-115824000D01*
X77926000Y-96909690D01*
X79439500Y-96909690D01*
X79439500Y-97320250D01*
X79598250Y-97479000D01*
X80962500Y-97479000D01*
X80962500Y-96113500D01*
X80213250Y-96113500D01*
X80054500Y-96272250D01*
X80054500Y-96401000D01*
X79948191Y-96401000D01*
X79714802Y-96497673D01*
X79536173Y-96676301D01*
X79439500Y-96909690D01*
X77926000Y-96909690D01*
X77926000Y-95313500D01*
X80115261Y-95313500D01*
X80054500Y-95460191D01*
G36*
X86995000Y-108851000D02*
X87663011Y-108851000D01*
X87726078Y-108914177D01*
X88034040Y-109042054D01*
X88367497Y-109042345D01*
X88390636Y-109032784D01*
X88412000Y-109084487D01*
X88412000Y-109105000D01*
X88392000Y-109105000D01*
X88392000Y-109125000D01*
X88138000Y-109125000D01*
X88138000Y-109105000D01*
X86995000Y-109105000D01*
X86995000Y-109125000D01*
X86741000Y-109125000D01*
X86741000Y-109105000D01*
X86721000Y-109105000D01*
X86721000Y-108851000D01*
X86741000Y-108851000D01*
X86741000Y-108831000D01*
X86995000Y-108831000D01*
X86995000Y-108851000D01*
X86995000Y-108851000D01*
G37*
X86995000Y-108851000D02*
X87663011Y-108851000D01*
X87726078Y-108914177D01*
X88034040Y-109042054D01*
X88367497Y-109042345D01*
X88390636Y-109032784D01*
X88412000Y-109084487D01*
X88412000Y-109105000D01*
X88392000Y-109105000D01*
X88392000Y-109125000D01*
X88138000Y-109125000D01*
X88138000Y-109105000D01*
X86995000Y-109105000D01*
X86995000Y-109125000D01*
X86741000Y-109125000D01*
X86741000Y-109105000D01*
X86721000Y-109105000D01*
X86721000Y-108851000D01*
X86741000Y-108851000D01*
X86741000Y-108831000D01*
X86995000Y-108831000D01*
X86995000Y-108851000D01*
G36*
X96202500Y-102179137D02*
X96108569Y-102316610D01*
X96057560Y-102568500D01*
X96057560Y-103068500D01*
X96096209Y-103273903D01*
X95869000Y-103501112D01*
X95869000Y-103282750D01*
X95710250Y-103124000D01*
X95109000Y-103124000D01*
X95109000Y-103144000D01*
X94859000Y-103144000D01*
X94859000Y-103124000D01*
X94837000Y-103124000D01*
X94837000Y-102870000D01*
X94859000Y-102870000D01*
X94859000Y-101779450D01*
X94944177Y-101694422D01*
X95072054Y-101386460D01*
X95072089Y-101346000D01*
X95109000Y-101346000D01*
X95109000Y-102870000D01*
X95710250Y-102870000D01*
X95869000Y-102711250D01*
X95869000Y-102420690D01*
X95772327Y-102187301D01*
X95693026Y-102108000D01*
X95772327Y-102028699D01*
X95869000Y-101795310D01*
X95869000Y-101504750D01*
X95710250Y-101346000D01*
X95109000Y-101346000D01*
X95072089Y-101346000D01*
X95072345Y-101053003D01*
X94945005Y-100744818D01*
X94859000Y-100658663D01*
X94859000Y-100292750D01*
X95109000Y-100292750D01*
X95109000Y-101092000D01*
X95710250Y-101092000D01*
X95869000Y-100933250D01*
X95869000Y-100642690D01*
X95772327Y-100409301D01*
X95593698Y-100230673D01*
X95360309Y-100134000D01*
X95267750Y-100134000D01*
X95109000Y-100292750D01*
X94859000Y-100292750D01*
X94700250Y-100134000D01*
X94607691Y-100134000D01*
X94374302Y-100230673D01*
X94233064Y-100371910D01*
X94198090Y-100317559D01*
X93985890Y-100172569D01*
X93734000Y-100121560D01*
X93251690Y-100121560D01*
X93329000Y-100044250D01*
X93329000Y-99903440D01*
X93734000Y-99903440D01*
X93969317Y-99859162D01*
X94185441Y-99720090D01*
X94231969Y-99651994D01*
X94374302Y-99794327D01*
X94607691Y-99891000D01*
X94700250Y-99891000D01*
X94859000Y-99732250D01*
X94859000Y-98933000D01*
X95109000Y-98933000D01*
X95109000Y-99732250D01*
X95267750Y-99891000D01*
X95360309Y-99891000D01*
X95593698Y-99794327D01*
X95772327Y-99615699D01*
X95869000Y-99382310D01*
X95869000Y-99091750D01*
X95710250Y-98933000D01*
X95109000Y-98933000D01*
X94859000Y-98933000D01*
X94837000Y-98933000D01*
X94837000Y-98679000D01*
X94859000Y-98679000D01*
X94859000Y-98659000D01*
X95109000Y-98659000D01*
X95109000Y-98679000D01*
X95710250Y-98679000D01*
X95869000Y-98520250D01*
X95869000Y-98229690D01*
X95861079Y-98210567D01*
X95980431Y-98035890D01*
X96031440Y-97784000D01*
X96031440Y-97034000D01*
X95987162Y-96798683D01*
X95848090Y-96582559D01*
X95635890Y-96437569D01*
X95384000Y-96386560D01*
X94979348Y-96386560D01*
X94863894Y-96271106D01*
X94633165Y-96116937D01*
X94361000Y-96062800D01*
X91712000Y-96062800D01*
X91484990Y-96107955D01*
X91442440Y-96116419D01*
X91442440Y-96116190D01*
X92118130Y-95440500D01*
X96202500Y-95440500D01*
X96202500Y-102179137D01*
X96202500Y-102179137D01*
G37*
X96202500Y-102179137D02*
X96108569Y-102316610D01*
X96057560Y-102568500D01*
X96057560Y-103068500D01*
X96096209Y-103273903D01*
X95869000Y-103501112D01*
X95869000Y-103282750D01*
X95710250Y-103124000D01*
X95109000Y-103124000D01*
X95109000Y-103144000D01*
X94859000Y-103144000D01*
X94859000Y-103124000D01*
X94837000Y-103124000D01*
X94837000Y-102870000D01*
X94859000Y-102870000D01*
X94859000Y-101779450D01*
X94944177Y-101694422D01*
X95072054Y-101386460D01*
X95072089Y-101346000D01*
X95109000Y-101346000D01*
X95109000Y-102870000D01*
X95710250Y-102870000D01*
X95869000Y-102711250D01*
X95869000Y-102420690D01*
X95772327Y-102187301D01*
X95693026Y-102108000D01*
X95772327Y-102028699D01*
X95869000Y-101795310D01*
X95869000Y-101504750D01*
X95710250Y-101346000D01*
X95109000Y-101346000D01*
X95072089Y-101346000D01*
X95072345Y-101053003D01*
X94945005Y-100744818D01*
X94859000Y-100658663D01*
X94859000Y-100292750D01*
X95109000Y-100292750D01*
X95109000Y-101092000D01*
X95710250Y-101092000D01*
X95869000Y-100933250D01*
X95869000Y-100642690D01*
X95772327Y-100409301D01*
X95593698Y-100230673D01*
X95360309Y-100134000D01*
X95267750Y-100134000D01*
X95109000Y-100292750D01*
X94859000Y-100292750D01*
X94700250Y-100134000D01*
X94607691Y-100134000D01*
X94374302Y-100230673D01*
X94233064Y-100371910D01*
X94198090Y-100317559D01*
X93985890Y-100172569D01*
X93734000Y-100121560D01*
X93251690Y-100121560D01*
X93329000Y-100044250D01*
X93329000Y-99903440D01*
X93734000Y-99903440D01*
X93969317Y-99859162D01*
X94185441Y-99720090D01*
X94231969Y-99651994D01*
X94374302Y-99794327D01*
X94607691Y-99891000D01*
X94700250Y-99891000D01*
X94859000Y-99732250D01*
X94859000Y-98933000D01*
X95109000Y-98933000D01*
X95109000Y-99732250D01*
X95267750Y-99891000D01*
X95360309Y-99891000D01*
X95593698Y-99794327D01*
X95772327Y-99615699D01*
X95869000Y-99382310D01*
X95869000Y-99091750D01*
X95710250Y-98933000D01*
X95109000Y-98933000D01*
X94859000Y-98933000D01*
X94837000Y-98933000D01*
X94837000Y-98679000D01*
X94859000Y-98679000D01*
X94859000Y-98659000D01*
X95109000Y-98659000D01*
X95109000Y-98679000D01*
X95710250Y-98679000D01*
X95869000Y-98520250D01*
X95869000Y-98229690D01*
X95861079Y-98210567D01*
X95980431Y-98035890D01*
X96031440Y-97784000D01*
X96031440Y-97034000D01*
X95987162Y-96798683D01*
X95848090Y-96582559D01*
X95635890Y-96437569D01*
X95384000Y-96386560D01*
X94979348Y-96386560D01*
X94863894Y-96271106D01*
X94633165Y-96116937D01*
X94361000Y-96062800D01*
X91712000Y-96062800D01*
X91484990Y-96107955D01*
X91442440Y-96116419D01*
X91442440Y-96116190D01*
X92118130Y-95440500D01*
X96202500Y-95440500D01*
X96202500Y-102179137D01*
G36*
X84378995Y-102328182D02*
X84465000Y-102414337D01*
X84465000Y-102817550D01*
X84379823Y-102902578D01*
X84277200Y-103149722D01*
X84277200Y-102081820D01*
X84378995Y-102328182D01*
X84378995Y-102328182D01*
G37*
X84378995Y-102328182D02*
X84465000Y-102414337D01*
X84465000Y-102817550D01*
X84379823Y-102902578D01*
X84277200Y-103149722D01*
X84277200Y-102081820D01*
X84378995Y-102328182D01*
G36*
X99874000Y-103124000D02*
X99765201Y-103124000D01*
X99776440Y-103068500D01*
X99776440Y-102568500D01*
X99732162Y-102333183D01*
X99593090Y-102117059D01*
X99380890Y-101972069D01*
X99129000Y-101921060D01*
X98229000Y-101921060D01*
X97993683Y-101965338D01*
X97921034Y-102012086D01*
X97731310Y-101933500D01*
X97440750Y-101933500D01*
X97282000Y-102092250D01*
X97282000Y-102693500D01*
X97302000Y-102693500D01*
X97302000Y-102943500D01*
X97282000Y-102943500D01*
X97282000Y-102965500D01*
X97028000Y-102965500D01*
X97028000Y-89027000D01*
X97017994Y-88977590D01*
X96989553Y-88935965D01*
X96947159Y-88908685D01*
X96901000Y-88900000D01*
X94658077Y-88900000D01*
X94691200Y-88733482D01*
X94691200Y-84878127D01*
X95069029Y-84625670D01*
X95393885Y-84139489D01*
X95507959Y-83566000D01*
X95393885Y-82992511D01*
X95069029Y-82506330D01*
X95055358Y-82497195D01*
X95078917Y-82492762D01*
X95295041Y-82353690D01*
X95440031Y-82141490D01*
X95491040Y-81889600D01*
X95491040Y-80162400D01*
X95446762Y-79927083D01*
X95307690Y-79710959D01*
X95095490Y-79565969D01*
X94843600Y-79514960D01*
X93116400Y-79514960D01*
X92881083Y-79559238D01*
X92664959Y-79698310D01*
X92519969Y-79910510D01*
X92500338Y-80007451D01*
X92328490Y-79819179D01*
X91799027Y-79571032D01*
X91567000Y-79691531D01*
X91567000Y-80899000D01*
X91587000Y-80899000D01*
X91587000Y-81153000D01*
X91567000Y-81153000D01*
X91567000Y-81173000D01*
X91313000Y-81173000D01*
X91313000Y-81153000D01*
X91293000Y-81153000D01*
X91293000Y-80899000D01*
X91313000Y-80899000D01*
X91313000Y-79691531D01*
X91080973Y-79571032D01*
X90551510Y-79819179D01*
X90169992Y-80237161D01*
X89989029Y-79966330D01*
X89502848Y-79641474D01*
X88929359Y-79527400D01*
X88870641Y-79527400D01*
X88297152Y-79641474D01*
X87810971Y-79966330D01*
X87630000Y-80237172D01*
X87449029Y-79966330D01*
X86962848Y-79641474D01*
X86389359Y-79527400D01*
X86330641Y-79527400D01*
X85757152Y-79641474D01*
X85270971Y-79966330D01*
X85090000Y-80237172D01*
X84909029Y-79966330D01*
X84422848Y-79641474D01*
X83849359Y-79527400D01*
X83790641Y-79527400D01*
X83217152Y-79641474D01*
X82730971Y-79966330D01*
X82406115Y-80452511D01*
X82292041Y-81026000D01*
X82406115Y-81599489D01*
X82730971Y-82085670D01*
X83045752Y-82296000D01*
X82730971Y-82506330D01*
X82406115Y-82992511D01*
X82292041Y-83566000D01*
X82406115Y-84139489D01*
X82730971Y-84625670D01*
X83108800Y-84878127D01*
X83108800Y-88733482D01*
X83141922Y-88900000D01*
X77926000Y-88900000D01*
X77926000Y-78232000D01*
X99874000Y-78232000D01*
X99874000Y-103124000D01*
X99874000Y-103124000D01*
G37*
X99874000Y-103124000D02*
X99765201Y-103124000D01*
X99776440Y-103068500D01*
X99776440Y-102568500D01*
X99732162Y-102333183D01*
X99593090Y-102117059D01*
X99380890Y-101972069D01*
X99129000Y-101921060D01*
X98229000Y-101921060D01*
X97993683Y-101965338D01*
X97921034Y-102012086D01*
X97731310Y-101933500D01*
X97440750Y-101933500D01*
X97282000Y-102092250D01*
X97282000Y-102693500D01*
X97302000Y-102693500D01*
X97302000Y-102943500D01*
X97282000Y-102943500D01*
X97282000Y-102965500D01*
X97028000Y-102965500D01*
X97028000Y-89027000D01*
X97017994Y-88977590D01*
X96989553Y-88935965D01*
X96947159Y-88908685D01*
X96901000Y-88900000D01*
X94658077Y-88900000D01*
X94691200Y-88733482D01*
X94691200Y-84878127D01*
X95069029Y-84625670D01*
X95393885Y-84139489D01*
X95507959Y-83566000D01*
X95393885Y-82992511D01*
X95069029Y-82506330D01*
X95055358Y-82497195D01*
X95078917Y-82492762D01*
X95295041Y-82353690D01*
X95440031Y-82141490D01*
X95491040Y-81889600D01*
X95491040Y-80162400D01*
X95446762Y-79927083D01*
X95307690Y-79710959D01*
X95095490Y-79565969D01*
X94843600Y-79514960D01*
X93116400Y-79514960D01*
X92881083Y-79559238D01*
X92664959Y-79698310D01*
X92519969Y-79910510D01*
X92500338Y-80007451D01*
X92328490Y-79819179D01*
X91799027Y-79571032D01*
X91567000Y-79691531D01*
X91567000Y-80899000D01*
X91587000Y-80899000D01*
X91587000Y-81153000D01*
X91567000Y-81153000D01*
X91567000Y-81173000D01*
X91313000Y-81173000D01*
X91313000Y-81153000D01*
X91293000Y-81153000D01*
X91293000Y-80899000D01*
X91313000Y-80899000D01*
X91313000Y-79691531D01*
X91080973Y-79571032D01*
X90551510Y-79819179D01*
X90169992Y-80237161D01*
X89989029Y-79966330D01*
X89502848Y-79641474D01*
X88929359Y-79527400D01*
X88870641Y-79527400D01*
X88297152Y-79641474D01*
X87810971Y-79966330D01*
X87630000Y-80237172D01*
X87449029Y-79966330D01*
X86962848Y-79641474D01*
X86389359Y-79527400D01*
X86330641Y-79527400D01*
X85757152Y-79641474D01*
X85270971Y-79966330D01*
X85090000Y-80237172D01*
X84909029Y-79966330D01*
X84422848Y-79641474D01*
X83849359Y-79527400D01*
X83790641Y-79527400D01*
X83217152Y-79641474D01*
X82730971Y-79966330D01*
X82406115Y-80452511D01*
X82292041Y-81026000D01*
X82406115Y-81599489D01*
X82730971Y-82085670D01*
X83045752Y-82296000D01*
X82730971Y-82506330D01*
X82406115Y-82992511D01*
X82292041Y-83566000D01*
X82406115Y-84139489D01*
X82730971Y-84625670D01*
X83108800Y-84878127D01*
X83108800Y-88733482D01*
X83141922Y-88900000D01*
X77926000Y-88900000D01*
X77926000Y-78232000D01*
X99874000Y-78232000D01*
X99874000Y-103124000D01*
M02*
