G04 #@! TF.FileFunction,Legend,Top*
%FSLAX46Y46*%
G04 Gerber Fmt 4.6, Leading zero omitted, Abs format (unit mm)*
G04 Created by KiCad (PCBNEW 4.0.5) date 01/03/18 17:15:43*
%MOMM*%
%LPD*%
G01*
G04 APERTURE LIST*
%ADD10C,0.100000*%
%ADD11C,0.125000*%
%ADD12C,0.120000*%
%ADD13C,0.150000*%
G04 APERTURE END LIST*
D10*
D11*
X86495238Y-122781190D02*
X86495238Y-122281190D01*
X86685714Y-122281190D01*
X86733333Y-122305000D01*
X86757142Y-122328810D01*
X86780952Y-122376429D01*
X86780952Y-122447857D01*
X86757142Y-122495476D01*
X86733333Y-122519286D01*
X86685714Y-122543095D01*
X86495238Y-122543095D01*
X87280952Y-122781190D02*
X87114285Y-122543095D01*
X86995238Y-122781190D02*
X86995238Y-122281190D01*
X87185714Y-122281190D01*
X87233333Y-122305000D01*
X87257142Y-122328810D01*
X87280952Y-122376429D01*
X87280952Y-122447857D01*
X87257142Y-122495476D01*
X87233333Y-122519286D01*
X87185714Y-122543095D01*
X86995238Y-122543095D01*
X87590476Y-122281190D02*
X87685714Y-122281190D01*
X87733333Y-122305000D01*
X87780952Y-122352619D01*
X87804761Y-122447857D01*
X87804761Y-122614524D01*
X87780952Y-122709762D01*
X87733333Y-122757381D01*
X87685714Y-122781190D01*
X87590476Y-122781190D01*
X87542857Y-122757381D01*
X87495238Y-122709762D01*
X87471428Y-122614524D01*
X87471428Y-122447857D01*
X87495238Y-122352619D01*
X87542857Y-122305000D01*
X87590476Y-122281190D01*
X88280952Y-122305000D02*
X88233333Y-122281190D01*
X88161905Y-122281190D01*
X88090476Y-122305000D01*
X88042857Y-122352619D01*
X88019048Y-122400238D01*
X87995238Y-122495476D01*
X87995238Y-122566905D01*
X88019048Y-122662143D01*
X88042857Y-122709762D01*
X88090476Y-122757381D01*
X88161905Y-122781190D01*
X88209524Y-122781190D01*
X88280952Y-122757381D01*
X88304762Y-122733571D01*
X88304762Y-122566905D01*
X88209524Y-122566905D01*
X88804762Y-122781190D02*
X88638095Y-122543095D01*
X88519048Y-122781190D02*
X88519048Y-122281190D01*
X88709524Y-122281190D01*
X88757143Y-122305000D01*
X88780952Y-122328810D01*
X88804762Y-122376429D01*
X88804762Y-122447857D01*
X88780952Y-122495476D01*
X88757143Y-122519286D01*
X88709524Y-122543095D01*
X88519048Y-122543095D01*
X88995238Y-122638333D02*
X89233333Y-122638333D01*
X88947619Y-122781190D02*
X89114286Y-122281190D01*
X89280952Y-122781190D01*
X89447619Y-122781190D02*
X89447619Y-122281190D01*
X89614285Y-122638333D01*
X89780952Y-122281190D01*
X89780952Y-122781190D01*
X90019048Y-122781190D02*
X90019048Y-122281190D01*
X90185714Y-122638333D01*
X90352381Y-122281190D01*
X90352381Y-122781190D01*
X90590477Y-122519286D02*
X90757143Y-122519286D01*
X90828572Y-122781190D02*
X90590477Y-122781190D01*
X90590477Y-122281190D01*
X90828572Y-122281190D01*
X91328572Y-122781190D02*
X91161905Y-122543095D01*
X91042858Y-122781190D02*
X91042858Y-122281190D01*
X91233334Y-122281190D01*
X91280953Y-122305000D01*
X91304762Y-122328810D01*
X91328572Y-122376429D01*
X91328572Y-122447857D01*
X91304762Y-122495476D01*
X91280953Y-122519286D01*
X91233334Y-122543095D01*
X91042858Y-122543095D01*
X87780953Y-77061190D02*
X87780953Y-76561190D01*
X87971429Y-76561190D01*
X88019048Y-76585000D01*
X88042857Y-76608810D01*
X88066667Y-76656429D01*
X88066667Y-76727857D01*
X88042857Y-76775476D01*
X88019048Y-76799286D01*
X87971429Y-76823095D01*
X87780953Y-76823095D01*
X88566667Y-77061190D02*
X88400000Y-76823095D01*
X88280953Y-77061190D02*
X88280953Y-76561190D01*
X88471429Y-76561190D01*
X88519048Y-76585000D01*
X88542857Y-76608810D01*
X88566667Y-76656429D01*
X88566667Y-76727857D01*
X88542857Y-76775476D01*
X88519048Y-76799286D01*
X88471429Y-76823095D01*
X88280953Y-76823095D01*
X88876191Y-76561190D02*
X88971429Y-76561190D01*
X89019048Y-76585000D01*
X89066667Y-76632619D01*
X89090476Y-76727857D01*
X89090476Y-76894524D01*
X89066667Y-76989762D01*
X89019048Y-77037381D01*
X88971429Y-77061190D01*
X88876191Y-77061190D01*
X88828572Y-77037381D01*
X88780953Y-76989762D01*
X88757143Y-76894524D01*
X88757143Y-76727857D01*
X88780953Y-76632619D01*
X88828572Y-76585000D01*
X88876191Y-76561190D01*
X89471429Y-76799286D02*
X89542858Y-76823095D01*
X89566667Y-76846905D01*
X89590477Y-76894524D01*
X89590477Y-76965952D01*
X89566667Y-77013571D01*
X89542858Y-77037381D01*
X89495239Y-77061190D01*
X89304763Y-77061190D01*
X89304763Y-76561190D01*
X89471429Y-76561190D01*
X89519048Y-76585000D01*
X89542858Y-76608810D01*
X89566667Y-76656429D01*
X89566667Y-76704048D01*
X89542858Y-76751667D01*
X89519048Y-76775476D01*
X89471429Y-76799286D01*
X89304763Y-76799286D01*
X89804763Y-76799286D02*
X89971429Y-76799286D01*
X90042858Y-77061190D02*
X89804763Y-77061190D01*
X89804763Y-76561190D01*
X90042858Y-76561190D01*
X78686790Y-96328562D02*
X78186790Y-96328562D01*
X78186790Y-96138086D01*
X78210600Y-96090467D01*
X78234410Y-96066658D01*
X78282029Y-96042848D01*
X78353457Y-96042848D01*
X78401076Y-96066658D01*
X78424886Y-96090467D01*
X78448695Y-96138086D01*
X78448695Y-96328562D01*
X78186790Y-95733324D02*
X78186790Y-95638086D01*
X78210600Y-95590467D01*
X78258219Y-95542848D01*
X78353457Y-95519039D01*
X78520124Y-95519039D01*
X78615362Y-95542848D01*
X78662981Y-95590467D01*
X78686790Y-95638086D01*
X78686790Y-95733324D01*
X78662981Y-95780943D01*
X78615362Y-95828562D01*
X78520124Y-95852372D01*
X78353457Y-95852372D01*
X78258219Y-95828562D01*
X78210600Y-95780943D01*
X78186790Y-95733324D01*
X78186790Y-95352371D02*
X78686790Y-95233324D01*
X78329648Y-95138086D01*
X78686790Y-95042848D01*
X78186790Y-94923800D01*
X78424886Y-94733323D02*
X78424886Y-94566657D01*
X78686790Y-94495228D02*
X78686790Y-94733323D01*
X78186790Y-94733323D01*
X78186790Y-94495228D01*
X78686790Y-93995228D02*
X78448695Y-94161895D01*
X78686790Y-94280942D02*
X78186790Y-94280942D01*
X78186790Y-94090466D01*
X78210600Y-94042847D01*
X78234410Y-94019038D01*
X78282029Y-93995228D01*
X78353457Y-93995228D01*
X78401076Y-94019038D01*
X78424886Y-94042847D01*
X78448695Y-94090466D01*
X78448695Y-94280942D01*
X97598390Y-95486552D02*
X97098390Y-95486552D01*
X97098390Y-95367505D01*
X97122200Y-95296076D01*
X97169819Y-95248457D01*
X97217438Y-95224648D01*
X97312676Y-95200838D01*
X97384105Y-95200838D01*
X97479343Y-95224648D01*
X97526962Y-95248457D01*
X97574581Y-95296076D01*
X97598390Y-95367505D01*
X97598390Y-95486552D01*
X97598390Y-94724648D02*
X97598390Y-95010362D01*
X97598390Y-94867505D02*
X97098390Y-94867505D01*
X97169819Y-94915124D01*
X97217438Y-94962743D01*
X97241248Y-95010362D01*
X97336486Y-94510362D02*
X97336486Y-94129410D01*
X97479343Y-94129410D02*
X97479343Y-94510362D01*
X97598390Y-93891314D02*
X97098390Y-93891314D01*
X97336486Y-93891314D02*
X97336486Y-93605600D01*
X97598390Y-93605600D02*
X97098390Y-93605600D01*
X97336486Y-93367504D02*
X97336486Y-93200838D01*
X97598390Y-93129409D02*
X97598390Y-93367504D01*
X97098390Y-93367504D01*
X97098390Y-93129409D01*
X97455533Y-92938933D02*
X97455533Y-92700838D01*
X97598390Y-92986552D02*
X97098390Y-92819885D01*
X97598390Y-92653219D01*
X97598390Y-92200838D02*
X97360295Y-92367505D01*
X97598390Y-92486552D02*
X97098390Y-92486552D01*
X97098390Y-92296076D01*
X97122200Y-92248457D01*
X97146010Y-92224648D01*
X97193629Y-92200838D01*
X97265057Y-92200838D01*
X97312676Y-92224648D01*
X97336486Y-92248457D01*
X97360295Y-92296076D01*
X97360295Y-92486552D01*
X97098390Y-92057981D02*
X97098390Y-91772267D01*
X97598390Y-91915124D02*
X97098390Y-91915124D01*
X97336486Y-91438934D02*
X97360295Y-91367505D01*
X97384105Y-91343696D01*
X97431724Y-91319886D01*
X97503152Y-91319886D01*
X97550771Y-91343696D01*
X97574581Y-91367505D01*
X97598390Y-91415124D01*
X97598390Y-91605600D01*
X97098390Y-91605600D01*
X97098390Y-91438934D01*
X97122200Y-91391315D01*
X97146010Y-91367505D01*
X97193629Y-91343696D01*
X97241248Y-91343696D01*
X97288867Y-91367505D01*
X97312676Y-91391315D01*
X97336486Y-91438934D01*
X97336486Y-91605600D01*
X97336486Y-91105600D02*
X97336486Y-90938934D01*
X97598390Y-90867505D02*
X97598390Y-91105600D01*
X97098390Y-91105600D01*
X97098390Y-90867505D01*
X97455533Y-90677029D02*
X97455533Y-90438934D01*
X97598390Y-90724648D02*
X97098390Y-90557981D01*
X97598390Y-90391315D01*
X97098390Y-90296077D02*
X97098390Y-90010363D01*
X97598390Y-90153220D02*
X97098390Y-90153220D01*
X98473390Y-95486552D02*
X97973390Y-95486552D01*
X97973390Y-95367505D01*
X97997200Y-95296076D01*
X98044819Y-95248457D01*
X98092438Y-95224648D01*
X98187676Y-95200838D01*
X98259105Y-95200838D01*
X98354343Y-95224648D01*
X98401962Y-95248457D01*
X98449581Y-95296076D01*
X98473390Y-95367505D01*
X98473390Y-95486552D01*
X98021010Y-95010362D02*
X97997200Y-94986552D01*
X97973390Y-94938933D01*
X97973390Y-94819886D01*
X97997200Y-94772267D01*
X98021010Y-94748457D01*
X98068629Y-94724648D01*
X98116248Y-94724648D01*
X98187676Y-94748457D01*
X98473390Y-95034171D01*
X98473390Y-94724648D01*
X98211486Y-94510362D02*
X98211486Y-94129410D01*
X98354343Y-94129410D02*
X98354343Y-94510362D01*
X98211486Y-93724648D02*
X98235295Y-93653219D01*
X98259105Y-93629410D01*
X98306724Y-93605600D01*
X98378152Y-93605600D01*
X98425771Y-93629410D01*
X98449581Y-93653219D01*
X98473390Y-93700838D01*
X98473390Y-93891314D01*
X97973390Y-93891314D01*
X97973390Y-93724648D01*
X97997200Y-93677029D01*
X98021010Y-93653219D01*
X98068629Y-93629410D01*
X98116248Y-93629410D01*
X98163867Y-93653219D01*
X98187676Y-93677029D01*
X98211486Y-93724648D01*
X98211486Y-93891314D01*
X97973390Y-93296076D02*
X97973390Y-93200838D01*
X97997200Y-93153219D01*
X98044819Y-93105600D01*
X98140057Y-93081791D01*
X98306724Y-93081791D01*
X98401962Y-93105600D01*
X98449581Y-93153219D01*
X98473390Y-93200838D01*
X98473390Y-93296076D01*
X98449581Y-93343695D01*
X98401962Y-93391314D01*
X98306724Y-93415124D01*
X98140057Y-93415124D01*
X98044819Y-93391314D01*
X97997200Y-93343695D01*
X97973390Y-93296076D01*
X97973390Y-92772266D02*
X97973390Y-92677028D01*
X97997200Y-92629409D01*
X98044819Y-92581790D01*
X98140057Y-92557981D01*
X98306724Y-92557981D01*
X98401962Y-92581790D01*
X98449581Y-92629409D01*
X98473390Y-92677028D01*
X98473390Y-92772266D01*
X98449581Y-92819885D01*
X98401962Y-92867504D01*
X98306724Y-92891314D01*
X98140057Y-92891314D01*
X98044819Y-92867504D01*
X97997200Y-92819885D01*
X97973390Y-92772266D01*
X97973390Y-92415123D02*
X97973390Y-92129409D01*
X98473390Y-92272266D02*
X97973390Y-92272266D01*
X98473390Y-91724647D02*
X98473390Y-91962742D01*
X97973390Y-91962742D01*
X97973390Y-91462742D02*
X97973390Y-91367504D01*
X97997200Y-91319885D01*
X98044819Y-91272266D01*
X98140057Y-91248457D01*
X98306724Y-91248457D01*
X98401962Y-91272266D01*
X98449581Y-91319885D01*
X98473390Y-91367504D01*
X98473390Y-91462742D01*
X98449581Y-91510361D01*
X98401962Y-91557980D01*
X98306724Y-91581790D01*
X98140057Y-91581790D01*
X98044819Y-91557980D01*
X97997200Y-91510361D01*
X97973390Y-91462742D01*
X98330533Y-91057980D02*
X98330533Y-90819885D01*
X98473390Y-91105599D02*
X97973390Y-90938932D01*
X98473390Y-90772266D01*
X98473390Y-90605599D02*
X97973390Y-90605599D01*
X97973390Y-90486552D01*
X97997200Y-90415123D01*
X98044819Y-90367504D01*
X98092438Y-90343695D01*
X98187676Y-90319885D01*
X98259105Y-90319885D01*
X98354343Y-90343695D01*
X98401962Y-90367504D01*
X98449581Y-90415123D01*
X98473390Y-90486552D01*
X98473390Y-90605599D01*
X98211486Y-90105599D02*
X98211486Y-89938933D01*
X98473390Y-89867504D02*
X98473390Y-90105599D01*
X97973390Y-90105599D01*
X97973390Y-89867504D01*
X98473390Y-89367504D02*
X98235295Y-89534171D01*
X98473390Y-89653218D02*
X97973390Y-89653218D01*
X97973390Y-89462742D01*
X97997200Y-89415123D01*
X98021010Y-89391314D01*
X98068629Y-89367504D01*
X98140057Y-89367504D01*
X98187676Y-89391314D01*
X98211486Y-89415123D01*
X98235295Y-89462742D01*
X98235295Y-89653218D01*
X99348390Y-95486552D02*
X98848390Y-95486552D01*
X98848390Y-95367505D01*
X98872200Y-95296076D01*
X98919819Y-95248457D01*
X98967438Y-95224648D01*
X99062676Y-95200838D01*
X99134105Y-95200838D01*
X99229343Y-95224648D01*
X99276962Y-95248457D01*
X99324581Y-95296076D01*
X99348390Y-95367505D01*
X99348390Y-95486552D01*
X98848390Y-95034171D02*
X98848390Y-94724648D01*
X99038867Y-94891314D01*
X99038867Y-94819886D01*
X99062676Y-94772267D01*
X99086486Y-94748457D01*
X99134105Y-94724648D01*
X99253152Y-94724648D01*
X99300771Y-94748457D01*
X99324581Y-94772267D01*
X99348390Y-94819886D01*
X99348390Y-94962743D01*
X99324581Y-95010362D01*
X99300771Y-95034171D01*
X99086486Y-94510362D02*
X99086486Y-94129410D01*
X99229343Y-94129410D02*
X99229343Y-94510362D01*
X99348390Y-93605600D02*
X99110295Y-93772267D01*
X99348390Y-93891314D02*
X98848390Y-93891314D01*
X98848390Y-93700838D01*
X98872200Y-93653219D01*
X98896010Y-93629410D01*
X98943629Y-93605600D01*
X99015057Y-93605600D01*
X99062676Y-93629410D01*
X99086486Y-93653219D01*
X99110295Y-93700838D01*
X99110295Y-93891314D01*
X99086486Y-93391314D02*
X99086486Y-93224648D01*
X99348390Y-93153219D02*
X99348390Y-93391314D01*
X98848390Y-93391314D01*
X98848390Y-93153219D01*
X98872200Y-92677029D02*
X98848390Y-92724648D01*
X98848390Y-92796076D01*
X98872200Y-92867505D01*
X98919819Y-92915124D01*
X98967438Y-92938933D01*
X99062676Y-92962743D01*
X99134105Y-92962743D01*
X99229343Y-92938933D01*
X99276962Y-92915124D01*
X99324581Y-92867505D01*
X99348390Y-92796076D01*
X99348390Y-92748457D01*
X99324581Y-92677029D01*
X99300771Y-92653219D01*
X99134105Y-92653219D01*
X99134105Y-92748457D01*
X98848390Y-92438933D02*
X99253152Y-92438933D01*
X99300771Y-92415124D01*
X99324581Y-92391314D01*
X99348390Y-92343695D01*
X99348390Y-92248457D01*
X99324581Y-92200838D01*
X99300771Y-92177029D01*
X99253152Y-92153219D01*
X98848390Y-92153219D01*
X99348390Y-91677028D02*
X99348390Y-91915123D01*
X98848390Y-91915123D01*
X99205533Y-91534171D02*
X99205533Y-91296076D01*
X99348390Y-91581790D02*
X98848390Y-91415123D01*
X99348390Y-91248457D01*
X98848390Y-91153219D02*
X98848390Y-90867505D01*
X99348390Y-91010362D02*
X98848390Y-91010362D01*
X98848390Y-90605600D02*
X98848390Y-90510362D01*
X98872200Y-90462743D01*
X98919819Y-90415124D01*
X99015057Y-90391315D01*
X99181724Y-90391315D01*
X99276962Y-90415124D01*
X99324581Y-90462743D01*
X99348390Y-90510362D01*
X99348390Y-90605600D01*
X99324581Y-90653219D01*
X99276962Y-90700838D01*
X99181724Y-90724648D01*
X99015057Y-90724648D01*
X98919819Y-90700838D01*
X98872200Y-90653219D01*
X98848390Y-90605600D01*
X99348390Y-89891314D02*
X99110295Y-90057981D01*
X99348390Y-90177028D02*
X98848390Y-90177028D01*
X98848390Y-89986552D01*
X98872200Y-89938933D01*
X98896010Y-89915124D01*
X98943629Y-89891314D01*
X99015057Y-89891314D01*
X99062676Y-89915124D01*
X99086486Y-89938933D01*
X99110295Y-89986552D01*
X99110295Y-90177028D01*
X98848390Y-89200838D02*
X98848390Y-89105600D01*
X98872200Y-89057981D01*
X98919819Y-89010362D01*
X99015057Y-88986553D01*
X99181724Y-88986553D01*
X99276962Y-89010362D01*
X99324581Y-89057981D01*
X99348390Y-89105600D01*
X99348390Y-89200838D01*
X99324581Y-89248457D01*
X99276962Y-89296076D01*
X99181724Y-89319886D01*
X99015057Y-89319886D01*
X98919819Y-89296076D01*
X98872200Y-89248457D01*
X98848390Y-89200838D01*
X99348390Y-88772266D02*
X98848390Y-88772266D01*
X99348390Y-88486552D01*
X98848390Y-88486552D01*
D12*
X83601000Y-108681000D02*
X83601000Y-107981000D01*
X84801000Y-107981000D02*
X84801000Y-108681000D01*
X84998000Y-108681000D02*
X84998000Y-107981000D01*
X86198000Y-107981000D02*
X86198000Y-108681000D01*
X87665000Y-110078000D02*
X87665000Y-109378000D01*
X88865000Y-109378000D02*
X88865000Y-110078000D01*
X86268000Y-110078000D02*
X86268000Y-109378000D01*
X87468000Y-109378000D02*
X87468000Y-110078000D01*
X94584000Y-98009000D02*
X93884000Y-98009000D01*
X93884000Y-96809000D02*
X94584000Y-96809000D01*
X94138000Y-103921000D02*
X94838000Y-103921000D01*
X94838000Y-105121000D02*
X94138000Y-105121000D01*
X94138000Y-106969000D02*
X94838000Y-106969000D01*
X94838000Y-108169000D02*
X94138000Y-108169000D01*
X92448000Y-109444000D02*
X91448000Y-109444000D01*
X91448000Y-109444000D02*
X91448000Y-111544000D01*
X92448000Y-109444000D02*
X92448000Y-111544000D01*
X95242000Y-109444000D02*
X94242000Y-109444000D01*
X94242000Y-109444000D02*
X94242000Y-111544000D01*
X95242000Y-109444000D02*
X95242000Y-111544000D01*
X98036000Y-109444000D02*
X97036000Y-109444000D01*
X97036000Y-109444000D02*
X97036000Y-111544000D01*
X98036000Y-109444000D02*
X98036000Y-111544000D01*
X81589500Y-93886500D02*
X80589500Y-93886500D01*
X80589500Y-93886500D02*
X80589500Y-95986500D01*
X81589500Y-93886500D02*
X81589500Y-95986500D01*
X80019500Y-99806000D02*
X80019500Y-97806000D01*
X82159500Y-97806000D02*
X82159500Y-99806000D01*
X96485000Y-106925000D02*
X95285000Y-106925000D01*
X95285000Y-105165000D02*
X96485000Y-105165000D01*
D10*
X81356000Y-109841000D02*
X80856000Y-109841000D01*
X83106000Y-107441000D02*
X83106000Y-107741000D01*
X81356000Y-101741000D02*
X80906000Y-101741000D01*
X83106000Y-103891000D02*
X83106000Y-104191000D01*
X78156000Y-101741000D02*
X77356000Y-101741000D01*
X77356000Y-101741000D02*
X77356000Y-102241000D01*
X77356000Y-109391000D02*
X77356000Y-109841000D01*
X77356000Y-109841000D02*
X78206000Y-109841000D01*
D12*
X99310000Y-121894000D02*
X78490000Y-121894000D01*
X78490000Y-121894000D02*
X78490000Y-112294000D01*
X78490000Y-112294000D02*
X99310000Y-112294000D01*
X99310000Y-112294000D02*
X99310000Y-121894000D01*
X99310000Y-87096000D02*
X78490000Y-87096000D01*
X78490000Y-87096000D02*
X78490000Y-77496000D01*
X78490000Y-77496000D02*
X99310000Y-77496000D01*
X99310000Y-77496000D02*
X99310000Y-87096000D01*
X91231000Y-110002000D02*
X91231000Y-111002000D01*
X89871000Y-111002000D02*
X89871000Y-110002000D01*
X94025000Y-109990000D02*
X94025000Y-110990000D01*
X92665000Y-110990000D02*
X92665000Y-109990000D01*
X96819000Y-109990000D02*
X96819000Y-110990000D01*
X95459000Y-110990000D02*
X95459000Y-109990000D01*
X81769500Y-91956000D02*
X81769500Y-92956000D01*
X80409500Y-92956000D02*
X80409500Y-91956000D01*
X84701000Y-98724000D02*
X83701000Y-98724000D01*
X83701000Y-97364000D02*
X84701000Y-97364000D01*
X85590000Y-101010000D02*
X84590000Y-101010000D01*
X84590000Y-99650000D02*
X85590000Y-99650000D01*
X85590000Y-102534000D02*
X84590000Y-102534000D01*
X84590000Y-101174000D02*
X85590000Y-101174000D01*
X85590000Y-104058000D02*
X84590000Y-104058000D01*
X84590000Y-102698000D02*
X85590000Y-102698000D01*
X91194000Y-99650000D02*
X92194000Y-99650000D01*
X92194000Y-101010000D02*
X91194000Y-101010000D01*
X93734000Y-100539000D02*
X94734000Y-100539000D01*
X94734000Y-101899000D02*
X93734000Y-101899000D01*
X91194000Y-101428000D02*
X92194000Y-101428000D01*
X92194000Y-102788000D02*
X91194000Y-102788000D01*
X93734000Y-102317000D02*
X94734000Y-102317000D01*
X94734000Y-103677000D02*
X93734000Y-103677000D01*
X93734000Y-98126000D02*
X94734000Y-98126000D01*
X94734000Y-99486000D02*
X93734000Y-99486000D01*
X93554000Y-92956000D02*
X93554000Y-91956000D01*
X94914000Y-91956000D02*
X94914000Y-92956000D01*
X92030000Y-92956000D02*
X92030000Y-91956000D01*
X93390000Y-91956000D02*
X93390000Y-92956000D01*
X90506000Y-92956000D02*
X90506000Y-91956000D01*
X91866000Y-91956000D02*
X91866000Y-92956000D01*
X88982000Y-92956000D02*
X88982000Y-91956000D01*
X90342000Y-91956000D02*
X90342000Y-92956000D01*
X87458000Y-92956000D02*
X87458000Y-91956000D01*
X88818000Y-91956000D02*
X88818000Y-92956000D01*
X85934000Y-92956000D02*
X85934000Y-91956000D01*
X87294000Y-91956000D02*
X87294000Y-92956000D01*
X84410000Y-92956000D02*
X84410000Y-91956000D01*
X85770000Y-91956000D02*
X85770000Y-92956000D01*
X82886000Y-92956000D02*
X82886000Y-91956000D01*
X84246000Y-91956000D02*
X84246000Y-92956000D01*
X96475000Y-104068500D02*
X96475000Y-103068500D01*
X97835000Y-103068500D02*
X97835000Y-104068500D01*
X99359000Y-103068500D02*
X99359000Y-104068500D01*
X97999000Y-104068500D02*
X97999000Y-103068500D01*
D10*
X86800000Y-107637000D02*
X86800000Y-107137000D01*
X86800000Y-107637000D02*
X87300000Y-107637000D01*
X86800000Y-103937000D02*
X86800000Y-104037000D01*
X86800000Y-104037000D02*
X86600000Y-104037000D01*
X87300000Y-103437000D02*
X87100000Y-103437000D01*
X87100000Y-103437000D02*
X86800000Y-103737000D01*
X86800000Y-103737000D02*
X86800000Y-103937000D01*
X91000000Y-103937000D02*
X91000000Y-103437000D01*
X91000000Y-103437000D02*
X90500000Y-103437000D01*
X91000000Y-107137000D02*
X91000000Y-107637000D01*
X91000000Y-107637000D02*
X90500000Y-107637000D01*
X92113100Y-106895900D02*
X92113100Y-106718100D01*
X92290900Y-106895900D02*
X92113100Y-106895900D01*
X93814900Y-105194100D02*
X93637100Y-105194100D01*
X93814900Y-105371900D02*
X93814900Y-105194100D01*
X93637100Y-106895900D02*
X93814900Y-106895900D01*
X93814900Y-106895900D02*
X93814900Y-106718100D01*
X92405200Y-105232200D02*
X91922600Y-105232200D01*
D13*
X91122500Y-99085400D02*
X91452700Y-99085400D01*
X91452700Y-99085400D02*
X91452700Y-98780600D01*
X86360000Y-99085400D02*
X86664800Y-99085400D01*
X86360000Y-98755200D02*
X86360000Y-99085400D01*
X86690200Y-95986600D02*
X86360000Y-95986600D01*
X86360000Y-95986600D02*
X86360000Y-96291400D01*
X91490800Y-96367600D02*
X91490800Y-95859600D01*
D10*
X85128100Y-89903300D02*
X85128100Y-90081100D01*
X85128100Y-90081100D02*
X85280500Y-90081100D01*
X85128100Y-88226900D02*
X85128100Y-88379300D01*
X85305900Y-88226900D02*
X85128100Y-88226900D01*
X86588600Y-88392000D02*
X86588600Y-88214200D01*
X86588600Y-88214200D02*
X86436200Y-88214200D01*
X86283800Y-90093800D02*
X86639400Y-90093800D01*
X91224100Y-89903300D02*
X91224100Y-90081100D01*
X91224100Y-90081100D02*
X91376500Y-90081100D01*
X91224100Y-88226900D02*
X91224100Y-88379300D01*
X91401900Y-88226900D02*
X91224100Y-88226900D01*
X92684600Y-88392000D02*
X92684600Y-88214200D01*
X92684600Y-88214200D02*
X92532200Y-88214200D01*
X92379800Y-90093800D02*
X92735400Y-90093800D01*
X85686900Y-104787700D02*
X85686900Y-104609900D01*
X85686900Y-104609900D02*
X85534500Y-104609900D01*
X85686900Y-106464100D02*
X85686900Y-106311700D01*
X85509100Y-106464100D02*
X85686900Y-106464100D01*
X84226400Y-106299000D02*
X84226400Y-106476800D01*
X84226400Y-106476800D02*
X84378800Y-106476800D01*
X84531200Y-104597200D02*
X84175600Y-104597200D01*
D11*
X83482667Y-110668571D02*
X83458857Y-110692381D01*
X83387429Y-110716190D01*
X83339810Y-110716190D01*
X83268381Y-110692381D01*
X83220762Y-110644762D01*
X83196953Y-110597143D01*
X83173143Y-110501905D01*
X83173143Y-110430476D01*
X83196953Y-110335238D01*
X83220762Y-110287619D01*
X83268381Y-110240000D01*
X83339810Y-110216190D01*
X83387429Y-110216190D01*
X83458857Y-110240000D01*
X83482667Y-110263810D01*
X83958857Y-110716190D02*
X83673143Y-110716190D01*
X83816000Y-110716190D02*
X83816000Y-110216190D01*
X83768381Y-110287619D01*
X83720762Y-110335238D01*
X83673143Y-110359048D01*
X85514667Y-110414571D02*
X85490857Y-110438381D01*
X85419429Y-110462190D01*
X85371810Y-110462190D01*
X85300381Y-110438381D01*
X85252762Y-110390762D01*
X85228953Y-110343143D01*
X85205143Y-110247905D01*
X85205143Y-110176476D01*
X85228953Y-110081238D01*
X85252762Y-110033619D01*
X85300381Y-109986000D01*
X85371810Y-109962190D01*
X85419429Y-109962190D01*
X85490857Y-109986000D01*
X85514667Y-110009810D01*
X85705143Y-110009810D02*
X85728953Y-109986000D01*
X85776572Y-109962190D01*
X85895619Y-109962190D01*
X85943238Y-109986000D01*
X85967048Y-110009810D01*
X85990857Y-110057429D01*
X85990857Y-110105048D01*
X85967048Y-110176476D01*
X85681334Y-110462190D01*
X85990857Y-110462190D01*
X88181667Y-111811571D02*
X88157857Y-111835381D01*
X88086429Y-111859190D01*
X88038810Y-111859190D01*
X87967381Y-111835381D01*
X87919762Y-111787762D01*
X87895953Y-111740143D01*
X87872143Y-111644905D01*
X87872143Y-111573476D01*
X87895953Y-111478238D01*
X87919762Y-111430619D01*
X87967381Y-111383000D01*
X88038810Y-111359190D01*
X88086429Y-111359190D01*
X88157857Y-111383000D01*
X88181667Y-111406810D01*
X88348334Y-111359190D02*
X88657857Y-111359190D01*
X88491191Y-111549667D01*
X88562619Y-111549667D01*
X88610238Y-111573476D01*
X88634048Y-111597286D01*
X88657857Y-111644905D01*
X88657857Y-111763952D01*
X88634048Y-111811571D01*
X88610238Y-111835381D01*
X88562619Y-111859190D01*
X88419762Y-111859190D01*
X88372143Y-111835381D01*
X88348334Y-111811571D01*
X85895667Y-111684571D02*
X85871857Y-111708381D01*
X85800429Y-111732190D01*
X85752810Y-111732190D01*
X85681381Y-111708381D01*
X85633762Y-111660762D01*
X85609953Y-111613143D01*
X85586143Y-111517905D01*
X85586143Y-111446476D01*
X85609953Y-111351238D01*
X85633762Y-111303619D01*
X85681381Y-111256000D01*
X85752810Y-111232190D01*
X85800429Y-111232190D01*
X85871857Y-111256000D01*
X85895667Y-111279810D01*
X86324238Y-111398857D02*
X86324238Y-111732190D01*
X86205191Y-111208381D02*
X86086143Y-111565524D01*
X86395667Y-111565524D01*
X96182667Y-97587571D02*
X96158857Y-97611381D01*
X96087429Y-97635190D01*
X96039810Y-97635190D01*
X95968381Y-97611381D01*
X95920762Y-97563762D01*
X95896953Y-97516143D01*
X95873143Y-97420905D01*
X95873143Y-97349476D01*
X95896953Y-97254238D01*
X95920762Y-97206619D01*
X95968381Y-97159000D01*
X96039810Y-97135190D01*
X96087429Y-97135190D01*
X96158857Y-97159000D01*
X96182667Y-97182810D01*
X96635048Y-97135190D02*
X96396953Y-97135190D01*
X96373143Y-97373286D01*
X96396953Y-97349476D01*
X96444572Y-97325667D01*
X96563619Y-97325667D01*
X96611238Y-97349476D01*
X96635048Y-97373286D01*
X96658857Y-97420905D01*
X96658857Y-97539952D01*
X96635048Y-97587571D01*
X96611238Y-97611381D01*
X96563619Y-97635190D01*
X96444572Y-97635190D01*
X96396953Y-97611381D01*
X96373143Y-97587571D01*
X92499667Y-104445571D02*
X92475857Y-104469381D01*
X92404429Y-104493190D01*
X92356810Y-104493190D01*
X92285381Y-104469381D01*
X92237762Y-104421762D01*
X92213953Y-104374143D01*
X92190143Y-104278905D01*
X92190143Y-104207476D01*
X92213953Y-104112238D01*
X92237762Y-104064619D01*
X92285381Y-104017000D01*
X92356810Y-103993190D01*
X92404429Y-103993190D01*
X92475857Y-104017000D01*
X92499667Y-104040810D01*
X92928238Y-103993190D02*
X92833000Y-103993190D01*
X92785381Y-104017000D01*
X92761572Y-104040810D01*
X92713953Y-104112238D01*
X92690143Y-104207476D01*
X92690143Y-104397952D01*
X92713953Y-104445571D01*
X92737762Y-104469381D01*
X92785381Y-104493190D01*
X92880619Y-104493190D01*
X92928238Y-104469381D01*
X92952048Y-104445571D01*
X92975857Y-104397952D01*
X92975857Y-104278905D01*
X92952048Y-104231286D01*
X92928238Y-104207476D01*
X92880619Y-104183667D01*
X92785381Y-104183667D01*
X92737762Y-104207476D01*
X92713953Y-104231286D01*
X92690143Y-104278905D01*
X96309667Y-107747571D02*
X96285857Y-107771381D01*
X96214429Y-107795190D01*
X96166810Y-107795190D01*
X96095381Y-107771381D01*
X96047762Y-107723762D01*
X96023953Y-107676143D01*
X96000143Y-107580905D01*
X96000143Y-107509476D01*
X96023953Y-107414238D01*
X96047762Y-107366619D01*
X96095381Y-107319000D01*
X96166810Y-107295190D01*
X96214429Y-107295190D01*
X96285857Y-107319000D01*
X96309667Y-107342810D01*
X96476334Y-107295190D02*
X96809667Y-107295190D01*
X96595381Y-107795190D01*
X91832953Y-109192190D02*
X91832953Y-108692190D01*
X91952000Y-108692190D01*
X92023429Y-108716000D01*
X92071048Y-108763619D01*
X92094857Y-108811238D01*
X92118667Y-108906476D01*
X92118667Y-108977905D01*
X92094857Y-109073143D01*
X92071048Y-109120762D01*
X92023429Y-109168381D01*
X91952000Y-109192190D01*
X91832953Y-109192190D01*
X92594857Y-109192190D02*
X92309143Y-109192190D01*
X92452000Y-109192190D02*
X92452000Y-108692190D01*
X92404381Y-108763619D01*
X92356762Y-108811238D01*
X92309143Y-108835048D01*
X94372953Y-109192190D02*
X94372953Y-108692190D01*
X94492000Y-108692190D01*
X94563429Y-108716000D01*
X94611048Y-108763619D01*
X94634857Y-108811238D01*
X94658667Y-108906476D01*
X94658667Y-108977905D01*
X94634857Y-109073143D01*
X94611048Y-109120762D01*
X94563429Y-109168381D01*
X94492000Y-109192190D01*
X94372953Y-109192190D01*
X94849143Y-108739810D02*
X94872953Y-108716000D01*
X94920572Y-108692190D01*
X95039619Y-108692190D01*
X95087238Y-108716000D01*
X95111048Y-108739810D01*
X95134857Y-108787429D01*
X95134857Y-108835048D01*
X95111048Y-108906476D01*
X94825334Y-109192190D01*
X95134857Y-109192190D01*
X97166953Y-109192190D02*
X97166953Y-108692190D01*
X97286000Y-108692190D01*
X97357429Y-108716000D01*
X97405048Y-108763619D01*
X97428857Y-108811238D01*
X97452667Y-108906476D01*
X97452667Y-108977905D01*
X97428857Y-109073143D01*
X97405048Y-109120762D01*
X97357429Y-109168381D01*
X97286000Y-109192190D01*
X97166953Y-109192190D01*
X97619334Y-108692190D02*
X97928857Y-108692190D01*
X97762191Y-108882667D01*
X97833619Y-108882667D01*
X97881238Y-108906476D01*
X97905048Y-108930286D01*
X97928857Y-108977905D01*
X97928857Y-109096952D01*
X97905048Y-109144571D01*
X97881238Y-109168381D01*
X97833619Y-109192190D01*
X97690762Y-109192190D01*
X97643143Y-109168381D01*
X97619334Y-109144571D01*
X79386953Y-95412690D02*
X79386953Y-94912690D01*
X79506000Y-94912690D01*
X79577429Y-94936500D01*
X79625048Y-94984119D01*
X79648857Y-95031738D01*
X79672667Y-95126976D01*
X79672667Y-95198405D01*
X79648857Y-95293643D01*
X79625048Y-95341262D01*
X79577429Y-95388881D01*
X79506000Y-95412690D01*
X79386953Y-95412690D01*
X80101238Y-95079357D02*
X80101238Y-95412690D01*
X79982191Y-94888881D02*
X79863143Y-95246024D01*
X80172667Y-95246024D01*
X79081334Y-98770286D02*
X78914668Y-98770286D01*
X78914668Y-99032190D02*
X78914668Y-98532190D01*
X79152763Y-98532190D01*
X79605143Y-99032190D02*
X79319429Y-99032190D01*
X79462286Y-99032190D02*
X79462286Y-98532190D01*
X79414667Y-98603619D01*
X79367048Y-98651238D01*
X79319429Y-98675048D01*
X97833667Y-106271190D02*
X97595572Y-106271190D01*
X97595572Y-105771190D01*
X98262238Y-106271190D02*
X97976524Y-106271190D01*
X98119381Y-106271190D02*
X98119381Y-105771190D01*
X98071762Y-105842619D01*
X98024143Y-105890238D01*
X97976524Y-105914048D01*
X79513953Y-111478190D02*
X79513953Y-110978190D01*
X79704429Y-110978190D01*
X79752048Y-111002000D01*
X79775857Y-111025810D01*
X79799667Y-111073429D01*
X79799667Y-111144857D01*
X79775857Y-111192476D01*
X79752048Y-111216286D01*
X79704429Y-111240095D01*
X79513953Y-111240095D01*
X80275857Y-111478190D02*
X79990143Y-111478190D01*
X80133000Y-111478190D02*
X80133000Y-110978190D01*
X80085381Y-111049619D01*
X80037762Y-111097238D01*
X79990143Y-111121048D01*
D13*
X97305905Y-121356381D02*
X97305905Y-120356381D01*
X97686858Y-120356381D01*
X97782096Y-120404000D01*
X97829715Y-120451619D01*
X97877334Y-120546857D01*
X97877334Y-120689714D01*
X97829715Y-120784952D01*
X97782096Y-120832571D01*
X97686858Y-120880190D01*
X97305905Y-120880190D01*
X98258286Y-120451619D02*
X98305905Y-120404000D01*
X98401143Y-120356381D01*
X98639239Y-120356381D01*
X98734477Y-120404000D01*
X98782096Y-120451619D01*
X98829715Y-120546857D01*
X98829715Y-120642095D01*
X98782096Y-120784952D01*
X98210667Y-121356381D01*
X98829715Y-121356381D01*
D12*
X94245715Y-114556381D02*
X93674286Y-114556381D01*
X93960000Y-114556381D02*
X93960000Y-113556381D01*
X93864762Y-113699238D01*
X93769524Y-113794476D01*
X93674286Y-113842095D01*
D13*
X97178905Y-86558381D02*
X97178905Y-85558381D01*
X97559858Y-85558381D01*
X97655096Y-85606000D01*
X97702715Y-85653619D01*
X97750334Y-85748857D01*
X97750334Y-85891714D01*
X97702715Y-85986952D01*
X97655096Y-86034571D01*
X97559858Y-86082190D01*
X97178905Y-86082190D01*
X98083667Y-85558381D02*
X98702715Y-85558381D01*
X98369381Y-85939333D01*
X98512239Y-85939333D01*
X98607477Y-85986952D01*
X98655096Y-86034571D01*
X98702715Y-86129810D01*
X98702715Y-86367905D01*
X98655096Y-86463143D01*
X98607477Y-86510762D01*
X98512239Y-86558381D01*
X98226524Y-86558381D01*
X98131286Y-86510762D01*
X98083667Y-86463143D01*
D12*
X94245715Y-79758381D02*
X93674286Y-79758381D01*
X93960000Y-79758381D02*
X93960000Y-78758381D01*
X93864762Y-78901238D01*
X93769524Y-78996476D01*
X93674286Y-79044095D01*
D11*
X91102667Y-109192190D02*
X90936000Y-108954095D01*
X90816953Y-109192190D02*
X90816953Y-108692190D01*
X91007429Y-108692190D01*
X91055048Y-108716000D01*
X91078857Y-108739810D01*
X91102667Y-108787429D01*
X91102667Y-108858857D01*
X91078857Y-108906476D01*
X91055048Y-108930286D01*
X91007429Y-108954095D01*
X90816953Y-108954095D01*
X91578857Y-109192190D02*
X91293143Y-109192190D01*
X91436000Y-109192190D02*
X91436000Y-108692190D01*
X91388381Y-108763619D01*
X91340762Y-108811238D01*
X91293143Y-108835048D01*
X93261667Y-109192190D02*
X93095000Y-108954095D01*
X92975953Y-109192190D02*
X92975953Y-108692190D01*
X93166429Y-108692190D01*
X93214048Y-108716000D01*
X93237857Y-108739810D01*
X93261667Y-108787429D01*
X93261667Y-108858857D01*
X93237857Y-108906476D01*
X93214048Y-108930286D01*
X93166429Y-108954095D01*
X92975953Y-108954095D01*
X93452143Y-108739810D02*
X93475953Y-108716000D01*
X93523572Y-108692190D01*
X93642619Y-108692190D01*
X93690238Y-108716000D01*
X93714048Y-108739810D01*
X93737857Y-108787429D01*
X93737857Y-108835048D01*
X93714048Y-108906476D01*
X93428334Y-109192190D01*
X93737857Y-109192190D01*
X96055667Y-109192190D02*
X95889000Y-108954095D01*
X95769953Y-109192190D02*
X95769953Y-108692190D01*
X95960429Y-108692190D01*
X96008048Y-108716000D01*
X96031857Y-108739810D01*
X96055667Y-108787429D01*
X96055667Y-108858857D01*
X96031857Y-108906476D01*
X96008048Y-108930286D01*
X95960429Y-108954095D01*
X95769953Y-108954095D01*
X96222334Y-108692190D02*
X96531857Y-108692190D01*
X96365191Y-108882667D01*
X96436619Y-108882667D01*
X96484238Y-108906476D01*
X96508048Y-108930286D01*
X96531857Y-108977905D01*
X96531857Y-109096952D01*
X96508048Y-109144571D01*
X96484238Y-109168381D01*
X96436619Y-109192190D01*
X96293762Y-109192190D01*
X96246143Y-109168381D01*
X96222334Y-109144571D01*
X79672667Y-92682190D02*
X79506000Y-92444095D01*
X79386953Y-92682190D02*
X79386953Y-92182190D01*
X79577429Y-92182190D01*
X79625048Y-92206000D01*
X79648857Y-92229810D01*
X79672667Y-92277429D01*
X79672667Y-92348857D01*
X79648857Y-92396476D01*
X79625048Y-92420286D01*
X79577429Y-92444095D01*
X79386953Y-92444095D01*
X80101238Y-92348857D02*
X80101238Y-92682190D01*
X79982191Y-92158381D02*
X79863143Y-92515524D01*
X80172667Y-92515524D01*
X84117667Y-97127190D02*
X83951000Y-96889095D01*
X83831953Y-97127190D02*
X83831953Y-96627190D01*
X84022429Y-96627190D01*
X84070048Y-96651000D01*
X84093857Y-96674810D01*
X84117667Y-96722429D01*
X84117667Y-96793857D01*
X84093857Y-96841476D01*
X84070048Y-96865286D01*
X84022429Y-96889095D01*
X83831953Y-96889095D01*
X84570048Y-96627190D02*
X84331953Y-96627190D01*
X84308143Y-96865286D01*
X84331953Y-96841476D01*
X84379572Y-96817667D01*
X84498619Y-96817667D01*
X84546238Y-96841476D01*
X84570048Y-96865286D01*
X84593857Y-96912905D01*
X84593857Y-97031952D01*
X84570048Y-97079571D01*
X84546238Y-97103381D01*
X84498619Y-97127190D01*
X84379572Y-97127190D01*
X84331953Y-97103381D01*
X84308143Y-97079571D01*
X86784667Y-101191190D02*
X86618000Y-100953095D01*
X86498953Y-101191190D02*
X86498953Y-100691190D01*
X86689429Y-100691190D01*
X86737048Y-100715000D01*
X86760857Y-100738810D01*
X86784667Y-100786429D01*
X86784667Y-100857857D01*
X86760857Y-100905476D01*
X86737048Y-100929286D01*
X86689429Y-100953095D01*
X86498953Y-100953095D01*
X87213238Y-100691190D02*
X87118000Y-100691190D01*
X87070381Y-100715000D01*
X87046572Y-100738810D01*
X86998953Y-100810238D01*
X86975143Y-100905476D01*
X86975143Y-101095952D01*
X86998953Y-101143571D01*
X87022762Y-101167381D01*
X87070381Y-101191190D01*
X87165619Y-101191190D01*
X87213238Y-101167381D01*
X87237048Y-101143571D01*
X87260857Y-101095952D01*
X87260857Y-100976905D01*
X87237048Y-100929286D01*
X87213238Y-100905476D01*
X87165619Y-100881667D01*
X87070381Y-100881667D01*
X87022762Y-100905476D01*
X86998953Y-100929286D01*
X86975143Y-100976905D01*
X86784667Y-102080190D02*
X86618000Y-101842095D01*
X86498953Y-102080190D02*
X86498953Y-101580190D01*
X86689429Y-101580190D01*
X86737048Y-101604000D01*
X86760857Y-101627810D01*
X86784667Y-101675429D01*
X86784667Y-101746857D01*
X86760857Y-101794476D01*
X86737048Y-101818286D01*
X86689429Y-101842095D01*
X86498953Y-101842095D01*
X86951334Y-101580190D02*
X87284667Y-101580190D01*
X87070381Y-102080190D01*
X86784667Y-103096190D02*
X86618000Y-102858095D01*
X86498953Y-103096190D02*
X86498953Y-102596190D01*
X86689429Y-102596190D01*
X86737048Y-102620000D01*
X86760857Y-102643810D01*
X86784667Y-102691429D01*
X86784667Y-102762857D01*
X86760857Y-102810476D01*
X86737048Y-102834286D01*
X86689429Y-102858095D01*
X86498953Y-102858095D01*
X87070381Y-102810476D02*
X87022762Y-102786667D01*
X86998953Y-102762857D01*
X86975143Y-102715238D01*
X86975143Y-102691429D01*
X86998953Y-102643810D01*
X87022762Y-102620000D01*
X87070381Y-102596190D01*
X87165619Y-102596190D01*
X87213238Y-102620000D01*
X87237048Y-102643810D01*
X87260857Y-102691429D01*
X87260857Y-102715238D01*
X87237048Y-102762857D01*
X87213238Y-102786667D01*
X87165619Y-102810476D01*
X87070381Y-102810476D01*
X87022762Y-102834286D01*
X86998953Y-102858095D01*
X86975143Y-102905714D01*
X86975143Y-103000952D01*
X86998953Y-103048571D01*
X87022762Y-103072381D01*
X87070381Y-103096190D01*
X87165619Y-103096190D01*
X87213238Y-103072381D01*
X87237048Y-103048571D01*
X87260857Y-103000952D01*
X87260857Y-102905714D01*
X87237048Y-102858095D01*
X87213238Y-102834286D01*
X87165619Y-102810476D01*
X89832667Y-100556190D02*
X89666000Y-100318095D01*
X89546953Y-100556190D02*
X89546953Y-100056190D01*
X89737429Y-100056190D01*
X89785048Y-100080000D01*
X89808857Y-100103810D01*
X89832667Y-100151429D01*
X89832667Y-100222857D01*
X89808857Y-100270476D01*
X89785048Y-100294286D01*
X89737429Y-100318095D01*
X89546953Y-100318095D01*
X90070762Y-100556190D02*
X90166000Y-100556190D01*
X90213619Y-100532381D01*
X90237429Y-100508571D01*
X90285048Y-100437143D01*
X90308857Y-100341905D01*
X90308857Y-100151429D01*
X90285048Y-100103810D01*
X90261238Y-100080000D01*
X90213619Y-100056190D01*
X90118381Y-100056190D01*
X90070762Y-100080000D01*
X90046953Y-100103810D01*
X90023143Y-100151429D01*
X90023143Y-100270476D01*
X90046953Y-100318095D01*
X90070762Y-100341905D01*
X90118381Y-100365714D01*
X90213619Y-100365714D01*
X90261238Y-100341905D01*
X90285048Y-100318095D01*
X90308857Y-100270476D01*
X93912572Y-100302190D02*
X93745905Y-100064095D01*
X93626858Y-100302190D02*
X93626858Y-99802190D01*
X93817334Y-99802190D01*
X93864953Y-99826000D01*
X93888762Y-99849810D01*
X93912572Y-99897429D01*
X93912572Y-99968857D01*
X93888762Y-100016476D01*
X93864953Y-100040286D01*
X93817334Y-100064095D01*
X93626858Y-100064095D01*
X94388762Y-100302190D02*
X94103048Y-100302190D01*
X94245905Y-100302190D02*
X94245905Y-99802190D01*
X94198286Y-99873619D01*
X94150667Y-99921238D01*
X94103048Y-99945048D01*
X94698286Y-99802190D02*
X94745905Y-99802190D01*
X94793524Y-99826000D01*
X94817333Y-99849810D01*
X94841143Y-99897429D01*
X94864952Y-99992667D01*
X94864952Y-100111714D01*
X94841143Y-100206952D01*
X94817333Y-100254571D01*
X94793524Y-100278381D01*
X94745905Y-100302190D01*
X94698286Y-100302190D01*
X94650667Y-100278381D01*
X94626857Y-100254571D01*
X94603048Y-100206952D01*
X94579238Y-100111714D01*
X94579238Y-99992667D01*
X94603048Y-99897429D01*
X94626857Y-99849810D01*
X94650667Y-99826000D01*
X94698286Y-99802190D01*
X89467572Y-102842190D02*
X89300905Y-102604095D01*
X89181858Y-102842190D02*
X89181858Y-102342190D01*
X89372334Y-102342190D01*
X89419953Y-102366000D01*
X89443762Y-102389810D01*
X89467572Y-102437429D01*
X89467572Y-102508857D01*
X89443762Y-102556476D01*
X89419953Y-102580286D01*
X89372334Y-102604095D01*
X89181858Y-102604095D01*
X89943762Y-102842190D02*
X89658048Y-102842190D01*
X89800905Y-102842190D02*
X89800905Y-102342190D01*
X89753286Y-102413619D01*
X89705667Y-102461238D01*
X89658048Y-102485048D01*
X90419952Y-102842190D02*
X90134238Y-102842190D01*
X90277095Y-102842190D02*
X90277095Y-102342190D01*
X90229476Y-102413619D01*
X90181857Y-102461238D01*
X90134238Y-102485048D01*
X91880572Y-103604190D02*
X91713905Y-103366095D01*
X91594858Y-103604190D02*
X91594858Y-103104190D01*
X91785334Y-103104190D01*
X91832953Y-103128000D01*
X91856762Y-103151810D01*
X91880572Y-103199429D01*
X91880572Y-103270857D01*
X91856762Y-103318476D01*
X91832953Y-103342286D01*
X91785334Y-103366095D01*
X91594858Y-103366095D01*
X92356762Y-103604190D02*
X92071048Y-103604190D01*
X92213905Y-103604190D02*
X92213905Y-103104190D01*
X92166286Y-103175619D01*
X92118667Y-103223238D01*
X92071048Y-103247048D01*
X92547238Y-103151810D02*
X92571048Y-103128000D01*
X92618667Y-103104190D01*
X92737714Y-103104190D01*
X92785333Y-103128000D01*
X92809143Y-103151810D01*
X92832952Y-103199429D01*
X92832952Y-103247048D01*
X92809143Y-103318476D01*
X92523429Y-103604190D01*
X92832952Y-103604190D01*
X96198572Y-99032190D02*
X96031905Y-98794095D01*
X95912858Y-99032190D02*
X95912858Y-98532190D01*
X96103334Y-98532190D01*
X96150953Y-98556000D01*
X96174762Y-98579810D01*
X96198572Y-98627429D01*
X96198572Y-98698857D01*
X96174762Y-98746476D01*
X96150953Y-98770286D01*
X96103334Y-98794095D01*
X95912858Y-98794095D01*
X96674762Y-99032190D02*
X96389048Y-99032190D01*
X96531905Y-99032190D02*
X96531905Y-98532190D01*
X96484286Y-98603619D01*
X96436667Y-98651238D01*
X96389048Y-98675048D01*
X96841429Y-98532190D02*
X97150952Y-98532190D01*
X96984286Y-98722667D01*
X97055714Y-98722667D01*
X97103333Y-98746476D01*
X97127143Y-98770286D01*
X97150952Y-98817905D01*
X97150952Y-98936952D01*
X97127143Y-98984571D01*
X97103333Y-99008381D01*
X97055714Y-99032190D01*
X96912857Y-99032190D01*
X96865238Y-99008381D01*
X96841429Y-98984571D01*
X93912572Y-91031190D02*
X93745905Y-90793095D01*
X93626858Y-91031190D02*
X93626858Y-90531190D01*
X93817334Y-90531190D01*
X93864953Y-90555000D01*
X93888762Y-90578810D01*
X93912572Y-90626429D01*
X93912572Y-90697857D01*
X93888762Y-90745476D01*
X93864953Y-90769286D01*
X93817334Y-90793095D01*
X93626858Y-90793095D01*
X94388762Y-91031190D02*
X94103048Y-91031190D01*
X94245905Y-91031190D02*
X94245905Y-90531190D01*
X94198286Y-90602619D01*
X94150667Y-90650238D01*
X94103048Y-90674048D01*
X94817333Y-90697857D02*
X94817333Y-91031190D01*
X94698286Y-90507381D02*
X94579238Y-90864524D01*
X94888762Y-90864524D01*
X92388572Y-94460190D02*
X92221905Y-94222095D01*
X92102858Y-94460190D02*
X92102858Y-93960190D01*
X92293334Y-93960190D01*
X92340953Y-93984000D01*
X92364762Y-94007810D01*
X92388572Y-94055429D01*
X92388572Y-94126857D01*
X92364762Y-94174476D01*
X92340953Y-94198286D01*
X92293334Y-94222095D01*
X92102858Y-94222095D01*
X92864762Y-94460190D02*
X92579048Y-94460190D01*
X92721905Y-94460190D02*
X92721905Y-93960190D01*
X92674286Y-94031619D01*
X92626667Y-94079238D01*
X92579048Y-94103048D01*
X93317143Y-93960190D02*
X93079048Y-93960190D01*
X93055238Y-94198286D01*
X93079048Y-94174476D01*
X93126667Y-94150667D01*
X93245714Y-94150667D01*
X93293333Y-94174476D01*
X93317143Y-94198286D01*
X93340952Y-94245905D01*
X93340952Y-94364952D01*
X93317143Y-94412571D01*
X93293333Y-94436381D01*
X93245714Y-94460190D01*
X93126667Y-94460190D01*
X93079048Y-94436381D01*
X93055238Y-94412571D01*
X90864572Y-91031190D02*
X90697905Y-90793095D01*
X90578858Y-91031190D02*
X90578858Y-90531190D01*
X90769334Y-90531190D01*
X90816953Y-90555000D01*
X90840762Y-90578810D01*
X90864572Y-90626429D01*
X90864572Y-90697857D01*
X90840762Y-90745476D01*
X90816953Y-90769286D01*
X90769334Y-90793095D01*
X90578858Y-90793095D01*
X91340762Y-91031190D02*
X91055048Y-91031190D01*
X91197905Y-91031190D02*
X91197905Y-90531190D01*
X91150286Y-90602619D01*
X91102667Y-90650238D01*
X91055048Y-90674048D01*
X91769333Y-90531190D02*
X91674095Y-90531190D01*
X91626476Y-90555000D01*
X91602667Y-90578810D01*
X91555048Y-90650238D01*
X91531238Y-90745476D01*
X91531238Y-90935952D01*
X91555048Y-90983571D01*
X91578857Y-91007381D01*
X91626476Y-91031190D01*
X91721714Y-91031190D01*
X91769333Y-91007381D01*
X91793143Y-90983571D01*
X91816952Y-90935952D01*
X91816952Y-90816905D01*
X91793143Y-90769286D01*
X91769333Y-90745476D01*
X91721714Y-90721667D01*
X91626476Y-90721667D01*
X91578857Y-90745476D01*
X91555048Y-90769286D01*
X91531238Y-90816905D01*
X89340572Y-94460190D02*
X89173905Y-94222095D01*
X89054858Y-94460190D02*
X89054858Y-93960190D01*
X89245334Y-93960190D01*
X89292953Y-93984000D01*
X89316762Y-94007810D01*
X89340572Y-94055429D01*
X89340572Y-94126857D01*
X89316762Y-94174476D01*
X89292953Y-94198286D01*
X89245334Y-94222095D01*
X89054858Y-94222095D01*
X89816762Y-94460190D02*
X89531048Y-94460190D01*
X89673905Y-94460190D02*
X89673905Y-93960190D01*
X89626286Y-94031619D01*
X89578667Y-94079238D01*
X89531048Y-94103048D01*
X89983429Y-93960190D02*
X90316762Y-93960190D01*
X90102476Y-94460190D01*
X87816572Y-91031190D02*
X87649905Y-90793095D01*
X87530858Y-91031190D02*
X87530858Y-90531190D01*
X87721334Y-90531190D01*
X87768953Y-90555000D01*
X87792762Y-90578810D01*
X87816572Y-90626429D01*
X87816572Y-90697857D01*
X87792762Y-90745476D01*
X87768953Y-90769286D01*
X87721334Y-90793095D01*
X87530858Y-90793095D01*
X88292762Y-91031190D02*
X88007048Y-91031190D01*
X88149905Y-91031190D02*
X88149905Y-90531190D01*
X88102286Y-90602619D01*
X88054667Y-90650238D01*
X88007048Y-90674048D01*
X88578476Y-90745476D02*
X88530857Y-90721667D01*
X88507048Y-90697857D01*
X88483238Y-90650238D01*
X88483238Y-90626429D01*
X88507048Y-90578810D01*
X88530857Y-90555000D01*
X88578476Y-90531190D01*
X88673714Y-90531190D01*
X88721333Y-90555000D01*
X88745143Y-90578810D01*
X88768952Y-90626429D01*
X88768952Y-90650238D01*
X88745143Y-90697857D01*
X88721333Y-90721667D01*
X88673714Y-90745476D01*
X88578476Y-90745476D01*
X88530857Y-90769286D01*
X88507048Y-90793095D01*
X88483238Y-90840714D01*
X88483238Y-90935952D01*
X88507048Y-90983571D01*
X88530857Y-91007381D01*
X88578476Y-91031190D01*
X88673714Y-91031190D01*
X88721333Y-91007381D01*
X88745143Y-90983571D01*
X88768952Y-90935952D01*
X88768952Y-90840714D01*
X88745143Y-90793095D01*
X88721333Y-90769286D01*
X88673714Y-90745476D01*
X86292572Y-94460190D02*
X86125905Y-94222095D01*
X86006858Y-94460190D02*
X86006858Y-93960190D01*
X86197334Y-93960190D01*
X86244953Y-93984000D01*
X86268762Y-94007810D01*
X86292572Y-94055429D01*
X86292572Y-94126857D01*
X86268762Y-94174476D01*
X86244953Y-94198286D01*
X86197334Y-94222095D01*
X86006858Y-94222095D01*
X86768762Y-94460190D02*
X86483048Y-94460190D01*
X86625905Y-94460190D02*
X86625905Y-93960190D01*
X86578286Y-94031619D01*
X86530667Y-94079238D01*
X86483048Y-94103048D01*
X87006857Y-94460190D02*
X87102095Y-94460190D01*
X87149714Y-94436381D01*
X87173524Y-94412571D01*
X87221143Y-94341143D01*
X87244952Y-94245905D01*
X87244952Y-94055429D01*
X87221143Y-94007810D01*
X87197333Y-93984000D01*
X87149714Y-93960190D01*
X87054476Y-93960190D01*
X87006857Y-93984000D01*
X86983048Y-94007810D01*
X86959238Y-94055429D01*
X86959238Y-94174476D01*
X86983048Y-94222095D01*
X87006857Y-94245905D01*
X87054476Y-94269714D01*
X87149714Y-94269714D01*
X87197333Y-94245905D01*
X87221143Y-94222095D01*
X87244952Y-94174476D01*
X84768572Y-91031190D02*
X84601905Y-90793095D01*
X84482858Y-91031190D02*
X84482858Y-90531190D01*
X84673334Y-90531190D01*
X84720953Y-90555000D01*
X84744762Y-90578810D01*
X84768572Y-90626429D01*
X84768572Y-90697857D01*
X84744762Y-90745476D01*
X84720953Y-90769286D01*
X84673334Y-90793095D01*
X84482858Y-90793095D01*
X84959048Y-90578810D02*
X84982858Y-90555000D01*
X85030477Y-90531190D01*
X85149524Y-90531190D01*
X85197143Y-90555000D01*
X85220953Y-90578810D01*
X85244762Y-90626429D01*
X85244762Y-90674048D01*
X85220953Y-90745476D01*
X84935239Y-91031190D01*
X85244762Y-91031190D01*
X85554286Y-90531190D02*
X85601905Y-90531190D01*
X85649524Y-90555000D01*
X85673333Y-90578810D01*
X85697143Y-90626429D01*
X85720952Y-90721667D01*
X85720952Y-90840714D01*
X85697143Y-90935952D01*
X85673333Y-90983571D01*
X85649524Y-91007381D01*
X85601905Y-91031190D01*
X85554286Y-91031190D01*
X85506667Y-91007381D01*
X85482857Y-90983571D01*
X85459048Y-90935952D01*
X85435238Y-90840714D01*
X85435238Y-90721667D01*
X85459048Y-90626429D01*
X85482857Y-90578810D01*
X85506667Y-90555000D01*
X85554286Y-90531190D01*
X83244572Y-94460190D02*
X83077905Y-94222095D01*
X82958858Y-94460190D02*
X82958858Y-93960190D01*
X83149334Y-93960190D01*
X83196953Y-93984000D01*
X83220762Y-94007810D01*
X83244572Y-94055429D01*
X83244572Y-94126857D01*
X83220762Y-94174476D01*
X83196953Y-94198286D01*
X83149334Y-94222095D01*
X82958858Y-94222095D01*
X83435048Y-94007810D02*
X83458858Y-93984000D01*
X83506477Y-93960190D01*
X83625524Y-93960190D01*
X83673143Y-93984000D01*
X83696953Y-94007810D01*
X83720762Y-94055429D01*
X83720762Y-94103048D01*
X83696953Y-94174476D01*
X83411239Y-94460190D01*
X83720762Y-94460190D01*
X84196952Y-94460190D02*
X83911238Y-94460190D01*
X84054095Y-94460190D02*
X84054095Y-93960190D01*
X84006476Y-94031619D01*
X83958857Y-94079238D01*
X83911238Y-94103048D01*
X98357572Y-102207190D02*
X98190905Y-101969095D01*
X98071858Y-102207190D02*
X98071858Y-101707190D01*
X98262334Y-101707190D01*
X98309953Y-101731000D01*
X98333762Y-101754810D01*
X98357572Y-101802429D01*
X98357572Y-101873857D01*
X98333762Y-101921476D01*
X98309953Y-101945286D01*
X98262334Y-101969095D01*
X98071858Y-101969095D01*
X98548048Y-101754810D02*
X98571858Y-101731000D01*
X98619477Y-101707190D01*
X98738524Y-101707190D01*
X98786143Y-101731000D01*
X98809953Y-101754810D01*
X98833762Y-101802429D01*
X98833762Y-101850048D01*
X98809953Y-101921476D01*
X98524239Y-102207190D01*
X98833762Y-102207190D01*
X99024238Y-101754810D02*
X99048048Y-101731000D01*
X99095667Y-101707190D01*
X99214714Y-101707190D01*
X99262333Y-101731000D01*
X99286143Y-101754810D01*
X99309952Y-101802429D01*
X99309952Y-101850048D01*
X99286143Y-101921476D01*
X99000429Y-102207190D01*
X99309952Y-102207190D01*
X96833572Y-102207190D02*
X96666905Y-101969095D01*
X96547858Y-102207190D02*
X96547858Y-101707190D01*
X96738334Y-101707190D01*
X96785953Y-101731000D01*
X96809762Y-101754810D01*
X96833572Y-101802429D01*
X96833572Y-101873857D01*
X96809762Y-101921476D01*
X96785953Y-101945286D01*
X96738334Y-101969095D01*
X96547858Y-101969095D01*
X97024048Y-101754810D02*
X97047858Y-101731000D01*
X97095477Y-101707190D01*
X97214524Y-101707190D01*
X97262143Y-101731000D01*
X97285953Y-101754810D01*
X97309762Y-101802429D01*
X97309762Y-101850048D01*
X97285953Y-101921476D01*
X97000239Y-102207190D01*
X97309762Y-102207190D01*
X97476429Y-101707190D02*
X97785952Y-101707190D01*
X97619286Y-101897667D01*
X97690714Y-101897667D01*
X97738333Y-101921476D01*
X97762143Y-101945286D01*
X97785952Y-101992905D01*
X97785952Y-102111952D01*
X97762143Y-102159571D01*
X97738333Y-102183381D01*
X97690714Y-102207190D01*
X97547857Y-102207190D01*
X97500238Y-102183381D01*
X97476429Y-102159571D01*
X86487048Y-107803190D02*
X86487048Y-108207952D01*
X86510857Y-108255571D01*
X86534667Y-108279381D01*
X86582286Y-108303190D01*
X86677524Y-108303190D01*
X86725143Y-108279381D01*
X86748952Y-108255571D01*
X86772762Y-108207952D01*
X86772762Y-107803190D01*
X86987048Y-107850810D02*
X87010858Y-107827000D01*
X87058477Y-107803190D01*
X87177524Y-107803190D01*
X87225143Y-107827000D01*
X87248953Y-107850810D01*
X87272762Y-107898429D01*
X87272762Y-107946048D01*
X87248953Y-108017476D01*
X86963239Y-108303190D01*
X87272762Y-108303190D01*
X91821048Y-107041190D02*
X91821048Y-107445952D01*
X91844857Y-107493571D01*
X91868667Y-107517381D01*
X91916286Y-107541190D01*
X92011524Y-107541190D01*
X92059143Y-107517381D01*
X92082952Y-107493571D01*
X92106762Y-107445952D01*
X92106762Y-107041190D01*
X92559143Y-107207857D02*
X92559143Y-107541190D01*
X92440096Y-107017381D02*
X92321048Y-107374524D01*
X92630572Y-107374524D01*
X91821048Y-96119190D02*
X91821048Y-96523952D01*
X91844857Y-96571571D01*
X91868667Y-96595381D01*
X91916286Y-96619190D01*
X92011524Y-96619190D01*
X92059143Y-96595381D01*
X92082952Y-96571571D01*
X92106762Y-96523952D01*
X92106762Y-96119190D01*
X92297239Y-96119190D02*
X92606762Y-96119190D01*
X92440096Y-96309667D01*
X92511524Y-96309667D01*
X92559143Y-96333476D01*
X92582953Y-96357286D01*
X92606762Y-96404905D01*
X92606762Y-96523952D01*
X92582953Y-96571571D01*
X92559143Y-96595381D01*
X92511524Y-96619190D01*
X92368667Y-96619190D01*
X92321048Y-96595381D01*
X92297239Y-96571571D01*
X85496448Y-87584790D02*
X85496448Y-87989552D01*
X85520257Y-88037171D01*
X85544067Y-88060981D01*
X85591686Y-88084790D01*
X85686924Y-88084790D01*
X85734543Y-88060981D01*
X85758352Y-88037171D01*
X85782162Y-87989552D01*
X85782162Y-87584790D01*
X86234543Y-87584790D02*
X86139305Y-87584790D01*
X86091686Y-87608600D01*
X86067877Y-87632410D01*
X86020258Y-87703838D01*
X85996448Y-87799076D01*
X85996448Y-87989552D01*
X86020258Y-88037171D01*
X86044067Y-88060981D01*
X86091686Y-88084790D01*
X86186924Y-88084790D01*
X86234543Y-88060981D01*
X86258353Y-88037171D01*
X86282162Y-87989552D01*
X86282162Y-87870505D01*
X86258353Y-87822886D01*
X86234543Y-87799076D01*
X86186924Y-87775267D01*
X86091686Y-87775267D01*
X86044067Y-87799076D01*
X86020258Y-87822886D01*
X85996448Y-87870505D01*
X91592448Y-87483190D02*
X91592448Y-87887952D01*
X91616257Y-87935571D01*
X91640067Y-87959381D01*
X91687686Y-87983190D01*
X91782924Y-87983190D01*
X91830543Y-87959381D01*
X91854352Y-87935571D01*
X91878162Y-87887952D01*
X91878162Y-87483190D01*
X92354353Y-87483190D02*
X92116258Y-87483190D01*
X92092448Y-87721286D01*
X92116258Y-87697476D01*
X92163877Y-87673667D01*
X92282924Y-87673667D01*
X92330543Y-87697476D01*
X92354353Y-87721286D01*
X92378162Y-87768905D01*
X92378162Y-87887952D01*
X92354353Y-87935571D01*
X92330543Y-87959381D01*
X92282924Y-87983190D01*
X92163877Y-87983190D01*
X92116258Y-87959381D01*
X92092448Y-87935571D01*
X84582048Y-106456990D02*
X84582048Y-106861752D01*
X84605857Y-106909371D01*
X84629667Y-106933181D01*
X84677286Y-106956990D01*
X84772524Y-106956990D01*
X84820143Y-106933181D01*
X84843952Y-106909371D01*
X84867762Y-106861752D01*
X84867762Y-106456990D01*
X85367762Y-106956990D02*
X85082048Y-106956990D01*
X85224905Y-106956990D02*
X85224905Y-106456990D01*
X85177286Y-106528419D01*
X85129667Y-106576038D01*
X85082048Y-106599848D01*
M02*
