M48
;DRILL file {KiCad 4.0.5} date 01/03/18 16:25:04
;FORMAT={2:4/ absolute / inch / suppress leading zeros}
FMAT,2
INCH,TZ
T1C0.012
T2C0.040
%
G90
G05
M72
T1
X31925Y-35650
X32000Y-41400
X32000Y-41650
X32300Y-34650
X33150Y-38600
X33150Y-43475
X33225Y-34650
X33425Y-42650
X33500Y-39500
X33500Y-40100
X33500Y-40700
X33900Y-42000
X34002Y-41452
X34200Y-43900
X34300Y-34650
X34311Y-39500
X34508Y-39850
X34705Y-40200
X34725Y-42600
X34900Y-39500
X35000Y-38400
X35000Y-41550
X35098Y-39850
X35125Y-42850
X35295Y-40200
X35345Y-42850
X35450Y-34650
X35600Y-42850
X36100Y-39500
X36100Y-40200
X36500Y-37700
X36800Y-34650
X37100Y-39850
X37198Y-42350
X37202Y-41150
X37875Y-34650
X38250Y-40480
X38550Y-40775
T2
X33000Y-31900
X33000Y-32900
X33000Y-45600
X33000Y-46600
X34000Y-31900
X34000Y-32900
X34000Y-45600
X34000Y-46600
X35000Y-31900
X35000Y-32900
X35000Y-45600
X35000Y-46600
X36000Y-31900
X36000Y-32900
X36000Y-45600
X36000Y-46600
X37000Y-31900
X37000Y-32900
X37000Y-45600
X37000Y-46600
T0
M30
