%FSLAX45Y45*%
G04 Gerber Fmt 4.5, Leading zero omitted, Abs format (unit mm)*
G04 Created by KiCad (PCBNEW 4.0.5) date 01/03/18 16:25:06*
%MOMM*%
%LPD*%
G01*
G04 APERTURE LIST*
%ADD10C,0.127000*%
%ADD11C,0.150000*%
%ADD12C,0.200000*%
%ADD13C,0.300000*%
G04 APERTURE END LIST*
D10*
D11*
X7912100Y-7620000D02*
G75*
G03X7721600Y-7810500I0J-190500D01*
G01*
X10058400Y-7810500D02*
G75*
G03X9867900Y-7620000I-190500J0D01*
G01*
X7721600Y-12128500D02*
G75*
G03X7912100Y-12319000I190500J0D01*
G01*
X9867900Y-12319000D02*
G75*
G03X10058400Y-12128500I0J190500D01*
G01*
X7721600Y-12128500D02*
X7721600Y-7810500D01*
X9867900Y-12319000D02*
X7912100Y-12319000D01*
X10058400Y-7810500D02*
X10058400Y-12128500D01*
X7912100Y-7620000D02*
X9867900Y-7620000D01*
D12*
X8093710Y-9039860D02*
X8124190Y-9070340D01*
X8124190Y-9039860D02*
X8093710Y-9070340D01*
X8112760Y-10500360D02*
X8143240Y-10530840D01*
X8143240Y-10500360D02*
X8112760Y-10530840D01*
X8112760Y-10563860D02*
X8143240Y-10594340D01*
X8143240Y-10563860D02*
X8112760Y-10594340D01*
X8188960Y-8785860D02*
X8219440Y-8816340D01*
X8219440Y-8785860D02*
X8188960Y-8816340D01*
X8404860Y-9789160D02*
X8435340Y-9819640D01*
X8435340Y-9789160D02*
X8404860Y-9819640D01*
X8404860Y-11027410D02*
X8435340Y-11057890D01*
X8435340Y-11027410D02*
X8404860Y-11057890D01*
X8423910Y-8785860D02*
X8454390Y-8816340D01*
X8454390Y-8785860D02*
X8423910Y-8816340D01*
X8474710Y-10817860D02*
X8505190Y-10848340D01*
X8505190Y-10817860D02*
X8474710Y-10848340D01*
X8493760Y-10017760D02*
X8524240Y-10048240D01*
X8524240Y-10017760D02*
X8493760Y-10048240D01*
X8493760Y-10170160D02*
X8524240Y-10200640D01*
X8524240Y-10170160D02*
X8493760Y-10200640D01*
X8493760Y-10322560D02*
X8524240Y-10353040D01*
X8524240Y-10322560D02*
X8493760Y-10353040D01*
X8595360Y-10652760D02*
X8625840Y-10683240D01*
X8625840Y-10652760D02*
X8595360Y-10683240D01*
X8621300Y-10513460D02*
X8651780Y-10543940D01*
X8651780Y-10513460D02*
X8621300Y-10543940D01*
X8671560Y-11135360D02*
X8702040Y-11165840D01*
X8702040Y-11135360D02*
X8671560Y-11165840D01*
X8696960Y-8785860D02*
X8727440Y-8816340D01*
X8727440Y-8785860D02*
X8696960Y-8816340D01*
X8699760Y-10017760D02*
X8730240Y-10048240D01*
X8730240Y-10017760D02*
X8699760Y-10048240D01*
X8749760Y-10106660D02*
X8780240Y-10137140D01*
X8780240Y-10106660D02*
X8749760Y-10137140D01*
X8799760Y-10195560D02*
X8830240Y-10226040D01*
X8830240Y-10195560D02*
X8799760Y-10226040D01*
X8804910Y-10805160D02*
X8835390Y-10835640D01*
X8835390Y-10805160D02*
X8804910Y-10835640D01*
X8849360Y-10017760D02*
X8879840Y-10048240D01*
X8879840Y-10017760D02*
X8849360Y-10048240D01*
X8874760Y-9738360D02*
X8905240Y-9768840D01*
X8905240Y-9738360D02*
X8874760Y-9768840D01*
X8874760Y-10538460D02*
X8905240Y-10568940D01*
X8905240Y-10538460D02*
X8874760Y-10568940D01*
X8899760Y-10106660D02*
X8930240Y-10137140D01*
X8930240Y-10106660D02*
X8899760Y-10137140D01*
X8906510Y-10868660D02*
X8936990Y-10899140D01*
X8936990Y-10868660D02*
X8906510Y-10899140D01*
X8949760Y-10195560D02*
X8980240Y-10226040D01*
X8980240Y-10195560D02*
X8949760Y-10226040D01*
X8962391Y-10868660D02*
X8992871Y-10899140D01*
X8992871Y-10868660D02*
X8962391Y-10899140D01*
X8989060Y-8785860D02*
X9019540Y-8816340D01*
X9019540Y-8785860D02*
X8989060Y-8816340D01*
X9027160Y-10868660D02*
X9057640Y-10899140D01*
X9057640Y-10868660D02*
X9027160Y-10899140D01*
X9154160Y-10017760D02*
X9184640Y-10048240D01*
X9184640Y-10017760D02*
X9154160Y-10048240D01*
X9154160Y-10195560D02*
X9184640Y-10226040D01*
X9184640Y-10195560D02*
X9154160Y-10226040D01*
X9255760Y-9560560D02*
X9286240Y-9591040D01*
X9286240Y-9560560D02*
X9255760Y-9591040D01*
X9331960Y-8785860D02*
X9362440Y-8816340D01*
X9362440Y-8785860D02*
X9331960Y-8816340D01*
X9408160Y-10106660D02*
X9438640Y-10137140D01*
X9438640Y-10106660D02*
X9408160Y-10137140D01*
X9433000Y-10741660D02*
X9463480Y-10772140D01*
X9463480Y-10741660D02*
X9433000Y-10772140D01*
X9434120Y-10436860D02*
X9464600Y-10467340D01*
X9464600Y-10436860D02*
X9434120Y-10467340D01*
X9605010Y-8785860D02*
X9635490Y-8816340D01*
X9635490Y-8785860D02*
X9605010Y-8816340D01*
X9700260Y-10266610D02*
X9730740Y-10297090D01*
X9730740Y-10266610D02*
X9700260Y-10297090D01*
X9776460Y-10341610D02*
X9806940Y-10372090D01*
X9806940Y-10341610D02*
X9776460Y-10372090D01*
X8432800Y-8102600D02*
G75*
G03X8432800Y-8102600I-50800J0D01*
G01*
X8432800Y-8356600D02*
G75*
G03X8432800Y-8356600I-50800J0D01*
G01*
X8432800Y-11582400D02*
G75*
G03X8432800Y-11582400I-50800J0D01*
G01*
X8432800Y-11836400D02*
G75*
G03X8432800Y-11836400I-50800J0D01*
G01*
X8686800Y-8102600D02*
G75*
G03X8686800Y-8102600I-50800J0D01*
G01*
X8686800Y-8356600D02*
G75*
G03X8686800Y-8356600I-50800J0D01*
G01*
X8686800Y-11582400D02*
G75*
G03X8686800Y-11582400I-50800J0D01*
G01*
X8686800Y-11836400D02*
G75*
G03X8686800Y-11836400I-50800J0D01*
G01*
X8940800Y-8102600D02*
G75*
G03X8940800Y-8102600I-50800J0D01*
G01*
X8940800Y-8356600D02*
G75*
G03X8940800Y-8356600I-50800J0D01*
G01*
X8940800Y-11582400D02*
G75*
G03X8940800Y-11582400I-50800J0D01*
G01*
X8940800Y-11836400D02*
G75*
G03X8940800Y-11836400I-50800J0D01*
G01*
X9194800Y-8102600D02*
G75*
G03X9194800Y-8102600I-50800J0D01*
G01*
X9194800Y-8356600D02*
G75*
G03X9194800Y-8356600I-50800J0D01*
G01*
X9194800Y-11582400D02*
G75*
G03X9194800Y-11582400I-50800J0D01*
G01*
X9194800Y-11836400D02*
G75*
G03X9194800Y-11836400I-50800J0D01*
G01*
X9448800Y-8102600D02*
G75*
G03X9448800Y-8102600I-50800J0D01*
G01*
X9448800Y-8356600D02*
G75*
G03X9448800Y-8356600I-50800J0D01*
G01*
X9448800Y-11582400D02*
G75*
G03X9448800Y-11582400I-50800J0D01*
G01*
X9448800Y-11836400D02*
G75*
G03X9448800Y-11836400I-50800J0D01*
G01*
D13*
X7985528Y-12792214D02*
X7985528Y-12492214D01*
X8056957Y-12492214D01*
X8099814Y-12506500D01*
X8128386Y-12535071D01*
X8142671Y-12563643D01*
X8156957Y-12620786D01*
X8156957Y-12663643D01*
X8142671Y-12720786D01*
X8128386Y-12749357D01*
X8099814Y-12777929D01*
X8056957Y-12792214D01*
X7985528Y-12792214D01*
X8285528Y-12792214D02*
X8285528Y-12592214D01*
X8285528Y-12649357D02*
X8299814Y-12620786D01*
X8314100Y-12606500D01*
X8342671Y-12592214D01*
X8371243Y-12592214D01*
X8471243Y-12792214D02*
X8471243Y-12592214D01*
X8471243Y-12492214D02*
X8456957Y-12506500D01*
X8471243Y-12520786D01*
X8485529Y-12506500D01*
X8471243Y-12492214D01*
X8471243Y-12520786D01*
X8656957Y-12792214D02*
X8628386Y-12777929D01*
X8614100Y-12749357D01*
X8614100Y-12492214D01*
X8814100Y-12792214D02*
X8785529Y-12777929D01*
X8771243Y-12749357D01*
X8771243Y-12492214D01*
X9156957Y-12792214D02*
X9156957Y-12492214D01*
X9256957Y-12706500D01*
X9356957Y-12492214D01*
X9356957Y-12792214D01*
X9628386Y-12792214D02*
X9628386Y-12635071D01*
X9614100Y-12606500D01*
X9585529Y-12592214D01*
X9528386Y-12592214D01*
X9499814Y-12606500D01*
X9628386Y-12777929D02*
X9599814Y-12792214D01*
X9528386Y-12792214D01*
X9499814Y-12777929D01*
X9485529Y-12749357D01*
X9485529Y-12720786D01*
X9499814Y-12692214D01*
X9528386Y-12677929D01*
X9599814Y-12677929D01*
X9628386Y-12663643D01*
X9771243Y-12592214D02*
X9771243Y-12892214D01*
X9771243Y-12606500D02*
X9799814Y-12592214D01*
X9856957Y-12592214D01*
X9885529Y-12606500D01*
X9899814Y-12620786D01*
X9914100Y-12649357D01*
X9914100Y-12735071D01*
X9899814Y-12763643D01*
X9885529Y-12777929D01*
X9856957Y-12792214D01*
X9799814Y-12792214D01*
X9771243Y-12777929D01*
X10042671Y-12763643D02*
X10056957Y-12777929D01*
X10042671Y-12792214D01*
X10028386Y-12777929D01*
X10042671Y-12763643D01*
X10042671Y-12792214D01*
X10042671Y-12606500D02*
X10056957Y-12620786D01*
X10042671Y-12635071D01*
X10028386Y-12620786D01*
X10042671Y-12606500D01*
X10042671Y-12635071D01*
X7683620Y-13271260D02*
X7714100Y-13301740D01*
X7714100Y-13271260D02*
X7683620Y-13301740D01*
X8042671Y-13122214D02*
X8071243Y-13122214D01*
X8099814Y-13136500D01*
X8114100Y-13150786D01*
X8128386Y-13179357D01*
X8142671Y-13236500D01*
X8142671Y-13307929D01*
X8128386Y-13365071D01*
X8114100Y-13393643D01*
X8099814Y-13407929D01*
X8071243Y-13422214D01*
X8042671Y-13422214D01*
X8014100Y-13407929D01*
X7999814Y-13393643D01*
X7985528Y-13365071D01*
X7971243Y-13307929D01*
X7971243Y-13236500D01*
X7985528Y-13179357D01*
X7999814Y-13150786D01*
X8014100Y-13136500D01*
X8042671Y-13122214D01*
X8271243Y-13393643D02*
X8285528Y-13407929D01*
X8271243Y-13422214D01*
X8256957Y-13407929D01*
X8271243Y-13393643D01*
X8271243Y-13422214D01*
X8385528Y-13122214D02*
X8571243Y-13122214D01*
X8471243Y-13236500D01*
X8514100Y-13236500D01*
X8542671Y-13250786D01*
X8556957Y-13265071D01*
X8571243Y-13293643D01*
X8571243Y-13365071D01*
X8556957Y-13393643D01*
X8542671Y-13407929D01*
X8514100Y-13422214D01*
X8428386Y-13422214D01*
X8399814Y-13407929D01*
X8385528Y-13393643D01*
X8756957Y-13122214D02*
X8785529Y-13122214D01*
X8814100Y-13136500D01*
X8828386Y-13150786D01*
X8842671Y-13179357D01*
X8856957Y-13236500D01*
X8856957Y-13307929D01*
X8842671Y-13365071D01*
X8828386Y-13393643D01*
X8814100Y-13407929D01*
X8785529Y-13422214D01*
X8756957Y-13422214D01*
X8728386Y-13407929D01*
X8714100Y-13393643D01*
X8699814Y-13365071D01*
X8685529Y-13307929D01*
X8685529Y-13236500D01*
X8699814Y-13179357D01*
X8714100Y-13150786D01*
X8728386Y-13136500D01*
X8756957Y-13122214D01*
X8985529Y-13422214D02*
X8985529Y-13222214D01*
X8985529Y-13250786D02*
X8999814Y-13236500D01*
X9028386Y-13222214D01*
X9071243Y-13222214D01*
X9099814Y-13236500D01*
X9114100Y-13265071D01*
X9114100Y-13422214D01*
X9114100Y-13265071D02*
X9128386Y-13236500D01*
X9156957Y-13222214D01*
X9199814Y-13222214D01*
X9228386Y-13236500D01*
X9242671Y-13265071D01*
X9242671Y-13422214D01*
X9385529Y-13422214D02*
X9385529Y-13222214D01*
X9385529Y-13250786D02*
X9399814Y-13236500D01*
X9428386Y-13222214D01*
X9471243Y-13222214D01*
X9499814Y-13236500D01*
X9514100Y-13265071D01*
X9514100Y-13422214D01*
X9514100Y-13265071D02*
X9528386Y-13236500D01*
X9556957Y-13222214D01*
X9599814Y-13222214D01*
X9628386Y-13236500D01*
X9642671Y-13265071D01*
X9642671Y-13422214D01*
X10228386Y-13107929D02*
X9971243Y-13493643D01*
X10614100Y-13122214D02*
X10642671Y-13122214D01*
X10671243Y-13136500D01*
X10685528Y-13150786D01*
X10699814Y-13179357D01*
X10714100Y-13236500D01*
X10714100Y-13307929D01*
X10699814Y-13365071D01*
X10685528Y-13393643D01*
X10671243Y-13407929D01*
X10642671Y-13422214D01*
X10614100Y-13422214D01*
X10585528Y-13407929D01*
X10571243Y-13393643D01*
X10556957Y-13365071D01*
X10542671Y-13307929D01*
X10542671Y-13236500D01*
X10556957Y-13179357D01*
X10571243Y-13150786D01*
X10585528Y-13136500D01*
X10614100Y-13122214D01*
X10842671Y-13393643D02*
X10856957Y-13407929D01*
X10842671Y-13422214D01*
X10828386Y-13407929D01*
X10842671Y-13393643D01*
X10842671Y-13422214D01*
X11042671Y-13122214D02*
X11071243Y-13122214D01*
X11099814Y-13136500D01*
X11114100Y-13150786D01*
X11128386Y-13179357D01*
X11142671Y-13236500D01*
X11142671Y-13307929D01*
X11128386Y-13365071D01*
X11114100Y-13393643D01*
X11099814Y-13407929D01*
X11071243Y-13422214D01*
X11042671Y-13422214D01*
X11014100Y-13407929D01*
X10999814Y-13393643D01*
X10985528Y-13365071D01*
X10971243Y-13307929D01*
X10971243Y-13236500D01*
X10985528Y-13179357D01*
X10999814Y-13150786D01*
X11014100Y-13136500D01*
X11042671Y-13122214D01*
X11428385Y-13422214D02*
X11256957Y-13422214D01*
X11342671Y-13422214D02*
X11342671Y-13122214D01*
X11314100Y-13165071D01*
X11285528Y-13193643D01*
X11256957Y-13207929D01*
X11542671Y-13150786D02*
X11556957Y-13136500D01*
X11585528Y-13122214D01*
X11656957Y-13122214D01*
X11685528Y-13136500D01*
X11699814Y-13150786D01*
X11714100Y-13179357D01*
X11714100Y-13207929D01*
X11699814Y-13250786D01*
X11528385Y-13422214D01*
X11714100Y-13422214D01*
X11828386Y-13122214D02*
X11828386Y-13179357D01*
X11942671Y-13122214D02*
X11942671Y-13179357D01*
X12385528Y-13536500D02*
X12371243Y-13522214D01*
X12342671Y-13479357D01*
X12328385Y-13450786D01*
X12314100Y-13407929D01*
X12299814Y-13336500D01*
X12299814Y-13279357D01*
X12314100Y-13207929D01*
X12328385Y-13165071D01*
X12342671Y-13136500D01*
X12371243Y-13093643D01*
X12385528Y-13079357D01*
X12471243Y-13122214D02*
X12656957Y-13122214D01*
X12556957Y-13236500D01*
X12599814Y-13236500D01*
X12628385Y-13250786D01*
X12642671Y-13265071D01*
X12656957Y-13293643D01*
X12656957Y-13365071D01*
X12642671Y-13393643D01*
X12628385Y-13407929D01*
X12599814Y-13422214D01*
X12514100Y-13422214D01*
X12485528Y-13407929D01*
X12471243Y-13393643D01*
X12828385Y-13250786D02*
X12799814Y-13236500D01*
X12785528Y-13222214D01*
X12771243Y-13193643D01*
X12771243Y-13179357D01*
X12785528Y-13150786D01*
X12799814Y-13136500D01*
X12828385Y-13122214D01*
X12885528Y-13122214D01*
X12914100Y-13136500D01*
X12928385Y-13150786D01*
X12942671Y-13179357D01*
X12942671Y-13193643D01*
X12928385Y-13222214D01*
X12914100Y-13236500D01*
X12885528Y-13250786D01*
X12828385Y-13250786D01*
X12799814Y-13265071D01*
X12785528Y-13279357D01*
X12771243Y-13307929D01*
X12771243Y-13365071D01*
X12785528Y-13393643D01*
X12799814Y-13407929D01*
X12828385Y-13422214D01*
X12885528Y-13422214D01*
X12914100Y-13407929D01*
X12928385Y-13393643D01*
X12942671Y-13365071D01*
X12942671Y-13307929D01*
X12928385Y-13279357D01*
X12914100Y-13265071D01*
X12885528Y-13250786D01*
X13299814Y-13422214D02*
X13299814Y-13122214D01*
X13428385Y-13422214D02*
X13428385Y-13265071D01*
X13414100Y-13236500D01*
X13385528Y-13222214D01*
X13342671Y-13222214D01*
X13314100Y-13236500D01*
X13299814Y-13250786D01*
X13614100Y-13422214D02*
X13585528Y-13407929D01*
X13571243Y-13393643D01*
X13556957Y-13365071D01*
X13556957Y-13279357D01*
X13571243Y-13250786D01*
X13585528Y-13236500D01*
X13614100Y-13222214D01*
X13656957Y-13222214D01*
X13685528Y-13236500D01*
X13699814Y-13250786D01*
X13714100Y-13279357D01*
X13714100Y-13365071D01*
X13699814Y-13393643D01*
X13685528Y-13407929D01*
X13656957Y-13422214D01*
X13614100Y-13422214D01*
X13885528Y-13422214D02*
X13856957Y-13407929D01*
X13842671Y-13379357D01*
X13842671Y-13122214D01*
X14114100Y-13407929D02*
X14085528Y-13422214D01*
X14028386Y-13422214D01*
X13999814Y-13407929D01*
X13985528Y-13379357D01*
X13985528Y-13265071D01*
X13999814Y-13236500D01*
X14028386Y-13222214D01*
X14085528Y-13222214D01*
X14114100Y-13236500D01*
X14128386Y-13265071D01*
X14128386Y-13293643D01*
X13985528Y-13322214D01*
X14242671Y-13407929D02*
X14271243Y-13422214D01*
X14328386Y-13422214D01*
X14356957Y-13407929D01*
X14371243Y-13379357D01*
X14371243Y-13365071D01*
X14356957Y-13336500D01*
X14328386Y-13322214D01*
X14285528Y-13322214D01*
X14256957Y-13307929D01*
X14242671Y-13279357D01*
X14242671Y-13265071D01*
X14256957Y-13236500D01*
X14285528Y-13222214D01*
X14328386Y-13222214D01*
X14356957Y-13236500D01*
X14471243Y-13536500D02*
X14485528Y-13522214D01*
X14514100Y-13479357D01*
X14528386Y-13450786D01*
X14542671Y-13407929D01*
X14556957Y-13336500D01*
X14556957Y-13279357D01*
X14542671Y-13207929D01*
X14528386Y-13165071D01*
X14514100Y-13136500D01*
X14485528Y-13093643D01*
X14471243Y-13079357D01*
X7714100Y-13682500D02*
G75*
G03X7714100Y-13682500I-50800J0D01*
G01*
X8142671Y-13818214D02*
X7971243Y-13818214D01*
X8056957Y-13818214D02*
X8056957Y-13518214D01*
X8028386Y-13561071D01*
X7999814Y-13589643D01*
X7971243Y-13603929D01*
X8271243Y-13789643D02*
X8285528Y-13803929D01*
X8271243Y-13818214D01*
X8256957Y-13803929D01*
X8271243Y-13789643D01*
X8271243Y-13818214D01*
X8471243Y-13518214D02*
X8499814Y-13518214D01*
X8528386Y-13532500D01*
X8542671Y-13546786D01*
X8556957Y-13575357D01*
X8571243Y-13632500D01*
X8571243Y-13703929D01*
X8556957Y-13761071D01*
X8542671Y-13789643D01*
X8528386Y-13803929D01*
X8499814Y-13818214D01*
X8471243Y-13818214D01*
X8442671Y-13803929D01*
X8428386Y-13789643D01*
X8414100Y-13761071D01*
X8399814Y-13703929D01*
X8399814Y-13632500D01*
X8414100Y-13575357D01*
X8428386Y-13546786D01*
X8442671Y-13532500D01*
X8471243Y-13518214D01*
X8685529Y-13546786D02*
X8699814Y-13532500D01*
X8728386Y-13518214D01*
X8799814Y-13518214D01*
X8828386Y-13532500D01*
X8842671Y-13546786D01*
X8856957Y-13575357D01*
X8856957Y-13603929D01*
X8842671Y-13646786D01*
X8671243Y-13818214D01*
X8856957Y-13818214D01*
X8985529Y-13818214D02*
X8985529Y-13618214D01*
X8985529Y-13646786D02*
X8999814Y-13632500D01*
X9028386Y-13618214D01*
X9071243Y-13618214D01*
X9099814Y-13632500D01*
X9114100Y-13661071D01*
X9114100Y-13818214D01*
X9114100Y-13661071D02*
X9128386Y-13632500D01*
X9156957Y-13618214D01*
X9199814Y-13618214D01*
X9228386Y-13632500D01*
X9242671Y-13661071D01*
X9242671Y-13818214D01*
X9385529Y-13818214D02*
X9385529Y-13618214D01*
X9385529Y-13646786D02*
X9399814Y-13632500D01*
X9428386Y-13618214D01*
X9471243Y-13618214D01*
X9499814Y-13632500D01*
X9514100Y-13661071D01*
X9514100Y-13818214D01*
X9514100Y-13661071D02*
X9528386Y-13632500D01*
X9556957Y-13618214D01*
X9599814Y-13618214D01*
X9628386Y-13632500D01*
X9642671Y-13661071D01*
X9642671Y-13818214D01*
X10228386Y-13503929D02*
X9971243Y-13889643D01*
X10614100Y-13518214D02*
X10642671Y-13518214D01*
X10671243Y-13532500D01*
X10685528Y-13546786D01*
X10699814Y-13575357D01*
X10714100Y-13632500D01*
X10714100Y-13703929D01*
X10699814Y-13761071D01*
X10685528Y-13789643D01*
X10671243Y-13803929D01*
X10642671Y-13818214D01*
X10614100Y-13818214D01*
X10585528Y-13803929D01*
X10571243Y-13789643D01*
X10556957Y-13761071D01*
X10542671Y-13703929D01*
X10542671Y-13632500D01*
X10556957Y-13575357D01*
X10571243Y-13546786D01*
X10585528Y-13532500D01*
X10614100Y-13518214D01*
X10842671Y-13789643D02*
X10856957Y-13803929D01*
X10842671Y-13818214D01*
X10828386Y-13803929D01*
X10842671Y-13789643D01*
X10842671Y-13818214D01*
X11042671Y-13518214D02*
X11071243Y-13518214D01*
X11099814Y-13532500D01*
X11114100Y-13546786D01*
X11128386Y-13575357D01*
X11142671Y-13632500D01*
X11142671Y-13703929D01*
X11128386Y-13761071D01*
X11114100Y-13789643D01*
X11099814Y-13803929D01*
X11071243Y-13818214D01*
X11042671Y-13818214D01*
X11014100Y-13803929D01*
X10999814Y-13789643D01*
X10985528Y-13761071D01*
X10971243Y-13703929D01*
X10971243Y-13632500D01*
X10985528Y-13575357D01*
X10999814Y-13546786D01*
X11014100Y-13532500D01*
X11042671Y-13518214D01*
X11399814Y-13618214D02*
X11399814Y-13818214D01*
X11328385Y-13503929D02*
X11256957Y-13718214D01*
X11442671Y-13718214D01*
X11614100Y-13518214D02*
X11642671Y-13518214D01*
X11671243Y-13532500D01*
X11685528Y-13546786D01*
X11699814Y-13575357D01*
X11714100Y-13632500D01*
X11714100Y-13703929D01*
X11699814Y-13761071D01*
X11685528Y-13789643D01*
X11671243Y-13803929D01*
X11642671Y-13818214D01*
X11614100Y-13818214D01*
X11585528Y-13803929D01*
X11571243Y-13789643D01*
X11556957Y-13761071D01*
X11542671Y-13703929D01*
X11542671Y-13632500D01*
X11556957Y-13575357D01*
X11571243Y-13546786D01*
X11585528Y-13532500D01*
X11614100Y-13518214D01*
X11828386Y-13518214D02*
X11828386Y-13575357D01*
X11942671Y-13518214D02*
X11942671Y-13575357D01*
X12385528Y-13932500D02*
X12371243Y-13918214D01*
X12342671Y-13875357D01*
X12328385Y-13846786D01*
X12314100Y-13803929D01*
X12299814Y-13732500D01*
X12299814Y-13675357D01*
X12314100Y-13603929D01*
X12328385Y-13561071D01*
X12342671Y-13532500D01*
X12371243Y-13489643D01*
X12385528Y-13475357D01*
X12485528Y-13546786D02*
X12499814Y-13532500D01*
X12528385Y-13518214D01*
X12599814Y-13518214D01*
X12628385Y-13532500D01*
X12642671Y-13546786D01*
X12656957Y-13575357D01*
X12656957Y-13603929D01*
X12642671Y-13646786D01*
X12471243Y-13818214D01*
X12656957Y-13818214D01*
X12842671Y-13518214D02*
X12871243Y-13518214D01*
X12899814Y-13532500D01*
X12914100Y-13546786D01*
X12928385Y-13575357D01*
X12942671Y-13632500D01*
X12942671Y-13703929D01*
X12928385Y-13761071D01*
X12914100Y-13789643D01*
X12899814Y-13803929D01*
X12871243Y-13818214D01*
X12842671Y-13818214D01*
X12814100Y-13803929D01*
X12799814Y-13789643D01*
X12785528Y-13761071D01*
X12771243Y-13703929D01*
X12771243Y-13632500D01*
X12785528Y-13575357D01*
X12799814Y-13546786D01*
X12814100Y-13532500D01*
X12842671Y-13518214D01*
X13299814Y-13818214D02*
X13299814Y-13518214D01*
X13428385Y-13818214D02*
X13428385Y-13661071D01*
X13414100Y-13632500D01*
X13385528Y-13618214D01*
X13342671Y-13618214D01*
X13314100Y-13632500D01*
X13299814Y-13646786D01*
X13614100Y-13818214D02*
X13585528Y-13803929D01*
X13571243Y-13789643D01*
X13556957Y-13761071D01*
X13556957Y-13675357D01*
X13571243Y-13646786D01*
X13585528Y-13632500D01*
X13614100Y-13618214D01*
X13656957Y-13618214D01*
X13685528Y-13632500D01*
X13699814Y-13646786D01*
X13714100Y-13675357D01*
X13714100Y-13761071D01*
X13699814Y-13789643D01*
X13685528Y-13803929D01*
X13656957Y-13818214D01*
X13614100Y-13818214D01*
X13885528Y-13818214D02*
X13856957Y-13803929D01*
X13842671Y-13775357D01*
X13842671Y-13518214D01*
X14114100Y-13803929D02*
X14085528Y-13818214D01*
X14028386Y-13818214D01*
X13999814Y-13803929D01*
X13985528Y-13775357D01*
X13985528Y-13661071D01*
X13999814Y-13632500D01*
X14028386Y-13618214D01*
X14085528Y-13618214D01*
X14114100Y-13632500D01*
X14128386Y-13661071D01*
X14128386Y-13689643D01*
X13985528Y-13718214D01*
X14242671Y-13803929D02*
X14271243Y-13818214D01*
X14328386Y-13818214D01*
X14356957Y-13803929D01*
X14371243Y-13775357D01*
X14371243Y-13761071D01*
X14356957Y-13732500D01*
X14328386Y-13718214D01*
X14285528Y-13718214D01*
X14256957Y-13703929D01*
X14242671Y-13675357D01*
X14242671Y-13661071D01*
X14256957Y-13632500D01*
X14285528Y-13618214D01*
X14328386Y-13618214D01*
X14356957Y-13632500D01*
X14471243Y-13932500D02*
X14485528Y-13918214D01*
X14514100Y-13875357D01*
X14528386Y-13846786D01*
X14542671Y-13803929D01*
X14556957Y-13732500D01*
X14556957Y-13675357D01*
X14542671Y-13603929D01*
X14528386Y-13561071D01*
X14514100Y-13532500D01*
X14485528Y-13489643D01*
X14471243Y-13475357D01*
M02*
