G04 #@! TF.FileFunction,Paste,Top*
%FSLAX46Y46*%
G04 Gerber Fmt 4.6, Leading zero omitted, Abs format (unit mm)*
G04 Created by KiCad (PCBNEW 4.0.5) date 01/03/18 17:15:43*
%MOMM*%
%LPD*%
G01*
G04 APERTURE LIST*
%ADD10C,0.100000*%
%ADD11R,0.750000X0.800000*%
%ADD12R,0.800000X0.750000*%
%ADD13R,0.800000X0.800000*%
%ADD14R,2.030000X1.140000*%
%ADD15R,0.700000X1.300000*%
%ADD16R,1.350000X0.400000*%
%ADD17R,1.600000X2.100000*%
%ADD18R,1.900000X1.900000*%
%ADD19R,1.900000X1.800000*%
%ADD20R,0.900000X0.500000*%
%ADD21R,0.500000X0.900000*%
%ADD22R,0.250000X0.700000*%
%ADD23R,0.700000X0.250000*%
%ADD24R,2.750000X2.750000*%
%ADD25R,0.200000X0.750000*%
%ADD26R,0.750000X0.200000*%
%ADD27R,0.290000X1.000000*%
%ADD28R,1.000000X0.290000*%
%ADD29R,0.650000X0.400000*%
%ADD30R,0.500000X0.325000*%
G04 APERTURE END LIST*
D10*
D11*
X84201000Y-109081000D03*
X84201000Y-107581000D03*
X85598000Y-109081000D03*
X85598000Y-107581000D03*
X88265000Y-110478000D03*
X88265000Y-108978000D03*
X86868000Y-110478000D03*
X86868000Y-108978000D03*
D12*
X94984000Y-97409000D03*
X93484000Y-97409000D03*
X93738000Y-104521000D03*
X95238000Y-104521000D03*
X93738000Y-107569000D03*
X95238000Y-107569000D03*
D13*
X91948000Y-111544000D03*
X91948000Y-109944000D03*
X94742000Y-111544000D03*
X94742000Y-109944000D03*
X97536000Y-111544000D03*
X97536000Y-109944000D03*
X81089500Y-95986500D03*
X81089500Y-94386500D03*
D14*
X81089500Y-97606000D03*
X81089500Y-100006000D03*
D15*
X94935000Y-106045000D03*
X96835000Y-106045000D03*
D16*
X82431000Y-105791000D03*
X82431000Y-105141000D03*
X82431000Y-107091000D03*
X82431000Y-106441000D03*
X82431000Y-104491000D03*
D17*
X82306000Y-108891000D03*
X82306000Y-102691000D03*
D18*
X79756000Y-106991000D03*
X79756000Y-104591000D03*
D19*
X79756000Y-109591000D03*
X79756000Y-101991000D03*
D20*
X90551000Y-111252000D03*
X90551000Y-109752000D03*
X93345000Y-111240000D03*
X93345000Y-109740000D03*
X96139000Y-111240000D03*
X96139000Y-109740000D03*
X81089500Y-93206000D03*
X81089500Y-91706000D03*
D21*
X83451000Y-98044000D03*
X84951000Y-98044000D03*
X84340000Y-100330000D03*
X85840000Y-100330000D03*
X84340000Y-101854000D03*
X85840000Y-101854000D03*
X84340000Y-103378000D03*
X85840000Y-103378000D03*
X92444000Y-100330000D03*
X90944000Y-100330000D03*
X94984000Y-101219000D03*
X93484000Y-101219000D03*
X92444000Y-102108000D03*
X90944000Y-102108000D03*
X94984000Y-102997000D03*
X93484000Y-102997000D03*
X94984000Y-98806000D03*
X93484000Y-98806000D03*
D20*
X94234000Y-91706000D03*
X94234000Y-93206000D03*
X92710000Y-91706000D03*
X92710000Y-93206000D03*
X91186000Y-91706000D03*
X91186000Y-93206000D03*
X89662000Y-91706000D03*
X89662000Y-93206000D03*
X88138000Y-91706000D03*
X88138000Y-93206000D03*
X86614000Y-91706000D03*
X86614000Y-93206000D03*
X85090000Y-91706000D03*
X85090000Y-93206000D03*
X83566000Y-91706000D03*
X83566000Y-93206000D03*
X97155000Y-102818500D03*
X97155000Y-104318500D03*
X98679000Y-104318500D03*
X98679000Y-102818500D03*
D22*
X90150000Y-103562000D03*
D23*
X90875000Y-106787000D03*
D22*
X87650000Y-107512000D03*
D23*
X86925000Y-104287000D03*
X86925000Y-104787000D03*
X86925000Y-105287000D03*
X86925000Y-105787000D03*
X86925000Y-106287000D03*
X86925000Y-106787000D03*
D22*
X88150000Y-107512000D03*
X88650000Y-107512000D03*
X89150000Y-107512000D03*
X89650000Y-107512000D03*
X90150000Y-107512000D03*
D23*
X90875000Y-106287000D03*
X90875000Y-105787000D03*
X90875000Y-105287000D03*
X90875000Y-104787000D03*
X90875000Y-104287000D03*
D22*
X89650000Y-103562000D03*
X89150000Y-103562000D03*
X88650000Y-103562000D03*
X88150000Y-103562000D03*
X87650000Y-103562000D03*
D24*
X88900000Y-105537000D03*
D25*
X92964000Y-106770000D03*
X92964000Y-105320000D03*
D26*
X92239000Y-106045000D03*
X93689000Y-105645000D03*
X92239000Y-106445000D03*
X93689000Y-106445000D03*
X93689000Y-106045000D03*
X92239000Y-105645000D03*
D27*
X90650000Y-96186000D03*
X90650000Y-98886000D03*
D28*
X86650000Y-97286000D03*
X91150000Y-97786000D03*
X91150000Y-97286000D03*
D29*
X88212500Y-97536000D03*
X89587500Y-97536000D03*
D28*
X86650000Y-97786000D03*
D27*
X90150000Y-98886000D03*
X89650000Y-98886000D03*
X89150000Y-98886000D03*
X88650000Y-98886000D03*
X88150000Y-98886000D03*
X87650000Y-98886000D03*
X87150000Y-98886000D03*
X90150000Y-96186000D03*
X89650000Y-96186000D03*
X89150000Y-96186000D03*
X88650000Y-96186000D03*
X88150000Y-96186000D03*
X87650000Y-96186000D03*
X87150000Y-96186000D03*
D30*
X85252000Y-89654000D03*
X86452000Y-89654000D03*
X86452000Y-89154000D03*
X86452000Y-88654000D03*
X85252000Y-89154000D03*
X85252000Y-88654000D03*
X91348000Y-89654000D03*
X92548000Y-89654000D03*
X92548000Y-89154000D03*
X92548000Y-88654000D03*
X91348000Y-89154000D03*
X91348000Y-88654000D03*
X85563000Y-105037000D03*
X84363000Y-105037000D03*
X84363000Y-105537000D03*
X84363000Y-106037000D03*
X85563000Y-105537000D03*
X85563000Y-106037000D03*
M02*
