G04 #@! TF.FileFunction,Copper,L2,Bot,Signal*
%FSLAX46Y46*%
G04 Gerber Fmt 4.6, Leading zero omitted, Abs format (unit mm)*
G04 Created by KiCad (PCBNEW 4.0.5) date 01/03/18 17:15:43*
%MOMM*%
%LPD*%
G01*
G04 APERTURE LIST*
%ADD10C,0.100000*%
%ADD11C,0.381000*%
%ADD12R,1.727200X1.727200*%
%ADD13O,1.727200X1.727200*%
%ADD14C,1.500000*%
%ADD15C,0.406400*%
%ADD16C,0.152400*%
%ADD17C,0.254000*%
G04 APERTURE END LIST*
D10*
D11*
X95885000Y-90556080D02*
X95885000Y-90954860D01*
X96586040Y-91754960D02*
X95285560Y-91754960D01*
X95384620Y-92057220D02*
X96586040Y-92057220D01*
X96685100Y-92356940D02*
X95384620Y-92356940D01*
X95885000Y-92755720D02*
X95885000Y-94056200D01*
X95785940Y-94256860D02*
X95585280Y-94256860D01*
X95585280Y-94256860D02*
X95585280Y-92656660D01*
X96184720Y-92755720D02*
X96184720Y-94256860D01*
X96184720Y-94256860D02*
X95684340Y-94256860D01*
X96685100Y-91455240D02*
X95183960Y-91455240D01*
X95183960Y-91455240D02*
X95183960Y-92656660D01*
X95183960Y-92656660D02*
X96685100Y-92656660D01*
X96685100Y-92656660D02*
X96685100Y-91455240D01*
X96200666Y-90756740D02*
G75*
G03X96200666Y-90756740I-315666J0D01*
G01*
X95885000Y-89956640D02*
X95984060Y-89956640D01*
X95984060Y-89956640D02*
X96586040Y-90055700D01*
X96586040Y-90055700D02*
X97083880Y-90256360D01*
X97083880Y-90256360D02*
X97584260Y-90655140D01*
X97584260Y-90655140D02*
X98084640Y-91257120D01*
X98084640Y-91257120D02*
X98285300Y-91655900D01*
X98285300Y-91655900D02*
X98384360Y-92156280D01*
X98384360Y-92156280D02*
X98384360Y-92755720D01*
X98384360Y-92755720D02*
X98186240Y-93555820D01*
X98186240Y-93555820D02*
X97584260Y-94256860D01*
X97584260Y-94256860D02*
X97083880Y-94655640D01*
X97083880Y-94655640D02*
X96385380Y-94955360D01*
X96385380Y-94955360D02*
X95585280Y-94955360D01*
X95585280Y-94955360D02*
X94985840Y-94757240D01*
X94985840Y-94757240D02*
X94383860Y-94454980D01*
X94383860Y-94454980D02*
X93886020Y-93957140D01*
X93886020Y-93957140D02*
X93484700Y-93256100D01*
X93484700Y-93256100D02*
X93385640Y-92656660D01*
X93385640Y-92656660D02*
X93385640Y-92057220D01*
X93385640Y-92057220D02*
X93583760Y-91455240D01*
X93583760Y-91455240D02*
X93886020Y-90954860D01*
X93886020Y-90954860D02*
X94383860Y-90457020D01*
X94383860Y-90457020D02*
X94884240Y-90154760D01*
X94884240Y-90154760D02*
X95285560Y-90055700D01*
X95285560Y-90055700D02*
X95885000Y-89956640D01*
D12*
X93980000Y-115824000D03*
D13*
X93980000Y-118364000D03*
X91440000Y-115824000D03*
X91440000Y-118364000D03*
X88900000Y-115824000D03*
X88900000Y-118364000D03*
X86360000Y-115824000D03*
X86360000Y-118364000D03*
X83820000Y-115824000D03*
X83820000Y-118364000D03*
D12*
X93980000Y-81026000D03*
D13*
X93980000Y-83566000D03*
X91440000Y-81026000D03*
X91440000Y-83566000D03*
X88900000Y-81026000D03*
X88900000Y-83566000D03*
X86360000Y-81026000D03*
X86360000Y-83566000D03*
X83820000Y-81026000D03*
X83820000Y-83566000D03*
D14*
X86360000Y-113093500D03*
X91376500Y-113093500D03*
X83820000Y-113157000D03*
X82994500Y-108331000D03*
X83502500Y-95948500D03*
X98425000Y-99504500D03*
D15*
X97917000Y-103568500D03*
X94493602Y-104521000D03*
X94482398Y-107569000D03*
X81089500Y-90551000D03*
X93472000Y-88011000D03*
X86868000Y-111506000D03*
X84201000Y-110426500D03*
X88900000Y-105537000D03*
X88900000Y-97536000D03*
X87122000Y-88011000D03*
X84899500Y-108331000D03*
X92710000Y-95758000D03*
X84201000Y-98044000D03*
X97155000Y-102818500D03*
X96202500Y-88011000D03*
X90043000Y-88011000D03*
X82042000Y-88011000D03*
X84391500Y-88011000D03*
X86365400Y-105287000D03*
X81280000Y-105791000D03*
X86106000Y-106680000D03*
X81280000Y-105156000D03*
X89776313Y-108839000D03*
X89217500Y-108839000D03*
X90424000Y-108839000D03*
X88201500Y-108204000D03*
X87150000Y-100330000D03*
X85090000Y-100330000D03*
X87650000Y-101219000D03*
X85090000Y-101854000D03*
X88150000Y-102108000D03*
X85090000Y-103378000D03*
X88646000Y-100330000D03*
X91694000Y-100330000D03*
X89150000Y-101219000D03*
X94234000Y-101219000D03*
X91694000Y-102108000D03*
X89650000Y-102108000D03*
D16*
X88104632Y-89281000D02*
X91059000Y-89281000D01*
X87122000Y-88011000D02*
X87122000Y-88298368D01*
X87122000Y-88298368D02*
X88104632Y-89281000D01*
X82994500Y-108331000D02*
X84899500Y-108331000D01*
D17*
X84201000Y-97028000D02*
X85471000Y-95758000D01*
X85471000Y-95758000D02*
X92710000Y-95758000D01*
X84201000Y-98044000D02*
X84201000Y-97028000D01*
D16*
X84201000Y-98044000D02*
X84201000Y-96647000D01*
X84201000Y-96647000D02*
X83502500Y-95948500D01*
X98425000Y-99504500D02*
X98425000Y-101548500D01*
X98425000Y-101548500D02*
X97155000Y-102818500D01*
X90043000Y-88011000D02*
X92011500Y-86042500D01*
X92011500Y-86042500D02*
X94234000Y-86042500D01*
X94234000Y-86042500D02*
X96202500Y-88011000D01*
X84391500Y-88011000D02*
X82042000Y-88011000D01*
X81280000Y-105791000D02*
X85861400Y-105791000D01*
X85861400Y-105791000D02*
X86365400Y-105287000D01*
X81280000Y-105156000D02*
X80848199Y-105587801D01*
X80848199Y-105587801D02*
X80848199Y-105998265D01*
X80848199Y-105998265D02*
X81529934Y-106680000D01*
X81529934Y-106680000D02*
X86106000Y-106680000D01*
X91376500Y-113093500D02*
X90170000Y-114300000D01*
X90170000Y-114300000D02*
X90170000Y-117094000D01*
X90170000Y-117094000D02*
X90576401Y-117500401D01*
X90576401Y-117500401D02*
X91440000Y-118364000D01*
X89979512Y-109042199D02*
X89776313Y-108839000D01*
X90170000Y-109232687D02*
X89979512Y-109042199D01*
X90170000Y-117094000D02*
X90170000Y-109232687D01*
X91440000Y-118364000D02*
X90170000Y-117094000D01*
X86360000Y-113093500D02*
X86360000Y-114154160D01*
X86360000Y-114154160D02*
X86360000Y-115824000D01*
X89217500Y-112966500D02*
X89217500Y-109126368D01*
X86360000Y-115824000D02*
X89217500Y-112966500D01*
X89217500Y-109126368D02*
X89217500Y-108839000D01*
X88201500Y-108204000D02*
X89789000Y-108204000D01*
X89789000Y-108204000D02*
X90424000Y-108839000D01*
X85090000Y-100330000D02*
X87150000Y-100330000D01*
X85090000Y-101854000D02*
X87015000Y-101854000D01*
X87015000Y-101854000D02*
X87650000Y-101219000D01*
X85090000Y-103378000D02*
X86880000Y-103378000D01*
X86880000Y-103378000D02*
X88150000Y-102108000D01*
X91694000Y-100330000D02*
X88646000Y-100330000D01*
X94234000Y-101219000D02*
X89150000Y-101219000D01*
X89650000Y-102108000D02*
X91694000Y-102108000D01*
D17*
G36*
X98552000Y-90527971D02*
X98219085Y-90127459D01*
X98153351Y-90074198D01*
X98098746Y-90009575D01*
X97598366Y-89610795D01*
X97492336Y-89556061D01*
X97392483Y-89490713D01*
X96894642Y-89290053D01*
X96805243Y-89273157D01*
X96720079Y-89241155D01*
X96118099Y-89142095D01*
X96050448Y-89144345D01*
X95984060Y-89131140D01*
X95885000Y-89131140D01*
X95818339Y-89144400D01*
X95750408Y-89142186D01*
X95150968Y-89241246D01*
X95120383Y-89252763D01*
X95087735Y-89254254D01*
X94686415Y-89353314D01*
X94574082Y-89405972D01*
X94457415Y-89448169D01*
X93957036Y-89750429D01*
X93883232Y-89817785D01*
X93800143Y-89873303D01*
X93302303Y-90371143D01*
X93246787Y-90454229D01*
X93179428Y-90528036D01*
X92877169Y-91028416D01*
X92845475Y-91116043D01*
X92799635Y-91197174D01*
X92601515Y-91799154D01*
X92585652Y-91928960D01*
X92560140Y-92057220D01*
X92560140Y-92656660D01*
X92573400Y-92723321D01*
X92571186Y-92791252D01*
X92670246Y-93390692D01*
X92721786Y-93527568D01*
X92768285Y-93666222D01*
X93169605Y-94367262D01*
X93241481Y-94449831D01*
X93302303Y-94540857D01*
X93800143Y-95038697D01*
X93909598Y-95111833D01*
X94013441Y-95192706D01*
X94615421Y-95494966D01*
X94673959Y-95511103D01*
X94726788Y-95541040D01*
X95326228Y-95739160D01*
X95456521Y-95755248D01*
X95585280Y-95780860D01*
X96385380Y-95780860D01*
X96390588Y-95779824D01*
X96395807Y-95780794D01*
X96548307Y-95748452D01*
X96701285Y-95718023D01*
X96705701Y-95715072D01*
X96710893Y-95713971D01*
X97409393Y-95414252D01*
X97500341Y-95351806D01*
X97598366Y-95301205D01*
X98098746Y-94902425D01*
X98149120Y-94842808D01*
X98210546Y-94794649D01*
X98552000Y-94397006D01*
X98552000Y-98119610D01*
X98150715Y-98119260D01*
X97641485Y-98329669D01*
X97251539Y-98718936D01*
X97040241Y-99227798D01*
X97039760Y-99778785D01*
X97250169Y-100288015D01*
X97639436Y-100677961D01*
X97713800Y-100708840D01*
X97713800Y-101253911D01*
X96986538Y-101981173D01*
X96680818Y-102107495D01*
X96444823Y-102343078D01*
X96316946Y-102651040D01*
X96316655Y-102984497D01*
X96443995Y-103292682D01*
X96679578Y-103528677D01*
X96987540Y-103656554D01*
X97320997Y-103656845D01*
X97629182Y-103529505D01*
X97865177Y-103293922D01*
X97992859Y-102986429D01*
X98552000Y-102427289D01*
X98552000Y-121158000D01*
X79248000Y-121158000D01*
X79248000Y-118364000D01*
X82292041Y-118364000D01*
X82406115Y-118937489D01*
X82730971Y-119423670D01*
X83217152Y-119748526D01*
X83790641Y-119862600D01*
X83849359Y-119862600D01*
X84422848Y-119748526D01*
X84909029Y-119423670D01*
X85090000Y-119152828D01*
X85270971Y-119423670D01*
X85757152Y-119748526D01*
X86330641Y-119862600D01*
X86389359Y-119862600D01*
X86962848Y-119748526D01*
X87449029Y-119423670D01*
X87630000Y-119152828D01*
X87810971Y-119423670D01*
X88297152Y-119748526D01*
X88870641Y-119862600D01*
X88929359Y-119862600D01*
X89502848Y-119748526D01*
X89989029Y-119423670D01*
X90170000Y-119152828D01*
X90350971Y-119423670D01*
X90837152Y-119748526D01*
X91410641Y-119862600D01*
X91469359Y-119862600D01*
X92042848Y-119748526D01*
X92529029Y-119423670D01*
X92709992Y-119152839D01*
X93091510Y-119570821D01*
X93620973Y-119818968D01*
X93853000Y-119698469D01*
X93853000Y-118491000D01*
X94107000Y-118491000D01*
X94107000Y-119698469D01*
X94339027Y-119818968D01*
X94868490Y-119570821D01*
X95262688Y-119138947D01*
X95434958Y-118723026D01*
X95313817Y-118491000D01*
X94107000Y-118491000D01*
X93853000Y-118491000D01*
X93833000Y-118491000D01*
X93833000Y-118237000D01*
X93853000Y-118237000D01*
X93853000Y-118217000D01*
X94107000Y-118217000D01*
X94107000Y-118237000D01*
X95313817Y-118237000D01*
X95434958Y-118004974D01*
X95262688Y-117589053D01*
X95003391Y-117304973D01*
X95078917Y-117290762D01*
X95295041Y-117151690D01*
X95440031Y-116939490D01*
X95491040Y-116687600D01*
X95491040Y-114960400D01*
X95446762Y-114725083D01*
X95307690Y-114508959D01*
X95095490Y-114363969D01*
X94843600Y-114312960D01*
X93116400Y-114312960D01*
X92881083Y-114357238D01*
X92664959Y-114496310D01*
X92519969Y-114708510D01*
X92500338Y-114805451D01*
X92328490Y-114617179D01*
X91853974Y-114394784D01*
X92160015Y-114268331D01*
X92549961Y-113879064D01*
X92761259Y-113370202D01*
X92761740Y-112819215D01*
X92551331Y-112309985D01*
X92162064Y-111920039D01*
X91653202Y-111708741D01*
X91102215Y-111708260D01*
X90881200Y-111799581D01*
X90881200Y-109557022D01*
X90898182Y-109550005D01*
X91134177Y-109314422D01*
X91262054Y-109006460D01*
X91262345Y-108673003D01*
X91135005Y-108364818D01*
X90899422Y-108128823D01*
X90591929Y-108001141D01*
X90291894Y-107701106D01*
X90061165Y-107546937D01*
X89789000Y-107492800D01*
X88674458Y-107492800D01*
X88368960Y-107365946D01*
X88035503Y-107365655D01*
X87727318Y-107492995D01*
X87491323Y-107728578D01*
X87363446Y-108036540D01*
X87363155Y-108369997D01*
X87490495Y-108678182D01*
X87726078Y-108914177D01*
X88034040Y-109042054D01*
X88367497Y-109042345D01*
X88390636Y-109032784D01*
X88506300Y-109312710D01*
X88506300Y-112671911D01*
X87699845Y-113478366D01*
X87744759Y-113370202D01*
X87745240Y-112819215D01*
X87534831Y-112309985D01*
X87145564Y-111920039D01*
X86636702Y-111708741D01*
X86085715Y-111708260D01*
X85576485Y-111918669D01*
X85186539Y-112307936D01*
X85083455Y-112556190D01*
X85032460Y-112433077D01*
X84791517Y-112365088D01*
X83999605Y-113157000D01*
X84791517Y-113948912D01*
X85032460Y-113880923D01*
X85103873Y-113680263D01*
X85185169Y-113877015D01*
X85574436Y-114266961D01*
X85648800Y-114297840D01*
X85648800Y-114511873D01*
X85270971Y-114764330D01*
X85090008Y-115035161D01*
X84708490Y-114617179D01*
X84350705Y-114449494D01*
X84543923Y-114369460D01*
X84611912Y-114128517D01*
X83820000Y-113336605D01*
X83028088Y-114128517D01*
X83096077Y-114369460D01*
X83302961Y-114443088D01*
X82931510Y-114617179D01*
X82537312Y-115049053D01*
X82365042Y-115464974D01*
X82486183Y-115697000D01*
X83693000Y-115697000D01*
X83693000Y-115677000D01*
X83947000Y-115677000D01*
X83947000Y-115697000D01*
X83967000Y-115697000D01*
X83967000Y-115951000D01*
X83947000Y-115951000D01*
X83947000Y-115971000D01*
X83693000Y-115971000D01*
X83693000Y-115951000D01*
X82486183Y-115951000D01*
X82365042Y-116183026D01*
X82537312Y-116598947D01*
X82931510Y-117030821D01*
X83054228Y-117088336D01*
X82730971Y-117304330D01*
X82406115Y-117790511D01*
X82292041Y-118364000D01*
X79248000Y-118364000D01*
X79248000Y-112952171D01*
X82422799Y-112952171D01*
X82450770Y-113502448D01*
X82607540Y-113880923D01*
X82848483Y-113948912D01*
X83640395Y-113157000D01*
X82848483Y-112365088D01*
X82607540Y-112433077D01*
X82422799Y-112952171D01*
X79248000Y-112952171D01*
X79248000Y-112185483D01*
X83028088Y-112185483D01*
X83820000Y-112977395D01*
X84611912Y-112185483D01*
X84543923Y-111944540D01*
X84024829Y-111759799D01*
X83474552Y-111787770D01*
X83096077Y-111944540D01*
X83028088Y-112185483D01*
X79248000Y-112185483D01*
X79248000Y-105587801D01*
X80136999Y-105587801D01*
X80136999Y-105998265D01*
X80191136Y-106270430D01*
X80345305Y-106501159D01*
X81027040Y-107182894D01*
X81257769Y-107337063D01*
X81529934Y-107391200D01*
X81975544Y-107391200D01*
X81821039Y-107545436D01*
X81609741Y-108054298D01*
X81609260Y-108605285D01*
X81819669Y-109114515D01*
X82208936Y-109504461D01*
X82717798Y-109715759D01*
X83268785Y-109716240D01*
X83778015Y-109505831D01*
X84167961Y-109116564D01*
X84198840Y-109042200D01*
X84426542Y-109042200D01*
X84732040Y-109169054D01*
X85065497Y-109169345D01*
X85373682Y-109042005D01*
X85609677Y-108806422D01*
X85737554Y-108498460D01*
X85737845Y-108165003D01*
X85610505Y-107856818D01*
X85374922Y-107620823D01*
X85066960Y-107492946D01*
X84733503Y-107492655D01*
X84425790Y-107619800D01*
X84199211Y-107619800D01*
X84169331Y-107547485D01*
X84013318Y-107391200D01*
X85633042Y-107391200D01*
X85938540Y-107518054D01*
X86271997Y-107518345D01*
X86580182Y-107391005D01*
X86816177Y-107155422D01*
X86944054Y-106847460D01*
X86944345Y-106514003D01*
X86817005Y-106205818D01*
X86676728Y-106065295D01*
X86839582Y-105998005D01*
X87075577Y-105762422D01*
X87203454Y-105454460D01*
X87203745Y-105121003D01*
X87076405Y-104812818D01*
X86840822Y-104576823D01*
X86532860Y-104448946D01*
X86199403Y-104448655D01*
X85891218Y-104575995D01*
X85655223Y-104811578D01*
X85543847Y-105079800D01*
X82118267Y-105079800D01*
X82118345Y-104990003D01*
X81991005Y-104681818D01*
X81755422Y-104445823D01*
X81447460Y-104317946D01*
X81114003Y-104317655D01*
X80805818Y-104444995D01*
X80569823Y-104680578D01*
X80442141Y-104988071D01*
X80345305Y-105084907D01*
X80191136Y-105315636D01*
X80150717Y-105518835D01*
X80136999Y-105587801D01*
X79248000Y-105587801D01*
X79248000Y-100495997D01*
X84251655Y-100495997D01*
X84378995Y-100804182D01*
X84614578Y-101040177D01*
X84739308Y-101091970D01*
X84615818Y-101142995D01*
X84379823Y-101378578D01*
X84251946Y-101686540D01*
X84251655Y-102019997D01*
X84378995Y-102328182D01*
X84614578Y-102564177D01*
X84739308Y-102615970D01*
X84615818Y-102666995D01*
X84379823Y-102902578D01*
X84251946Y-103210540D01*
X84251655Y-103543997D01*
X84378995Y-103852182D01*
X84614578Y-104088177D01*
X84922540Y-104216054D01*
X85255997Y-104216345D01*
X85563710Y-104089200D01*
X86880000Y-104089200D01*
X87152165Y-104035063D01*
X87382894Y-103880894D01*
X88318462Y-102945326D01*
X88624182Y-102819005D01*
X88860177Y-102583422D01*
X88899940Y-102487662D01*
X88938995Y-102582182D01*
X89174578Y-102818177D01*
X89482540Y-102946054D01*
X89815997Y-102946345D01*
X90123710Y-102819200D01*
X91221042Y-102819200D01*
X91526540Y-102946054D01*
X91859997Y-102946345D01*
X92168182Y-102819005D01*
X92404177Y-102583422D01*
X92532054Y-102275460D01*
X92532345Y-101942003D01*
X92527468Y-101930200D01*
X93761042Y-101930200D01*
X94066540Y-102057054D01*
X94399997Y-102057345D01*
X94708182Y-101930005D01*
X94944177Y-101694422D01*
X95072054Y-101386460D01*
X95072345Y-101053003D01*
X94945005Y-100744818D01*
X94709422Y-100508823D01*
X94401460Y-100380946D01*
X94068003Y-100380655D01*
X93760290Y-100507800D01*
X92527760Y-100507800D01*
X92532054Y-100497460D01*
X92532345Y-100164003D01*
X92405005Y-99855818D01*
X92169422Y-99619823D01*
X91861460Y-99491946D01*
X91528003Y-99491655D01*
X91220290Y-99618800D01*
X89118958Y-99618800D01*
X88813460Y-99491946D01*
X88480003Y-99491655D01*
X88171818Y-99618995D01*
X87935823Y-99854578D01*
X87898065Y-99945510D01*
X87861005Y-99855818D01*
X87625422Y-99619823D01*
X87317460Y-99491946D01*
X86984003Y-99491655D01*
X86676290Y-99618800D01*
X85562958Y-99618800D01*
X85257460Y-99491946D01*
X84924003Y-99491655D01*
X84615818Y-99618995D01*
X84379823Y-99854578D01*
X84251946Y-100162540D01*
X84251655Y-100495997D01*
X79248000Y-100495997D01*
X79248000Y-96222785D01*
X82117260Y-96222785D01*
X82327669Y-96732015D01*
X82716936Y-97121961D01*
X83225798Y-97333259D01*
X83439000Y-97333445D01*
X83439000Y-97693382D01*
X83362946Y-97876540D01*
X83362655Y-98209997D01*
X83489995Y-98518182D01*
X83725578Y-98754177D01*
X84033540Y-98882054D01*
X84366997Y-98882345D01*
X84675182Y-98755005D01*
X84911177Y-98519422D01*
X85039054Y-98211460D01*
X85039345Y-97878003D01*
X84963000Y-97693235D01*
X84963000Y-97343630D01*
X85786631Y-96520000D01*
X92359382Y-96520000D01*
X92542540Y-96596054D01*
X92875997Y-96596345D01*
X93184182Y-96469005D01*
X93420177Y-96233422D01*
X93548054Y-95925460D01*
X93548345Y-95592003D01*
X93421005Y-95283818D01*
X93185422Y-95047823D01*
X92877460Y-94919946D01*
X92544003Y-94919655D01*
X92359235Y-94996000D01*
X85471000Y-94996000D01*
X85214632Y-95046995D01*
X85179395Y-95054004D01*
X84932184Y-95219185D01*
X84767692Y-95383677D01*
X84677331Y-95164985D01*
X84288064Y-94775039D01*
X83779202Y-94563741D01*
X83228215Y-94563260D01*
X82718985Y-94773669D01*
X82329039Y-95162936D01*
X82117741Y-95671798D01*
X82117260Y-96222785D01*
X79248000Y-96222785D01*
X79248000Y-88176997D01*
X81203655Y-88176997D01*
X81330995Y-88485182D01*
X81566578Y-88721177D01*
X81874540Y-88849054D01*
X82207997Y-88849345D01*
X82515710Y-88722200D01*
X83918542Y-88722200D01*
X84224040Y-88849054D01*
X84557497Y-88849345D01*
X84865682Y-88722005D01*
X85101677Y-88486422D01*
X85229554Y-88178460D01*
X85229555Y-88176997D01*
X89204655Y-88176997D01*
X89331995Y-88485182D01*
X89567578Y-88721177D01*
X89875540Y-88849054D01*
X90208997Y-88849345D01*
X90517182Y-88722005D01*
X90753177Y-88486422D01*
X90880859Y-88178929D01*
X92306089Y-86753700D01*
X93939412Y-86753700D01*
X95365174Y-88179463D01*
X95491495Y-88485182D01*
X95727078Y-88721177D01*
X96035040Y-88849054D01*
X96368497Y-88849345D01*
X96676682Y-88722005D01*
X96912677Y-88486422D01*
X97040554Y-88178460D01*
X97040845Y-87845003D01*
X96913505Y-87536818D01*
X96677922Y-87300823D01*
X96370430Y-87173141D01*
X94736894Y-85539606D01*
X94506165Y-85385437D01*
X94234000Y-85331300D01*
X92011500Y-85331300D01*
X91739336Y-85385437D01*
X91739334Y-85385438D01*
X91739335Y-85385438D01*
X91508605Y-85539606D01*
X89874539Y-87173673D01*
X89568818Y-87299995D01*
X89332823Y-87535578D01*
X89204946Y-87843540D01*
X89204655Y-88176997D01*
X85229555Y-88176997D01*
X85229845Y-87845003D01*
X85102505Y-87536818D01*
X84866922Y-87300823D01*
X84558960Y-87172946D01*
X84225503Y-87172655D01*
X83917790Y-87299800D01*
X82514958Y-87299800D01*
X82209460Y-87172946D01*
X81876003Y-87172655D01*
X81567818Y-87299995D01*
X81331823Y-87535578D01*
X81203946Y-87843540D01*
X81203655Y-88176997D01*
X79248000Y-88176997D01*
X79248000Y-81026000D01*
X82292041Y-81026000D01*
X82406115Y-81599489D01*
X82730971Y-82085670D01*
X83045752Y-82296000D01*
X82730971Y-82506330D01*
X82406115Y-82992511D01*
X82292041Y-83566000D01*
X82406115Y-84139489D01*
X82730971Y-84625670D01*
X83217152Y-84950526D01*
X83790641Y-85064600D01*
X83849359Y-85064600D01*
X84422848Y-84950526D01*
X84909029Y-84625670D01*
X85090000Y-84354828D01*
X85270971Y-84625670D01*
X85757152Y-84950526D01*
X86330641Y-85064600D01*
X86389359Y-85064600D01*
X86962848Y-84950526D01*
X87449029Y-84625670D01*
X87630000Y-84354828D01*
X87810971Y-84625670D01*
X88297152Y-84950526D01*
X88870641Y-85064600D01*
X88929359Y-85064600D01*
X89502848Y-84950526D01*
X89989029Y-84625670D01*
X90170000Y-84354828D01*
X90350971Y-84625670D01*
X90837152Y-84950526D01*
X91410641Y-85064600D01*
X91469359Y-85064600D01*
X92042848Y-84950526D01*
X92529029Y-84625670D01*
X92710000Y-84354828D01*
X92890971Y-84625670D01*
X93377152Y-84950526D01*
X93950641Y-85064600D01*
X94009359Y-85064600D01*
X94582848Y-84950526D01*
X95069029Y-84625670D01*
X95393885Y-84139489D01*
X95507959Y-83566000D01*
X95393885Y-82992511D01*
X95069029Y-82506330D01*
X95047977Y-82492263D01*
X95203298Y-82427927D01*
X95381927Y-82249299D01*
X95478600Y-82015910D01*
X95478600Y-81311750D01*
X95319850Y-81153000D01*
X94107000Y-81153000D01*
X94107000Y-81173000D01*
X93853000Y-81173000D01*
X93853000Y-81153000D01*
X93833000Y-81153000D01*
X93833000Y-80899000D01*
X93853000Y-80899000D01*
X93853000Y-79686150D01*
X94107000Y-79686150D01*
X94107000Y-80899000D01*
X95319850Y-80899000D01*
X95478600Y-80740250D01*
X95478600Y-80036090D01*
X95381927Y-79802701D01*
X95203298Y-79624073D01*
X94969909Y-79527400D01*
X94265750Y-79527400D01*
X94107000Y-79686150D01*
X93853000Y-79686150D01*
X93694250Y-79527400D01*
X92990091Y-79527400D01*
X92756702Y-79624073D01*
X92578073Y-79802701D01*
X92514356Y-79956526D01*
X92042848Y-79641474D01*
X91469359Y-79527400D01*
X91410641Y-79527400D01*
X90837152Y-79641474D01*
X90350971Y-79966330D01*
X90170000Y-80237172D01*
X89989029Y-79966330D01*
X89502848Y-79641474D01*
X88929359Y-79527400D01*
X88870641Y-79527400D01*
X88297152Y-79641474D01*
X87810971Y-79966330D01*
X87630000Y-80237172D01*
X87449029Y-79966330D01*
X86962848Y-79641474D01*
X86389359Y-79527400D01*
X86330641Y-79527400D01*
X85757152Y-79641474D01*
X85270971Y-79966330D01*
X85090000Y-80237172D01*
X84909029Y-79966330D01*
X84422848Y-79641474D01*
X83849359Y-79527400D01*
X83790641Y-79527400D01*
X83217152Y-79641474D01*
X82730971Y-79966330D01*
X82406115Y-80452511D01*
X82292041Y-81026000D01*
X79248000Y-81026000D01*
X79248000Y-78232000D01*
X98552000Y-78232000D01*
X98552000Y-90527971D01*
X98552000Y-90527971D01*
G37*
X98552000Y-90527971D02*
X98219085Y-90127459D01*
X98153351Y-90074198D01*
X98098746Y-90009575D01*
X97598366Y-89610795D01*
X97492336Y-89556061D01*
X97392483Y-89490713D01*
X96894642Y-89290053D01*
X96805243Y-89273157D01*
X96720079Y-89241155D01*
X96118099Y-89142095D01*
X96050448Y-89144345D01*
X95984060Y-89131140D01*
X95885000Y-89131140D01*
X95818339Y-89144400D01*
X95750408Y-89142186D01*
X95150968Y-89241246D01*
X95120383Y-89252763D01*
X95087735Y-89254254D01*
X94686415Y-89353314D01*
X94574082Y-89405972D01*
X94457415Y-89448169D01*
X93957036Y-89750429D01*
X93883232Y-89817785D01*
X93800143Y-89873303D01*
X93302303Y-90371143D01*
X93246787Y-90454229D01*
X93179428Y-90528036D01*
X92877169Y-91028416D01*
X92845475Y-91116043D01*
X92799635Y-91197174D01*
X92601515Y-91799154D01*
X92585652Y-91928960D01*
X92560140Y-92057220D01*
X92560140Y-92656660D01*
X92573400Y-92723321D01*
X92571186Y-92791252D01*
X92670246Y-93390692D01*
X92721786Y-93527568D01*
X92768285Y-93666222D01*
X93169605Y-94367262D01*
X93241481Y-94449831D01*
X93302303Y-94540857D01*
X93800143Y-95038697D01*
X93909598Y-95111833D01*
X94013441Y-95192706D01*
X94615421Y-95494966D01*
X94673959Y-95511103D01*
X94726788Y-95541040D01*
X95326228Y-95739160D01*
X95456521Y-95755248D01*
X95585280Y-95780860D01*
X96385380Y-95780860D01*
X96390588Y-95779824D01*
X96395807Y-95780794D01*
X96548307Y-95748452D01*
X96701285Y-95718023D01*
X96705701Y-95715072D01*
X96710893Y-95713971D01*
X97409393Y-95414252D01*
X97500341Y-95351806D01*
X97598366Y-95301205D01*
X98098746Y-94902425D01*
X98149120Y-94842808D01*
X98210546Y-94794649D01*
X98552000Y-94397006D01*
X98552000Y-98119610D01*
X98150715Y-98119260D01*
X97641485Y-98329669D01*
X97251539Y-98718936D01*
X97040241Y-99227798D01*
X97039760Y-99778785D01*
X97250169Y-100288015D01*
X97639436Y-100677961D01*
X97713800Y-100708840D01*
X97713800Y-101253911D01*
X96986538Y-101981173D01*
X96680818Y-102107495D01*
X96444823Y-102343078D01*
X96316946Y-102651040D01*
X96316655Y-102984497D01*
X96443995Y-103292682D01*
X96679578Y-103528677D01*
X96987540Y-103656554D01*
X97320997Y-103656845D01*
X97629182Y-103529505D01*
X97865177Y-103293922D01*
X97992859Y-102986429D01*
X98552000Y-102427289D01*
X98552000Y-121158000D01*
X79248000Y-121158000D01*
X79248000Y-118364000D01*
X82292041Y-118364000D01*
X82406115Y-118937489D01*
X82730971Y-119423670D01*
X83217152Y-119748526D01*
X83790641Y-119862600D01*
X83849359Y-119862600D01*
X84422848Y-119748526D01*
X84909029Y-119423670D01*
X85090000Y-119152828D01*
X85270971Y-119423670D01*
X85757152Y-119748526D01*
X86330641Y-119862600D01*
X86389359Y-119862600D01*
X86962848Y-119748526D01*
X87449029Y-119423670D01*
X87630000Y-119152828D01*
X87810971Y-119423670D01*
X88297152Y-119748526D01*
X88870641Y-119862600D01*
X88929359Y-119862600D01*
X89502848Y-119748526D01*
X89989029Y-119423670D01*
X90170000Y-119152828D01*
X90350971Y-119423670D01*
X90837152Y-119748526D01*
X91410641Y-119862600D01*
X91469359Y-119862600D01*
X92042848Y-119748526D01*
X92529029Y-119423670D01*
X92709992Y-119152839D01*
X93091510Y-119570821D01*
X93620973Y-119818968D01*
X93853000Y-119698469D01*
X93853000Y-118491000D01*
X94107000Y-118491000D01*
X94107000Y-119698469D01*
X94339027Y-119818968D01*
X94868490Y-119570821D01*
X95262688Y-119138947D01*
X95434958Y-118723026D01*
X95313817Y-118491000D01*
X94107000Y-118491000D01*
X93853000Y-118491000D01*
X93833000Y-118491000D01*
X93833000Y-118237000D01*
X93853000Y-118237000D01*
X93853000Y-118217000D01*
X94107000Y-118217000D01*
X94107000Y-118237000D01*
X95313817Y-118237000D01*
X95434958Y-118004974D01*
X95262688Y-117589053D01*
X95003391Y-117304973D01*
X95078917Y-117290762D01*
X95295041Y-117151690D01*
X95440031Y-116939490D01*
X95491040Y-116687600D01*
X95491040Y-114960400D01*
X95446762Y-114725083D01*
X95307690Y-114508959D01*
X95095490Y-114363969D01*
X94843600Y-114312960D01*
X93116400Y-114312960D01*
X92881083Y-114357238D01*
X92664959Y-114496310D01*
X92519969Y-114708510D01*
X92500338Y-114805451D01*
X92328490Y-114617179D01*
X91853974Y-114394784D01*
X92160015Y-114268331D01*
X92549961Y-113879064D01*
X92761259Y-113370202D01*
X92761740Y-112819215D01*
X92551331Y-112309985D01*
X92162064Y-111920039D01*
X91653202Y-111708741D01*
X91102215Y-111708260D01*
X90881200Y-111799581D01*
X90881200Y-109557022D01*
X90898182Y-109550005D01*
X91134177Y-109314422D01*
X91262054Y-109006460D01*
X91262345Y-108673003D01*
X91135005Y-108364818D01*
X90899422Y-108128823D01*
X90591929Y-108001141D01*
X90291894Y-107701106D01*
X90061165Y-107546937D01*
X89789000Y-107492800D01*
X88674458Y-107492800D01*
X88368960Y-107365946D01*
X88035503Y-107365655D01*
X87727318Y-107492995D01*
X87491323Y-107728578D01*
X87363446Y-108036540D01*
X87363155Y-108369997D01*
X87490495Y-108678182D01*
X87726078Y-108914177D01*
X88034040Y-109042054D01*
X88367497Y-109042345D01*
X88390636Y-109032784D01*
X88506300Y-109312710D01*
X88506300Y-112671911D01*
X87699845Y-113478366D01*
X87744759Y-113370202D01*
X87745240Y-112819215D01*
X87534831Y-112309985D01*
X87145564Y-111920039D01*
X86636702Y-111708741D01*
X86085715Y-111708260D01*
X85576485Y-111918669D01*
X85186539Y-112307936D01*
X85083455Y-112556190D01*
X85032460Y-112433077D01*
X84791517Y-112365088D01*
X83999605Y-113157000D01*
X84791517Y-113948912D01*
X85032460Y-113880923D01*
X85103873Y-113680263D01*
X85185169Y-113877015D01*
X85574436Y-114266961D01*
X85648800Y-114297840D01*
X85648800Y-114511873D01*
X85270971Y-114764330D01*
X85090008Y-115035161D01*
X84708490Y-114617179D01*
X84350705Y-114449494D01*
X84543923Y-114369460D01*
X84611912Y-114128517D01*
X83820000Y-113336605D01*
X83028088Y-114128517D01*
X83096077Y-114369460D01*
X83302961Y-114443088D01*
X82931510Y-114617179D01*
X82537312Y-115049053D01*
X82365042Y-115464974D01*
X82486183Y-115697000D01*
X83693000Y-115697000D01*
X83693000Y-115677000D01*
X83947000Y-115677000D01*
X83947000Y-115697000D01*
X83967000Y-115697000D01*
X83967000Y-115951000D01*
X83947000Y-115951000D01*
X83947000Y-115971000D01*
X83693000Y-115971000D01*
X83693000Y-115951000D01*
X82486183Y-115951000D01*
X82365042Y-116183026D01*
X82537312Y-116598947D01*
X82931510Y-117030821D01*
X83054228Y-117088336D01*
X82730971Y-117304330D01*
X82406115Y-117790511D01*
X82292041Y-118364000D01*
X79248000Y-118364000D01*
X79248000Y-112952171D01*
X82422799Y-112952171D01*
X82450770Y-113502448D01*
X82607540Y-113880923D01*
X82848483Y-113948912D01*
X83640395Y-113157000D01*
X82848483Y-112365088D01*
X82607540Y-112433077D01*
X82422799Y-112952171D01*
X79248000Y-112952171D01*
X79248000Y-112185483D01*
X83028088Y-112185483D01*
X83820000Y-112977395D01*
X84611912Y-112185483D01*
X84543923Y-111944540D01*
X84024829Y-111759799D01*
X83474552Y-111787770D01*
X83096077Y-111944540D01*
X83028088Y-112185483D01*
X79248000Y-112185483D01*
X79248000Y-105587801D01*
X80136999Y-105587801D01*
X80136999Y-105998265D01*
X80191136Y-106270430D01*
X80345305Y-106501159D01*
X81027040Y-107182894D01*
X81257769Y-107337063D01*
X81529934Y-107391200D01*
X81975544Y-107391200D01*
X81821039Y-107545436D01*
X81609741Y-108054298D01*
X81609260Y-108605285D01*
X81819669Y-109114515D01*
X82208936Y-109504461D01*
X82717798Y-109715759D01*
X83268785Y-109716240D01*
X83778015Y-109505831D01*
X84167961Y-109116564D01*
X84198840Y-109042200D01*
X84426542Y-109042200D01*
X84732040Y-109169054D01*
X85065497Y-109169345D01*
X85373682Y-109042005D01*
X85609677Y-108806422D01*
X85737554Y-108498460D01*
X85737845Y-108165003D01*
X85610505Y-107856818D01*
X85374922Y-107620823D01*
X85066960Y-107492946D01*
X84733503Y-107492655D01*
X84425790Y-107619800D01*
X84199211Y-107619800D01*
X84169331Y-107547485D01*
X84013318Y-107391200D01*
X85633042Y-107391200D01*
X85938540Y-107518054D01*
X86271997Y-107518345D01*
X86580182Y-107391005D01*
X86816177Y-107155422D01*
X86944054Y-106847460D01*
X86944345Y-106514003D01*
X86817005Y-106205818D01*
X86676728Y-106065295D01*
X86839582Y-105998005D01*
X87075577Y-105762422D01*
X87203454Y-105454460D01*
X87203745Y-105121003D01*
X87076405Y-104812818D01*
X86840822Y-104576823D01*
X86532860Y-104448946D01*
X86199403Y-104448655D01*
X85891218Y-104575995D01*
X85655223Y-104811578D01*
X85543847Y-105079800D01*
X82118267Y-105079800D01*
X82118345Y-104990003D01*
X81991005Y-104681818D01*
X81755422Y-104445823D01*
X81447460Y-104317946D01*
X81114003Y-104317655D01*
X80805818Y-104444995D01*
X80569823Y-104680578D01*
X80442141Y-104988071D01*
X80345305Y-105084907D01*
X80191136Y-105315636D01*
X80150717Y-105518835D01*
X80136999Y-105587801D01*
X79248000Y-105587801D01*
X79248000Y-100495997D01*
X84251655Y-100495997D01*
X84378995Y-100804182D01*
X84614578Y-101040177D01*
X84739308Y-101091970D01*
X84615818Y-101142995D01*
X84379823Y-101378578D01*
X84251946Y-101686540D01*
X84251655Y-102019997D01*
X84378995Y-102328182D01*
X84614578Y-102564177D01*
X84739308Y-102615970D01*
X84615818Y-102666995D01*
X84379823Y-102902578D01*
X84251946Y-103210540D01*
X84251655Y-103543997D01*
X84378995Y-103852182D01*
X84614578Y-104088177D01*
X84922540Y-104216054D01*
X85255997Y-104216345D01*
X85563710Y-104089200D01*
X86880000Y-104089200D01*
X87152165Y-104035063D01*
X87382894Y-103880894D01*
X88318462Y-102945326D01*
X88624182Y-102819005D01*
X88860177Y-102583422D01*
X88899940Y-102487662D01*
X88938995Y-102582182D01*
X89174578Y-102818177D01*
X89482540Y-102946054D01*
X89815997Y-102946345D01*
X90123710Y-102819200D01*
X91221042Y-102819200D01*
X91526540Y-102946054D01*
X91859997Y-102946345D01*
X92168182Y-102819005D01*
X92404177Y-102583422D01*
X92532054Y-102275460D01*
X92532345Y-101942003D01*
X92527468Y-101930200D01*
X93761042Y-101930200D01*
X94066540Y-102057054D01*
X94399997Y-102057345D01*
X94708182Y-101930005D01*
X94944177Y-101694422D01*
X95072054Y-101386460D01*
X95072345Y-101053003D01*
X94945005Y-100744818D01*
X94709422Y-100508823D01*
X94401460Y-100380946D01*
X94068003Y-100380655D01*
X93760290Y-100507800D01*
X92527760Y-100507800D01*
X92532054Y-100497460D01*
X92532345Y-100164003D01*
X92405005Y-99855818D01*
X92169422Y-99619823D01*
X91861460Y-99491946D01*
X91528003Y-99491655D01*
X91220290Y-99618800D01*
X89118958Y-99618800D01*
X88813460Y-99491946D01*
X88480003Y-99491655D01*
X88171818Y-99618995D01*
X87935823Y-99854578D01*
X87898065Y-99945510D01*
X87861005Y-99855818D01*
X87625422Y-99619823D01*
X87317460Y-99491946D01*
X86984003Y-99491655D01*
X86676290Y-99618800D01*
X85562958Y-99618800D01*
X85257460Y-99491946D01*
X84924003Y-99491655D01*
X84615818Y-99618995D01*
X84379823Y-99854578D01*
X84251946Y-100162540D01*
X84251655Y-100495997D01*
X79248000Y-100495997D01*
X79248000Y-96222785D01*
X82117260Y-96222785D01*
X82327669Y-96732015D01*
X82716936Y-97121961D01*
X83225798Y-97333259D01*
X83439000Y-97333445D01*
X83439000Y-97693382D01*
X83362946Y-97876540D01*
X83362655Y-98209997D01*
X83489995Y-98518182D01*
X83725578Y-98754177D01*
X84033540Y-98882054D01*
X84366997Y-98882345D01*
X84675182Y-98755005D01*
X84911177Y-98519422D01*
X85039054Y-98211460D01*
X85039345Y-97878003D01*
X84963000Y-97693235D01*
X84963000Y-97343630D01*
X85786631Y-96520000D01*
X92359382Y-96520000D01*
X92542540Y-96596054D01*
X92875997Y-96596345D01*
X93184182Y-96469005D01*
X93420177Y-96233422D01*
X93548054Y-95925460D01*
X93548345Y-95592003D01*
X93421005Y-95283818D01*
X93185422Y-95047823D01*
X92877460Y-94919946D01*
X92544003Y-94919655D01*
X92359235Y-94996000D01*
X85471000Y-94996000D01*
X85214632Y-95046995D01*
X85179395Y-95054004D01*
X84932184Y-95219185D01*
X84767692Y-95383677D01*
X84677331Y-95164985D01*
X84288064Y-94775039D01*
X83779202Y-94563741D01*
X83228215Y-94563260D01*
X82718985Y-94773669D01*
X82329039Y-95162936D01*
X82117741Y-95671798D01*
X82117260Y-96222785D01*
X79248000Y-96222785D01*
X79248000Y-88176997D01*
X81203655Y-88176997D01*
X81330995Y-88485182D01*
X81566578Y-88721177D01*
X81874540Y-88849054D01*
X82207997Y-88849345D01*
X82515710Y-88722200D01*
X83918542Y-88722200D01*
X84224040Y-88849054D01*
X84557497Y-88849345D01*
X84865682Y-88722005D01*
X85101677Y-88486422D01*
X85229554Y-88178460D01*
X85229555Y-88176997D01*
X89204655Y-88176997D01*
X89331995Y-88485182D01*
X89567578Y-88721177D01*
X89875540Y-88849054D01*
X90208997Y-88849345D01*
X90517182Y-88722005D01*
X90753177Y-88486422D01*
X90880859Y-88178929D01*
X92306089Y-86753700D01*
X93939412Y-86753700D01*
X95365174Y-88179463D01*
X95491495Y-88485182D01*
X95727078Y-88721177D01*
X96035040Y-88849054D01*
X96368497Y-88849345D01*
X96676682Y-88722005D01*
X96912677Y-88486422D01*
X97040554Y-88178460D01*
X97040845Y-87845003D01*
X96913505Y-87536818D01*
X96677922Y-87300823D01*
X96370430Y-87173141D01*
X94736894Y-85539606D01*
X94506165Y-85385437D01*
X94234000Y-85331300D01*
X92011500Y-85331300D01*
X91739336Y-85385437D01*
X91739334Y-85385438D01*
X91739335Y-85385438D01*
X91508605Y-85539606D01*
X89874539Y-87173673D01*
X89568818Y-87299995D01*
X89332823Y-87535578D01*
X89204946Y-87843540D01*
X89204655Y-88176997D01*
X85229555Y-88176997D01*
X85229845Y-87845003D01*
X85102505Y-87536818D01*
X84866922Y-87300823D01*
X84558960Y-87172946D01*
X84225503Y-87172655D01*
X83917790Y-87299800D01*
X82514958Y-87299800D01*
X82209460Y-87172946D01*
X81876003Y-87172655D01*
X81567818Y-87299995D01*
X81331823Y-87535578D01*
X81203946Y-87843540D01*
X81203655Y-88176997D01*
X79248000Y-88176997D01*
X79248000Y-81026000D01*
X82292041Y-81026000D01*
X82406115Y-81599489D01*
X82730971Y-82085670D01*
X83045752Y-82296000D01*
X82730971Y-82506330D01*
X82406115Y-82992511D01*
X82292041Y-83566000D01*
X82406115Y-84139489D01*
X82730971Y-84625670D01*
X83217152Y-84950526D01*
X83790641Y-85064600D01*
X83849359Y-85064600D01*
X84422848Y-84950526D01*
X84909029Y-84625670D01*
X85090000Y-84354828D01*
X85270971Y-84625670D01*
X85757152Y-84950526D01*
X86330641Y-85064600D01*
X86389359Y-85064600D01*
X86962848Y-84950526D01*
X87449029Y-84625670D01*
X87630000Y-84354828D01*
X87810971Y-84625670D01*
X88297152Y-84950526D01*
X88870641Y-85064600D01*
X88929359Y-85064600D01*
X89502848Y-84950526D01*
X89989029Y-84625670D01*
X90170000Y-84354828D01*
X90350971Y-84625670D01*
X90837152Y-84950526D01*
X91410641Y-85064600D01*
X91469359Y-85064600D01*
X92042848Y-84950526D01*
X92529029Y-84625670D01*
X92710000Y-84354828D01*
X92890971Y-84625670D01*
X93377152Y-84950526D01*
X93950641Y-85064600D01*
X94009359Y-85064600D01*
X94582848Y-84950526D01*
X95069029Y-84625670D01*
X95393885Y-84139489D01*
X95507959Y-83566000D01*
X95393885Y-82992511D01*
X95069029Y-82506330D01*
X95047977Y-82492263D01*
X95203298Y-82427927D01*
X95381927Y-82249299D01*
X95478600Y-82015910D01*
X95478600Y-81311750D01*
X95319850Y-81153000D01*
X94107000Y-81153000D01*
X94107000Y-81173000D01*
X93853000Y-81173000D01*
X93853000Y-81153000D01*
X93833000Y-81153000D01*
X93833000Y-80899000D01*
X93853000Y-80899000D01*
X93853000Y-79686150D01*
X94107000Y-79686150D01*
X94107000Y-80899000D01*
X95319850Y-80899000D01*
X95478600Y-80740250D01*
X95478600Y-80036090D01*
X95381927Y-79802701D01*
X95203298Y-79624073D01*
X94969909Y-79527400D01*
X94265750Y-79527400D01*
X94107000Y-79686150D01*
X93853000Y-79686150D01*
X93694250Y-79527400D01*
X92990091Y-79527400D01*
X92756702Y-79624073D01*
X92578073Y-79802701D01*
X92514356Y-79956526D01*
X92042848Y-79641474D01*
X91469359Y-79527400D01*
X91410641Y-79527400D01*
X90837152Y-79641474D01*
X90350971Y-79966330D01*
X90170000Y-80237172D01*
X89989029Y-79966330D01*
X89502848Y-79641474D01*
X88929359Y-79527400D01*
X88870641Y-79527400D01*
X88297152Y-79641474D01*
X87810971Y-79966330D01*
X87630000Y-80237172D01*
X87449029Y-79966330D01*
X86962848Y-79641474D01*
X86389359Y-79527400D01*
X86330641Y-79527400D01*
X85757152Y-79641474D01*
X85270971Y-79966330D01*
X85090000Y-80237172D01*
X84909029Y-79966330D01*
X84422848Y-79641474D01*
X83849359Y-79527400D01*
X83790641Y-79527400D01*
X83217152Y-79641474D01*
X82730971Y-79966330D01*
X82406115Y-80452511D01*
X82292041Y-81026000D01*
X79248000Y-81026000D01*
X79248000Y-78232000D01*
X98552000Y-78232000D01*
X98552000Y-90527971D01*
G36*
X91567000Y-115697000D02*
X91587000Y-115697000D01*
X91587000Y-115951000D01*
X91567000Y-115951000D01*
X91567000Y-115971000D01*
X91313000Y-115971000D01*
X91313000Y-115951000D01*
X91293000Y-115951000D01*
X91293000Y-115697000D01*
X91313000Y-115697000D01*
X91313000Y-115677000D01*
X91567000Y-115677000D01*
X91567000Y-115697000D01*
X91567000Y-115697000D01*
G37*
X91567000Y-115697000D02*
X91587000Y-115697000D01*
X91587000Y-115951000D01*
X91567000Y-115951000D01*
X91567000Y-115971000D01*
X91313000Y-115971000D01*
X91313000Y-115951000D01*
X91293000Y-115951000D01*
X91293000Y-115697000D01*
X91313000Y-115697000D01*
X91313000Y-115677000D01*
X91567000Y-115677000D01*
X91567000Y-115697000D01*
M02*
