G04 #@! TF.FileFunction,Legend,Bot*
%FSLAX46Y46*%
G04 Gerber Fmt 4.6, Leading zero omitted, Abs format (unit mm)*
G04 Created by KiCad (PCBNEW 4.0.5) date 01/03/18 17:15:43*
%MOMM*%
%LPD*%
G01*
G04 APERTURE LIST*
%ADD10C,0.100000*%
%ADD11C,0.125000*%
%ADD12C,0.010000*%
G04 APERTURE END LIST*
D10*
D11*
X91745237Y-97784190D02*
X91745237Y-98141333D01*
X91769047Y-98212762D01*
X91816666Y-98260381D01*
X91888094Y-98284190D01*
X91935713Y-98284190D01*
X91578571Y-97784190D02*
X91292857Y-97784190D01*
X91435714Y-98284190D02*
X91435714Y-97784190D01*
X91150000Y-98141333D02*
X90911905Y-98141333D01*
X91197619Y-98284190D02*
X91030952Y-97784190D01*
X90864286Y-98284190D01*
X90435715Y-97808000D02*
X90483334Y-97784190D01*
X90554762Y-97784190D01*
X90626191Y-97808000D01*
X90673810Y-97855619D01*
X90697619Y-97903238D01*
X90721429Y-97998476D01*
X90721429Y-98069905D01*
X90697619Y-98165143D01*
X90673810Y-98212762D01*
X90626191Y-98260381D01*
X90554762Y-98284190D01*
X90507143Y-98284190D01*
X90435715Y-98260381D01*
X90411905Y-98236571D01*
X90411905Y-98069905D01*
X90507143Y-98069905D01*
X89816667Y-98284190D02*
X89816667Y-97784190D01*
X89626191Y-97784190D01*
X89578572Y-97808000D01*
X89554763Y-97831810D01*
X89530953Y-97879429D01*
X89530953Y-97950857D01*
X89554763Y-97998476D01*
X89578572Y-98022286D01*
X89626191Y-98046095D01*
X89816667Y-98046095D01*
X89126191Y-98260381D02*
X89173810Y-98284190D01*
X89269048Y-98284190D01*
X89316667Y-98260381D01*
X89340477Y-98212762D01*
X89340477Y-98022286D01*
X89316667Y-97974667D01*
X89269048Y-97950857D01*
X89173810Y-97950857D01*
X89126191Y-97974667D01*
X89102382Y-98022286D01*
X89102382Y-98069905D01*
X89340477Y-98117524D01*
X88888096Y-98284190D02*
X88888096Y-97950857D01*
X88888096Y-98046095D02*
X88864287Y-97998476D01*
X88840477Y-97974667D01*
X88792858Y-97950857D01*
X88745239Y-97950857D01*
X88578572Y-98284190D02*
X88578572Y-97950857D01*
X88578572Y-97998476D02*
X88554763Y-97974667D01*
X88507144Y-97950857D01*
X88435715Y-97950857D01*
X88388096Y-97974667D01*
X88364287Y-98022286D01*
X88364287Y-98284190D01*
X88364287Y-98022286D02*
X88340477Y-97974667D01*
X88292858Y-97950857D01*
X88221430Y-97950857D01*
X88173810Y-97974667D01*
X88150001Y-98022286D01*
X88150001Y-98284190D01*
X87697620Y-97950857D02*
X87697620Y-98284190D01*
X87911905Y-97950857D02*
X87911905Y-98212762D01*
X87888096Y-98260381D01*
X87840477Y-98284190D01*
X87769048Y-98284190D01*
X87721429Y-98260381D01*
X87697620Y-98236571D01*
X87530953Y-97950857D02*
X87340477Y-97950857D01*
X87459524Y-97784190D02*
X87459524Y-98212762D01*
X87435715Y-98260381D01*
X87388096Y-98284190D01*
X87340477Y-98284190D01*
X86959525Y-98284190D02*
X86959525Y-98022286D01*
X86983334Y-97974667D01*
X87030953Y-97950857D01*
X87126191Y-97950857D01*
X87173810Y-97974667D01*
X86959525Y-98260381D02*
X87007144Y-98284190D01*
X87126191Y-98284190D01*
X87173810Y-98260381D01*
X87197620Y-98212762D01*
X87197620Y-98165143D01*
X87173810Y-98117524D01*
X87126191Y-98093714D01*
X87007144Y-98093714D01*
X86959525Y-98069905D01*
X86792858Y-97950857D02*
X86602382Y-97950857D01*
X86721429Y-97784190D02*
X86721429Y-98212762D01*
X86697620Y-98260381D01*
X86650001Y-98284190D01*
X86602382Y-98284190D01*
X86364287Y-98284190D02*
X86411906Y-98260381D01*
X86435715Y-98236571D01*
X86459525Y-98188952D01*
X86459525Y-98046095D01*
X86435715Y-97998476D01*
X86411906Y-97974667D01*
X86364287Y-97950857D01*
X86292858Y-97950857D01*
X86245239Y-97974667D01*
X86221430Y-97998476D01*
X86197620Y-98046095D01*
X86197620Y-98188952D01*
X86221430Y-98236571D01*
X86245239Y-98260381D01*
X86292858Y-98284190D01*
X86364287Y-98284190D01*
X85983334Y-98284190D02*
X85983334Y-97950857D01*
X85983334Y-98046095D02*
X85959525Y-97998476D01*
X85935715Y-97974667D01*
X85888096Y-97950857D01*
X85840477Y-97950857D01*
X89661904Y-98659190D02*
X89495237Y-99159190D01*
X89328571Y-98659190D01*
X88900000Y-99159190D02*
X89185714Y-99159190D01*
X89042857Y-99159190D02*
X89042857Y-98659190D01*
X89090476Y-98730619D01*
X89138095Y-98778238D01*
X89185714Y-98802048D01*
X88685714Y-99111571D02*
X88661905Y-99135381D01*
X88685714Y-99159190D01*
X88709524Y-99135381D01*
X88685714Y-99111571D01*
X88685714Y-99159190D01*
X88352381Y-98659190D02*
X88304762Y-98659190D01*
X88257143Y-98683000D01*
X88233334Y-98706810D01*
X88209524Y-98754429D01*
X88185715Y-98849667D01*
X88185715Y-98968714D01*
X88209524Y-99063952D01*
X88233334Y-99111571D01*
X88257143Y-99135381D01*
X88304762Y-99159190D01*
X88352381Y-99159190D01*
X88400000Y-99135381D01*
X88423810Y-99111571D01*
X88447619Y-99063952D01*
X88471429Y-98968714D01*
X88471429Y-98849667D01*
X88447619Y-98754429D01*
X88423810Y-98706810D01*
X88400000Y-98683000D01*
X88352381Y-98659190D01*
X90923808Y-100034190D02*
X91090475Y-99796095D01*
X91209522Y-100034190D02*
X91209522Y-99534190D01*
X91019046Y-99534190D01*
X90971427Y-99558000D01*
X90947618Y-99581810D01*
X90923808Y-99629429D01*
X90923808Y-99700857D01*
X90947618Y-99748476D01*
X90971427Y-99772286D01*
X91019046Y-99796095D01*
X91209522Y-99796095D01*
X90447618Y-99558000D02*
X90495237Y-99534190D01*
X90566665Y-99534190D01*
X90638094Y-99558000D01*
X90685713Y-99605619D01*
X90709522Y-99653238D01*
X90733332Y-99748476D01*
X90733332Y-99819905D01*
X90709522Y-99915143D01*
X90685713Y-99962762D01*
X90638094Y-100010381D01*
X90566665Y-100034190D01*
X90519046Y-100034190D01*
X90447618Y-100010381D01*
X90423808Y-99986571D01*
X90423808Y-99819905D01*
X90519046Y-99819905D01*
X90209522Y-100034190D02*
X90209522Y-99534190D01*
X90042856Y-99891333D01*
X89876189Y-99534190D01*
X89876189Y-100034190D01*
X89257141Y-99843714D02*
X88876189Y-99843714D01*
X88280951Y-99581810D02*
X88257141Y-99558000D01*
X88209522Y-99534190D01*
X88090475Y-99534190D01*
X88042856Y-99558000D01*
X88019046Y-99581810D01*
X87995237Y-99629429D01*
X87995237Y-99677048D01*
X88019046Y-99748476D01*
X88304760Y-100034190D01*
X87995237Y-100034190D01*
X87685713Y-99534190D02*
X87638094Y-99534190D01*
X87590475Y-99558000D01*
X87566666Y-99581810D01*
X87542856Y-99629429D01*
X87519047Y-99724667D01*
X87519047Y-99843714D01*
X87542856Y-99938952D01*
X87566666Y-99986571D01*
X87590475Y-100010381D01*
X87638094Y-100034190D01*
X87685713Y-100034190D01*
X87733332Y-100010381D01*
X87757142Y-99986571D01*
X87780951Y-99938952D01*
X87804761Y-99843714D01*
X87804761Y-99724667D01*
X87780951Y-99629429D01*
X87757142Y-99581810D01*
X87733332Y-99558000D01*
X87685713Y-99534190D01*
X87042857Y-100034190D02*
X87328571Y-100034190D01*
X87185714Y-100034190D02*
X87185714Y-99534190D01*
X87233333Y-99605619D01*
X87280952Y-99653238D01*
X87328571Y-99677048D01*
X86757143Y-99748476D02*
X86804762Y-99724667D01*
X86828571Y-99700857D01*
X86852381Y-99653238D01*
X86852381Y-99629429D01*
X86828571Y-99581810D01*
X86804762Y-99558000D01*
X86757143Y-99534190D01*
X86661905Y-99534190D01*
X86614286Y-99558000D01*
X86590476Y-99581810D01*
X86566667Y-99629429D01*
X86566667Y-99653238D01*
X86590476Y-99700857D01*
X86614286Y-99724667D01*
X86661905Y-99748476D01*
X86757143Y-99748476D01*
X86804762Y-99772286D01*
X86828571Y-99796095D01*
X86852381Y-99843714D01*
X86852381Y-99938952D01*
X86828571Y-99986571D01*
X86804762Y-100010381D01*
X86757143Y-100034190D01*
X86661905Y-100034190D01*
X86614286Y-100010381D01*
X86590476Y-99986571D01*
X86566667Y-99938952D01*
X86566667Y-99843714D01*
X86590476Y-99796095D01*
X86614286Y-99772286D01*
X86661905Y-99748476D01*
D12*
G36*
X91436640Y-94789468D02*
X91401408Y-94806874D01*
X91357960Y-94837206D01*
X91326294Y-94870283D01*
X91304606Y-94911817D01*
X91291097Y-94967522D01*
X91283962Y-95043111D01*
X91281400Y-95144296D01*
X91281250Y-95187797D01*
X91281688Y-95283135D01*
X91283504Y-95351271D01*
X91287455Y-95398418D01*
X91294298Y-95430790D01*
X91304789Y-95454600D01*
X91315704Y-95470843D01*
X91385381Y-95539952D01*
X91467434Y-95581521D01*
X91555950Y-95594023D01*
X91645019Y-95575934D01*
X91673237Y-95563142D01*
X91740790Y-95527931D01*
X91740790Y-96079700D01*
X91691488Y-96054205D01*
X91626527Y-96034480D01*
X91546680Y-96029427D01*
X91466948Y-96038756D01*
X91406735Y-96059714D01*
X91356792Y-96099627D01*
X91314119Y-96156741D01*
X91310910Y-96162605D01*
X91297378Y-96190227D01*
X91287495Y-96218068D01*
X91280691Y-96251794D01*
X91276399Y-96297071D01*
X91274049Y-96359562D01*
X91273072Y-96444935D01*
X91272895Y-96541010D01*
X91272895Y-96847526D01*
X91456711Y-96847526D01*
X91456711Y-96282339D01*
X91508125Y-96239077D01*
X91561534Y-96204472D01*
X91612112Y-96198180D01*
X91662970Y-96214372D01*
X91690075Y-96230227D01*
X91710249Y-96252810D01*
X91724597Y-96286940D01*
X91734224Y-96337434D01*
X91740237Y-96409111D01*
X91743740Y-96506788D01*
X91744974Y-96571802D01*
X91749145Y-96839171D01*
X91836875Y-96844222D01*
X91924606Y-96849273D01*
X91924606Y-95190101D01*
X91740790Y-95190101D01*
X91736104Y-95282600D01*
X91720312Y-95346809D01*
X91690817Y-95386759D01*
X91645020Y-95406480D01*
X91598750Y-95410421D01*
X91546372Y-95405892D01*
X91511610Y-95388069D01*
X91489872Y-95364519D01*
X91472760Y-95339189D01*
X91462573Y-95310969D01*
X91458040Y-95271431D01*
X91457891Y-95212142D01*
X91459416Y-95162498D01*
X91462919Y-95087710D01*
X91468133Y-95038611D01*
X91476913Y-95007467D01*
X91491114Y-94986545D01*
X91504516Y-94974452D01*
X91560513Y-94948081D01*
X91626789Y-94943822D01*
X91664844Y-94952906D01*
X91702523Y-94985196D01*
X91727481Y-95048006D01*
X91739578Y-95140894D01*
X91740790Y-95190101D01*
X91924606Y-95190101D01*
X91924606Y-94775421D01*
X91832698Y-94775421D01*
X91777517Y-94777603D01*
X91749048Y-94785351D01*
X91740794Y-94800468D01*
X91740790Y-94800916D01*
X91736960Y-94815720D01*
X91720067Y-94814039D01*
X91686481Y-94797772D01*
X91608222Y-94772887D01*
X91520173Y-94770271D01*
X91436640Y-94789468D01*
X91436640Y-94789468D01*
G37*
X91436640Y-94789468D02*
X91401408Y-94806874D01*
X91357960Y-94837206D01*
X91326294Y-94870283D01*
X91304606Y-94911817D01*
X91291097Y-94967522D01*
X91283962Y-95043111D01*
X91281400Y-95144296D01*
X91281250Y-95187797D01*
X91281688Y-95283135D01*
X91283504Y-95351271D01*
X91287455Y-95398418D01*
X91294298Y-95430790D01*
X91304789Y-95454600D01*
X91315704Y-95470843D01*
X91385381Y-95539952D01*
X91467434Y-95581521D01*
X91555950Y-95594023D01*
X91645019Y-95575934D01*
X91673237Y-95563142D01*
X91740790Y-95527931D01*
X91740790Y-96079700D01*
X91691488Y-96054205D01*
X91626527Y-96034480D01*
X91546680Y-96029427D01*
X91466948Y-96038756D01*
X91406735Y-96059714D01*
X91356792Y-96099627D01*
X91314119Y-96156741D01*
X91310910Y-96162605D01*
X91297378Y-96190227D01*
X91287495Y-96218068D01*
X91280691Y-96251794D01*
X91276399Y-96297071D01*
X91274049Y-96359562D01*
X91273072Y-96444935D01*
X91272895Y-96541010D01*
X91272895Y-96847526D01*
X91456711Y-96847526D01*
X91456711Y-96282339D01*
X91508125Y-96239077D01*
X91561534Y-96204472D01*
X91612112Y-96198180D01*
X91662970Y-96214372D01*
X91690075Y-96230227D01*
X91710249Y-96252810D01*
X91724597Y-96286940D01*
X91734224Y-96337434D01*
X91740237Y-96409111D01*
X91743740Y-96506788D01*
X91744974Y-96571802D01*
X91749145Y-96839171D01*
X91836875Y-96844222D01*
X91924606Y-96849273D01*
X91924606Y-95190101D01*
X91740790Y-95190101D01*
X91736104Y-95282600D01*
X91720312Y-95346809D01*
X91690817Y-95386759D01*
X91645020Y-95406480D01*
X91598750Y-95410421D01*
X91546372Y-95405892D01*
X91511610Y-95388069D01*
X91489872Y-95364519D01*
X91472760Y-95339189D01*
X91462573Y-95310969D01*
X91458040Y-95271431D01*
X91457891Y-95212142D01*
X91459416Y-95162498D01*
X91462919Y-95087710D01*
X91468133Y-95038611D01*
X91476913Y-95007467D01*
X91491114Y-94986545D01*
X91504516Y-94974452D01*
X91560513Y-94948081D01*
X91626789Y-94943822D01*
X91664844Y-94952906D01*
X91702523Y-94985196D01*
X91727481Y-95048006D01*
X91739578Y-95140894D01*
X91740790Y-95190101D01*
X91924606Y-95190101D01*
X91924606Y-94775421D01*
X91832698Y-94775421D01*
X91777517Y-94777603D01*
X91749048Y-94785351D01*
X91740794Y-94800468D01*
X91740790Y-94800916D01*
X91736960Y-94815720D01*
X91720067Y-94814039D01*
X91686481Y-94797772D01*
X91608222Y-94772887D01*
X91520173Y-94770271D01*
X91436640Y-94789468D01*
G36*
X90739543Y-96035184D02*
X90660930Y-96056160D01*
X90601084Y-96094180D01*
X90558853Y-96143978D01*
X90545725Y-96165230D01*
X90536032Y-96187492D01*
X90529256Y-96215970D01*
X90524877Y-96255871D01*
X90522376Y-96312401D01*
X90521232Y-96390767D01*
X90520928Y-96496176D01*
X90520922Y-96524142D01*
X90520922Y-96847526D01*
X90601132Y-96847526D01*
X90652294Y-96843943D01*
X90690123Y-96834866D01*
X90699601Y-96829268D01*
X90725512Y-96819606D01*
X90751976Y-96829268D01*
X90795548Y-96841330D01*
X90858840Y-96846185D01*
X90928990Y-96844078D01*
X90993140Y-96835256D01*
X91030593Y-96823937D01*
X91103067Y-96777412D01*
X91148360Y-96712846D01*
X91168722Y-96627000D01*
X91168912Y-96624796D01*
X91167125Y-96586713D01*
X91005527Y-96586713D01*
X90991399Y-96630030D01*
X90968388Y-96654408D01*
X90922196Y-96672845D01*
X90861225Y-96680205D01*
X90799051Y-96676583D01*
X90749249Y-96662074D01*
X90735297Y-96652765D01*
X90710915Y-96609753D01*
X90704737Y-96560857D01*
X90704737Y-96496605D01*
X90797182Y-96496605D01*
X90885005Y-96503366D01*
X90951582Y-96522520D01*
X90992998Y-96552376D01*
X91005527Y-96586713D01*
X91167125Y-96586713D01*
X91164510Y-96531004D01*
X91133576Y-96456847D01*
X91075419Y-96400767D01*
X91067380Y-96395665D01*
X91032837Y-96379055D01*
X90990082Y-96368996D01*
X90930314Y-96364107D01*
X90859310Y-96362983D01*
X90704737Y-96362921D01*
X90704737Y-96298125D01*
X90711294Y-96247850D01*
X90728025Y-96214169D01*
X90729984Y-96212376D01*
X90767217Y-96197642D01*
X90823420Y-96191931D01*
X90885533Y-96194737D01*
X90940490Y-96205556D01*
X90973101Y-96221782D01*
X90990772Y-96234780D01*
X91009431Y-96237262D01*
X91035181Y-96226613D01*
X91074127Y-96200218D01*
X91132370Y-96155465D01*
X91137716Y-96151273D01*
X91134977Y-96135760D01*
X91112124Y-96109960D01*
X91077391Y-96081289D01*
X91039010Y-96057166D01*
X91026952Y-96051470D01*
X90982966Y-96040103D01*
X90918513Y-96031995D01*
X90846503Y-96028743D01*
X90843136Y-96028736D01*
X90739543Y-96035184D01*
X90739543Y-96035184D01*
G37*
X90739543Y-96035184D02*
X90660930Y-96056160D01*
X90601084Y-96094180D01*
X90558853Y-96143978D01*
X90545725Y-96165230D01*
X90536032Y-96187492D01*
X90529256Y-96215970D01*
X90524877Y-96255871D01*
X90522376Y-96312401D01*
X90521232Y-96390767D01*
X90520928Y-96496176D01*
X90520922Y-96524142D01*
X90520922Y-96847526D01*
X90601132Y-96847526D01*
X90652294Y-96843943D01*
X90690123Y-96834866D01*
X90699601Y-96829268D01*
X90725512Y-96819606D01*
X90751976Y-96829268D01*
X90795548Y-96841330D01*
X90858840Y-96846185D01*
X90928990Y-96844078D01*
X90993140Y-96835256D01*
X91030593Y-96823937D01*
X91103067Y-96777412D01*
X91148360Y-96712846D01*
X91168722Y-96627000D01*
X91168912Y-96624796D01*
X91167125Y-96586713D01*
X91005527Y-96586713D01*
X90991399Y-96630030D01*
X90968388Y-96654408D01*
X90922196Y-96672845D01*
X90861225Y-96680205D01*
X90799051Y-96676583D01*
X90749249Y-96662074D01*
X90735297Y-96652765D01*
X90710915Y-96609753D01*
X90704737Y-96560857D01*
X90704737Y-96496605D01*
X90797182Y-96496605D01*
X90885005Y-96503366D01*
X90951582Y-96522520D01*
X90992998Y-96552376D01*
X91005527Y-96586713D01*
X91167125Y-96586713D01*
X91164510Y-96531004D01*
X91133576Y-96456847D01*
X91075419Y-96400767D01*
X91067380Y-96395665D01*
X91032837Y-96379055D01*
X90990082Y-96368996D01*
X90930314Y-96364107D01*
X90859310Y-96362983D01*
X90704737Y-96362921D01*
X90704737Y-96298125D01*
X90711294Y-96247850D01*
X90728025Y-96214169D01*
X90729984Y-96212376D01*
X90767217Y-96197642D01*
X90823420Y-96191931D01*
X90885533Y-96194737D01*
X90940490Y-96205556D01*
X90973101Y-96221782D01*
X90990772Y-96234780D01*
X91009431Y-96237262D01*
X91035181Y-96226613D01*
X91074127Y-96200218D01*
X91132370Y-96155465D01*
X91137716Y-96151273D01*
X91134977Y-96135760D01*
X91112124Y-96109960D01*
X91077391Y-96081289D01*
X91039010Y-96057166D01*
X91026952Y-96051470D01*
X90982966Y-96040103D01*
X90918513Y-96031995D01*
X90846503Y-96028743D01*
X90843136Y-96028736D01*
X90739543Y-96035184D01*
G36*
X90220119Y-96030486D02*
X90195112Y-96037982D01*
X90187050Y-96054451D01*
X90186711Y-96061886D01*
X90185264Y-96082594D01*
X90175302Y-96085845D01*
X90148388Y-96071648D01*
X90132402Y-96061948D01*
X90081967Y-96041175D01*
X90021728Y-96030904D01*
X89958566Y-96030114D01*
X89899363Y-96037786D01*
X89850998Y-96052898D01*
X89820354Y-96074432D01*
X89814311Y-96101366D01*
X89817361Y-96108660D01*
X89839594Y-96138937D01*
X89874070Y-96176175D01*
X89880306Y-96182195D01*
X89913167Y-96209875D01*
X89941520Y-96218818D01*
X89981173Y-96212576D01*
X89997058Y-96208429D01*
X90046491Y-96198467D01*
X90081248Y-96202947D01*
X90110600Y-96218746D01*
X90137487Y-96239949D01*
X90157290Y-96266614D01*
X90171052Y-96303827D01*
X90179816Y-96356673D01*
X90184626Y-96430237D01*
X90186526Y-96529605D01*
X90186711Y-96589601D01*
X90186711Y-96847526D01*
X90353816Y-96847526D01*
X90353816Y-96028710D01*
X90270264Y-96028710D01*
X90220119Y-96030486D01*
X90220119Y-96030486D01*
G37*
X90220119Y-96030486D02*
X90195112Y-96037982D01*
X90187050Y-96054451D01*
X90186711Y-96061886D01*
X90185264Y-96082594D01*
X90175302Y-96085845D01*
X90148388Y-96071648D01*
X90132402Y-96061948D01*
X90081967Y-96041175D01*
X90021728Y-96030904D01*
X89958566Y-96030114D01*
X89899363Y-96037786D01*
X89850998Y-96052898D01*
X89820354Y-96074432D01*
X89814311Y-96101366D01*
X89817361Y-96108660D01*
X89839594Y-96138937D01*
X89874070Y-96176175D01*
X89880306Y-96182195D01*
X89913167Y-96209875D01*
X89941520Y-96218818D01*
X89981173Y-96212576D01*
X89997058Y-96208429D01*
X90046491Y-96198467D01*
X90081248Y-96202947D01*
X90110600Y-96218746D01*
X90137487Y-96239949D01*
X90157290Y-96266614D01*
X90171052Y-96303827D01*
X90179816Y-96356673D01*
X90184626Y-96430237D01*
X90186526Y-96529605D01*
X90186711Y-96589601D01*
X90186711Y-96847526D01*
X90353816Y-96847526D01*
X90353816Y-96028710D01*
X90270264Y-96028710D01*
X90220119Y-96030486D01*
G36*
X89167369Y-96847526D02*
X89259277Y-96847526D01*
X89312623Y-96845962D01*
X89340407Y-96839485D01*
X89350410Y-96825418D01*
X89351185Y-96815906D01*
X89352872Y-96796832D01*
X89363510Y-96793174D01*
X89391465Y-96804932D01*
X89413205Y-96815906D01*
X89496668Y-96841911D01*
X89587396Y-96843416D01*
X89661158Y-96824021D01*
X89729846Y-96777165D01*
X89782206Y-96708004D01*
X89810878Y-96626427D01*
X89811608Y-96621866D01*
X89815868Y-96572101D01*
X89817986Y-96500659D01*
X89817816Y-96446626D01*
X89635280Y-96446626D01*
X89631051Y-96518441D01*
X89621432Y-96577634D01*
X89608410Y-96611060D01*
X89559144Y-96656740D01*
X89500650Y-96673115D01*
X89440329Y-96659873D01*
X89388783Y-96620373D01*
X89369262Y-96593807D01*
X89357848Y-96562106D01*
X89352502Y-96515832D01*
X89351185Y-96446328D01*
X89353542Y-96377499D01*
X89359767Y-96317026D01*
X89368592Y-96276556D01*
X89370063Y-96272929D01*
X89405653Y-96229802D01*
X89457600Y-96206124D01*
X89515722Y-96202301D01*
X89569840Y-96218738D01*
X89609774Y-96255840D01*
X89613917Y-96263222D01*
X89626884Y-96308239D01*
X89633948Y-96372967D01*
X89635280Y-96446626D01*
X89817816Y-96446626D01*
X89817729Y-96419230D01*
X89816528Y-96375405D01*
X89808355Y-96266988D01*
X89791370Y-96185588D01*
X89763113Y-96125412D01*
X89721128Y-96080666D01*
X89680368Y-96054400D01*
X89623419Y-96035935D01*
X89552589Y-96029602D01*
X89480059Y-96034760D01*
X89418014Y-96050769D01*
X89385232Y-96069920D01*
X89351185Y-96100732D01*
X89351185Y-95711210D01*
X89167369Y-95711210D01*
X89167369Y-96847526D01*
X89167369Y-96847526D01*
G37*
X89167369Y-96847526D02*
X89259277Y-96847526D01*
X89312623Y-96845962D01*
X89340407Y-96839485D01*
X89350410Y-96825418D01*
X89351185Y-96815906D01*
X89352872Y-96796832D01*
X89363510Y-96793174D01*
X89391465Y-96804932D01*
X89413205Y-96815906D01*
X89496668Y-96841911D01*
X89587396Y-96843416D01*
X89661158Y-96824021D01*
X89729846Y-96777165D01*
X89782206Y-96708004D01*
X89810878Y-96626427D01*
X89811608Y-96621866D01*
X89815868Y-96572101D01*
X89817986Y-96500659D01*
X89817816Y-96446626D01*
X89635280Y-96446626D01*
X89631051Y-96518441D01*
X89621432Y-96577634D01*
X89608410Y-96611060D01*
X89559144Y-96656740D01*
X89500650Y-96673115D01*
X89440329Y-96659873D01*
X89388783Y-96620373D01*
X89369262Y-96593807D01*
X89357848Y-96562106D01*
X89352502Y-96515832D01*
X89351185Y-96446328D01*
X89353542Y-96377499D01*
X89359767Y-96317026D01*
X89368592Y-96276556D01*
X89370063Y-96272929D01*
X89405653Y-96229802D01*
X89457600Y-96206124D01*
X89515722Y-96202301D01*
X89569840Y-96218738D01*
X89609774Y-96255840D01*
X89613917Y-96263222D01*
X89626884Y-96308239D01*
X89633948Y-96372967D01*
X89635280Y-96446626D01*
X89817816Y-96446626D01*
X89817729Y-96419230D01*
X89816528Y-96375405D01*
X89808355Y-96266988D01*
X89791370Y-96185588D01*
X89763113Y-96125412D01*
X89721128Y-96080666D01*
X89680368Y-96054400D01*
X89623419Y-96035935D01*
X89552589Y-96029602D01*
X89480059Y-96034760D01*
X89418014Y-96050769D01*
X89385232Y-96069920D01*
X89351185Y-96100732D01*
X89351185Y-95711210D01*
X89167369Y-95711210D01*
X89167369Y-96847526D01*
G36*
X88525870Y-96032104D02*
X88459780Y-96037066D01*
X88373374Y-96296079D01*
X88286969Y-96555092D01*
X88259876Y-96463184D01*
X88243572Y-96406384D01*
X88222125Y-96329625D01*
X88198965Y-96245251D01*
X88186720Y-96199993D01*
X88140656Y-96028710D01*
X87950613Y-96028710D01*
X88007418Y-96208349D01*
X88035393Y-96296704D01*
X88069187Y-96403281D01*
X88104480Y-96514454D01*
X88135987Y-96613579D01*
X88207750Y-96839171D01*
X88362714Y-96849253D01*
X88404730Y-96710528D01*
X88430641Y-96624351D01*
X88458917Y-96529347D01*
X88483631Y-96445441D01*
X88484606Y-96442102D01*
X88503065Y-96385248D01*
X88519351Y-96346456D01*
X88530758Y-96331787D01*
X88533102Y-96333483D01*
X88541329Y-96356225D01*
X88556962Y-96404940D01*
X88578096Y-96473502D01*
X88602830Y-96555785D01*
X88616213Y-96601046D01*
X88688689Y-96847526D01*
X88842505Y-96847526D01*
X88965469Y-96459006D01*
X89000012Y-96350022D01*
X89031479Y-96251048D01*
X89058384Y-96166736D01*
X89079241Y-96101734D01*
X89092562Y-96060692D01*
X89096612Y-96048701D01*
X89093406Y-96036423D01*
X89068235Y-96031046D01*
X89015854Y-96031584D01*
X89007655Y-96031990D01*
X88910518Y-96037066D01*
X88846900Y-96271013D01*
X88823516Y-96356333D01*
X88802619Y-96431335D01*
X88786049Y-96489507D01*
X88775646Y-96524337D01*
X88773724Y-96530016D01*
X88765759Y-96523486D01*
X88749696Y-96489654D01*
X88727379Y-96433127D01*
X88700655Y-96358510D01*
X88678063Y-96291107D01*
X88591959Y-96027143D01*
X88525870Y-96032104D01*
X88525870Y-96032104D01*
G37*
X88525870Y-96032104D02*
X88459780Y-96037066D01*
X88373374Y-96296079D01*
X88286969Y-96555092D01*
X88259876Y-96463184D01*
X88243572Y-96406384D01*
X88222125Y-96329625D01*
X88198965Y-96245251D01*
X88186720Y-96199993D01*
X88140656Y-96028710D01*
X87950613Y-96028710D01*
X88007418Y-96208349D01*
X88035393Y-96296704D01*
X88069187Y-96403281D01*
X88104480Y-96514454D01*
X88135987Y-96613579D01*
X88207750Y-96839171D01*
X88362714Y-96849253D01*
X88404730Y-96710528D01*
X88430641Y-96624351D01*
X88458917Y-96529347D01*
X88483631Y-96445441D01*
X88484606Y-96442102D01*
X88503065Y-96385248D01*
X88519351Y-96346456D01*
X88530758Y-96331787D01*
X88533102Y-96333483D01*
X88541329Y-96356225D01*
X88556962Y-96404940D01*
X88578096Y-96473502D01*
X88602830Y-96555785D01*
X88616213Y-96601046D01*
X88688689Y-96847526D01*
X88842505Y-96847526D01*
X88965469Y-96459006D01*
X89000012Y-96350022D01*
X89031479Y-96251048D01*
X89058384Y-96166736D01*
X89079241Y-96101734D01*
X89092562Y-96060692D01*
X89096612Y-96048701D01*
X89093406Y-96036423D01*
X89068235Y-96031046D01*
X89015854Y-96031584D01*
X89007655Y-96031990D01*
X88910518Y-96037066D01*
X88846900Y-96271013D01*
X88823516Y-96356333D01*
X88802619Y-96431335D01*
X88786049Y-96489507D01*
X88775646Y-96524337D01*
X88773724Y-96530016D01*
X88765759Y-96523486D01*
X88749696Y-96489654D01*
X88727379Y-96433127D01*
X88700655Y-96358510D01*
X88678063Y-96291107D01*
X88591959Y-96027143D01*
X88525870Y-96032104D01*
G36*
X87520008Y-96033673D02*
X87449573Y-96050780D01*
X87429213Y-96059844D01*
X87389747Y-96083583D01*
X87359459Y-96110321D01*
X87337048Y-96144699D01*
X87321214Y-96191360D01*
X87310657Y-96254946D01*
X87304076Y-96340099D01*
X87300172Y-96451462D01*
X87298690Y-96525849D01*
X87293235Y-96847526D01*
X87386420Y-96847526D01*
X87442953Y-96845156D01*
X87472078Y-96837055D01*
X87479606Y-96823451D01*
X87483580Y-96808741D01*
X87501348Y-96811554D01*
X87525560Y-96823348D01*
X87586172Y-96841427D01*
X87664071Y-96846299D01*
X87746005Y-96838330D01*
X87818719Y-96817889D01*
X87825241Y-96815051D01*
X87891698Y-96768365D01*
X87935509Y-96703464D01*
X87955668Y-96627600D01*
X87954128Y-96600344D01*
X87789655Y-96600344D01*
X87775163Y-96637024D01*
X87732195Y-96663309D01*
X87662871Y-96677417D01*
X87625823Y-96679290D01*
X87564081Y-96674494D01*
X87523040Y-96655858D01*
X87513027Y-96647000D01*
X87485900Y-96598806D01*
X87479606Y-96555092D01*
X87479606Y-96496605D01*
X87561070Y-96496605D01*
X87655766Y-96501432D01*
X87722187Y-96516613D01*
X87764154Y-96543200D01*
X87773551Y-96555052D01*
X87789655Y-96600344D01*
X87954128Y-96600344D01*
X87951171Y-96548026D01*
X87921015Y-96471995D01*
X87879869Y-96420612D01*
X87854948Y-96398397D01*
X87830552Y-96383798D01*
X87798809Y-96374897D01*
X87751848Y-96369775D01*
X87681796Y-96366515D01*
X87654010Y-96365577D01*
X87479606Y-96359879D01*
X87479862Y-96307091D01*
X87486616Y-96251603D01*
X87511036Y-96218052D01*
X87560370Y-96196618D01*
X87561694Y-96196236D01*
X87631640Y-96187808D01*
X87700086Y-96198816D01*
X87750953Y-96225585D01*
X87771363Y-96238803D01*
X87793346Y-96236974D01*
X87827174Y-96217824D01*
X87847039Y-96204308D01*
X87885894Y-96175432D01*
X87909962Y-96153786D01*
X87913824Y-96147589D01*
X87897921Y-96115519D01*
X87850935Y-96077219D01*
X87830527Y-96064297D01*
X87771857Y-96042041D01*
X87692788Y-96029432D01*
X87604959Y-96026600D01*
X87520008Y-96033673D01*
X87520008Y-96033673D01*
G37*
X87520008Y-96033673D02*
X87449573Y-96050780D01*
X87429213Y-96059844D01*
X87389747Y-96083583D01*
X87359459Y-96110321D01*
X87337048Y-96144699D01*
X87321214Y-96191360D01*
X87310657Y-96254946D01*
X87304076Y-96340099D01*
X87300172Y-96451462D01*
X87298690Y-96525849D01*
X87293235Y-96847526D01*
X87386420Y-96847526D01*
X87442953Y-96845156D01*
X87472078Y-96837055D01*
X87479606Y-96823451D01*
X87483580Y-96808741D01*
X87501348Y-96811554D01*
X87525560Y-96823348D01*
X87586172Y-96841427D01*
X87664071Y-96846299D01*
X87746005Y-96838330D01*
X87818719Y-96817889D01*
X87825241Y-96815051D01*
X87891698Y-96768365D01*
X87935509Y-96703464D01*
X87955668Y-96627600D01*
X87954128Y-96600344D01*
X87789655Y-96600344D01*
X87775163Y-96637024D01*
X87732195Y-96663309D01*
X87662871Y-96677417D01*
X87625823Y-96679290D01*
X87564081Y-96674494D01*
X87523040Y-96655858D01*
X87513027Y-96647000D01*
X87485900Y-96598806D01*
X87479606Y-96555092D01*
X87479606Y-96496605D01*
X87561070Y-96496605D01*
X87655766Y-96501432D01*
X87722187Y-96516613D01*
X87764154Y-96543200D01*
X87773551Y-96555052D01*
X87789655Y-96600344D01*
X87954128Y-96600344D01*
X87951171Y-96548026D01*
X87921015Y-96471995D01*
X87879869Y-96420612D01*
X87854948Y-96398397D01*
X87830552Y-96383798D01*
X87798809Y-96374897D01*
X87751848Y-96369775D01*
X87681796Y-96366515D01*
X87654010Y-96365577D01*
X87479606Y-96359879D01*
X87479862Y-96307091D01*
X87486616Y-96251603D01*
X87511036Y-96218052D01*
X87560370Y-96196618D01*
X87561694Y-96196236D01*
X87631640Y-96187808D01*
X87700086Y-96198816D01*
X87750953Y-96225585D01*
X87771363Y-96238803D01*
X87793346Y-96236974D01*
X87827174Y-96217824D01*
X87847039Y-96204308D01*
X87885894Y-96175432D01*
X87909962Y-96153786D01*
X87913824Y-96147589D01*
X87897921Y-96115519D01*
X87850935Y-96077219D01*
X87830527Y-96064297D01*
X87771857Y-96042041D01*
X87692788Y-96029432D01*
X87604959Y-96026600D01*
X87520008Y-96033673D01*
G36*
X86726833Y-96028447D02*
X86662592Y-96041112D01*
X86626020Y-96059864D01*
X86587547Y-96091017D01*
X86642283Y-96160127D01*
X86676031Y-96201979D01*
X86698947Y-96222398D01*
X86721721Y-96225517D01*
X86755044Y-96215472D01*
X86770686Y-96209789D01*
X86834458Y-96201404D01*
X86892860Y-96219378D01*
X86935736Y-96259982D01*
X86942701Y-96272929D01*
X86950287Y-96307224D01*
X86956141Y-96370427D01*
X86959989Y-96458060D01*
X86961557Y-96565640D01*
X86961579Y-96580944D01*
X86961579Y-96847526D01*
X87145395Y-96847526D01*
X87145395Y-96028710D01*
X87053487Y-96028710D01*
X87000493Y-96030094D01*
X86972885Y-96036252D01*
X86962676Y-96050194D01*
X86961579Y-96063344D01*
X86961579Y-96097978D01*
X86917550Y-96063344D01*
X86867063Y-96039716D01*
X86799240Y-96028033D01*
X86726833Y-96028447D01*
X86726833Y-96028447D01*
G37*
X86726833Y-96028447D02*
X86662592Y-96041112D01*
X86626020Y-96059864D01*
X86587547Y-96091017D01*
X86642283Y-96160127D01*
X86676031Y-96201979D01*
X86698947Y-96222398D01*
X86721721Y-96225517D01*
X86755044Y-96215472D01*
X86770686Y-96209789D01*
X86834458Y-96201404D01*
X86892860Y-96219378D01*
X86935736Y-96259982D01*
X86942701Y-96272929D01*
X86950287Y-96307224D01*
X86956141Y-96370427D01*
X86959989Y-96458060D01*
X86961557Y-96565640D01*
X86961579Y-96580944D01*
X86961579Y-96847526D01*
X87145395Y-96847526D01*
X87145395Y-96028710D01*
X87053487Y-96028710D01*
X87000493Y-96030094D01*
X86972885Y-96036252D01*
X86962676Y-96050194D01*
X86961579Y-96063344D01*
X86961579Y-96097978D01*
X86917550Y-96063344D01*
X86867063Y-96039716D01*
X86799240Y-96028033D01*
X86726833Y-96028447D01*
G36*
X86198807Y-96033078D02*
X86118932Y-96053845D01*
X86052038Y-96096705D01*
X86019649Y-96128723D01*
X85966555Y-96204413D01*
X85936127Y-96292216D01*
X85925673Y-96400150D01*
X85925620Y-96408875D01*
X85925527Y-96496605D01*
X86430466Y-96496605D01*
X86419702Y-96542559D01*
X86400268Y-96584178D01*
X86366255Y-96627544D01*
X86359140Y-96634467D01*
X86297997Y-96671935D01*
X86228271Y-96678289D01*
X86148013Y-96653638D01*
X86134408Y-96647000D01*
X86092681Y-96626819D01*
X86064732Y-96615321D01*
X86059855Y-96614258D01*
X86042832Y-96624583D01*
X86010367Y-96649845D01*
X85993886Y-96663650D01*
X85959736Y-96695361D01*
X85948522Y-96716299D01*
X85956305Y-96735560D01*
X85960465Y-96740827D01*
X85988643Y-96763878D01*
X86035138Y-96791892D01*
X86067566Y-96808246D01*
X86159615Y-96837059D01*
X86261524Y-96846395D01*
X86358037Y-96835332D01*
X86385066Y-96827412D01*
X86468724Y-96782581D01*
X86530734Y-96713598D01*
X86571455Y-96619794D01*
X86591245Y-96500498D01*
X86593418Y-96438118D01*
X86587074Y-96347298D01*
X86426843Y-96347298D01*
X86411345Y-96354012D01*
X86369688Y-96359280D01*
X86309124Y-96362389D01*
X86268093Y-96362921D01*
X86194289Y-96362408D01*
X86147707Y-96360006D01*
X86122152Y-96354422D01*
X86111431Y-96344361D01*
X86109343Y-96329763D01*
X86123669Y-96284796D01*
X86159738Y-96240353D01*
X86207185Y-96206242D01*
X86254651Y-96192288D01*
X86319121Y-96204666D01*
X86374930Y-96240452D01*
X86413626Y-96292033D01*
X86426843Y-96347298D01*
X86587074Y-96347298D01*
X86584179Y-96305866D01*
X86555664Y-96200498D01*
X86507271Y-96121178D01*
X86438396Y-96067071D01*
X86348435Y-96037343D01*
X86299700Y-96031618D01*
X86198807Y-96033078D01*
X86198807Y-96033078D01*
G37*
X86198807Y-96033078D02*
X86118932Y-96053845D01*
X86052038Y-96096705D01*
X86019649Y-96128723D01*
X85966555Y-96204413D01*
X85936127Y-96292216D01*
X85925673Y-96400150D01*
X85925620Y-96408875D01*
X85925527Y-96496605D01*
X86430466Y-96496605D01*
X86419702Y-96542559D01*
X86400268Y-96584178D01*
X86366255Y-96627544D01*
X86359140Y-96634467D01*
X86297997Y-96671935D01*
X86228271Y-96678289D01*
X86148013Y-96653638D01*
X86134408Y-96647000D01*
X86092681Y-96626819D01*
X86064732Y-96615321D01*
X86059855Y-96614258D01*
X86042832Y-96624583D01*
X86010367Y-96649845D01*
X85993886Y-96663650D01*
X85959736Y-96695361D01*
X85948522Y-96716299D01*
X85956305Y-96735560D01*
X85960465Y-96740827D01*
X85988643Y-96763878D01*
X86035138Y-96791892D01*
X86067566Y-96808246D01*
X86159615Y-96837059D01*
X86261524Y-96846395D01*
X86358037Y-96835332D01*
X86385066Y-96827412D01*
X86468724Y-96782581D01*
X86530734Y-96713598D01*
X86571455Y-96619794D01*
X86591245Y-96500498D01*
X86593418Y-96438118D01*
X86587074Y-96347298D01*
X86426843Y-96347298D01*
X86411345Y-96354012D01*
X86369688Y-96359280D01*
X86309124Y-96362389D01*
X86268093Y-96362921D01*
X86194289Y-96362408D01*
X86147707Y-96360006D01*
X86122152Y-96354422D01*
X86111431Y-96344361D01*
X86109343Y-96329763D01*
X86123669Y-96284796D01*
X86159738Y-96240353D01*
X86207185Y-96206242D01*
X86254651Y-96192288D01*
X86319121Y-96204666D01*
X86374930Y-96240452D01*
X86413626Y-96292033D01*
X86426843Y-96347298D01*
X86587074Y-96347298D01*
X86584179Y-96305866D01*
X86555664Y-96200498D01*
X86507271Y-96121178D01*
X86438396Y-96067071D01*
X86348435Y-96037343D01*
X86299700Y-96031618D01*
X86198807Y-96033078D01*
G36*
X92273216Y-94784104D02*
X92185795Y-94822754D01*
X92119430Y-94887290D01*
X92074024Y-94977812D01*
X92049482Y-95094418D01*
X92047723Y-95112624D01*
X92046344Y-95240984D01*
X92064216Y-95353496D01*
X92100250Y-95444688D01*
X92119545Y-95474022D01*
X92186755Y-95536106D01*
X92272350Y-95576316D01*
X92368110Y-95593003D01*
X92465813Y-95584517D01*
X92540083Y-95558380D01*
X92603953Y-95514335D01*
X92656154Y-95456587D01*
X92657057Y-95455236D01*
X92678256Y-95419593D01*
X92692033Y-95383752D01*
X92700376Y-95338519D01*
X92705273Y-95274701D01*
X92707431Y-95222368D01*
X92708329Y-95174910D01*
X92541257Y-95174910D01*
X92539624Y-95222154D01*
X92533696Y-95285046D01*
X92523239Y-95325407D01*
X92504381Y-95354122D01*
X92486719Y-95370896D01*
X92424106Y-95406016D01*
X92358592Y-95410710D01*
X92297579Y-95385440D01*
X92267072Y-95357124D01*
X92245089Y-95328589D01*
X92232231Y-95301284D01*
X92226588Y-95265750D01*
X92226249Y-95212524D01*
X92227988Y-95163506D01*
X92231729Y-95093482D01*
X92237659Y-95048064D01*
X92248347Y-95018440D01*
X92266361Y-94995797D01*
X92280637Y-94982855D01*
X92340349Y-94948860D01*
X92404766Y-94947165D01*
X92458781Y-94967301D01*
X92504860Y-95009352D01*
X92532311Y-95078428D01*
X92541257Y-95174910D01*
X92708329Y-95174910D01*
X92709401Y-95118299D01*
X92706036Y-95040468D01*
X92695955Y-94981930D01*
X92677774Y-94935737D01*
X92650110Y-94894942D01*
X92639854Y-94882828D01*
X92575722Y-94822474D01*
X92506934Y-94787220D01*
X92422811Y-94772450D01*
X92381791Y-94771243D01*
X92273216Y-94784104D01*
X92273216Y-94784104D01*
G37*
X92273216Y-94784104D02*
X92185795Y-94822754D01*
X92119430Y-94887290D01*
X92074024Y-94977812D01*
X92049482Y-95094418D01*
X92047723Y-95112624D01*
X92046344Y-95240984D01*
X92064216Y-95353496D01*
X92100250Y-95444688D01*
X92119545Y-95474022D01*
X92186755Y-95536106D01*
X92272350Y-95576316D01*
X92368110Y-95593003D01*
X92465813Y-95584517D01*
X92540083Y-95558380D01*
X92603953Y-95514335D01*
X92656154Y-95456587D01*
X92657057Y-95455236D01*
X92678256Y-95419593D01*
X92692033Y-95383752D01*
X92700376Y-95338519D01*
X92705273Y-95274701D01*
X92707431Y-95222368D01*
X92708329Y-95174910D01*
X92541257Y-95174910D01*
X92539624Y-95222154D01*
X92533696Y-95285046D01*
X92523239Y-95325407D01*
X92504381Y-95354122D01*
X92486719Y-95370896D01*
X92424106Y-95406016D01*
X92358592Y-95410710D01*
X92297579Y-95385440D01*
X92267072Y-95357124D01*
X92245089Y-95328589D01*
X92232231Y-95301284D01*
X92226588Y-95265750D01*
X92226249Y-95212524D01*
X92227988Y-95163506D01*
X92231729Y-95093482D01*
X92237659Y-95048064D01*
X92248347Y-95018440D01*
X92266361Y-94995797D01*
X92280637Y-94982855D01*
X92340349Y-94948860D01*
X92404766Y-94947165D01*
X92458781Y-94967301D01*
X92504860Y-95009352D01*
X92532311Y-95078428D01*
X92541257Y-95174910D01*
X92708329Y-95174910D01*
X92709401Y-95118299D01*
X92706036Y-95040468D01*
X92695955Y-94981930D01*
X92677774Y-94935737D01*
X92650110Y-94894942D01*
X92639854Y-94882828D01*
X92575722Y-94822474D01*
X92506934Y-94787220D01*
X92422811Y-94772450D01*
X92381791Y-94771243D01*
X92273216Y-94784104D01*
G36*
X90702982Y-94794027D02*
X90686330Y-94801866D01*
X90628695Y-94844086D01*
X90574195Y-94905700D01*
X90533501Y-94973543D01*
X90521926Y-95004734D01*
X90511366Y-95060449D01*
X90505069Y-95127781D01*
X90504304Y-95155585D01*
X90504211Y-95243316D01*
X91009150Y-95243316D01*
X90998387Y-95289270D01*
X90971967Y-95343620D01*
X90925778Y-95390591D01*
X90870828Y-95420848D01*
X90835811Y-95427131D01*
X90788323Y-95419506D01*
X90731665Y-95400383D01*
X90712418Y-95391584D01*
X90641241Y-95356036D01*
X90580498Y-95402367D01*
X90545448Y-95433703D01*
X90526798Y-95459567D01*
X90525853Y-95467158D01*
X90542515Y-95485556D01*
X90579030Y-95513515D01*
X90612172Y-95535327D01*
X90701607Y-95574537D01*
X90801871Y-95592285D01*
X90901246Y-95587670D01*
X90980461Y-95563551D01*
X91062120Y-95511884D01*
X91120151Y-95443856D01*
X91156454Y-95355843D01*
X91172928Y-95244216D01*
X91174389Y-95193138D01*
X91168543Y-95076091D01*
X91167825Y-95072686D01*
X91000511Y-95072686D01*
X90995903Y-95083662D01*
X90976964Y-95089715D01*
X90937902Y-95092310D01*
X90872923Y-95092910D01*
X90847903Y-95092921D01*
X90771779Y-95092014D01*
X90723504Y-95088720D01*
X90697540Y-95082181D01*
X90688352Y-95071537D01*
X90688027Y-95068119D01*
X90698513Y-95040956D01*
X90724758Y-95002903D01*
X90736041Y-94989579D01*
X90777928Y-94951896D01*
X90821591Y-94937080D01*
X90845115Y-94935842D01*
X90908757Y-94951329D01*
X90962127Y-94992930D01*
X90995981Y-95053353D01*
X90996581Y-95055322D01*
X91000511Y-95072686D01*
X91167825Y-95072686D01*
X91149101Y-94983928D01*
X91114078Y-94910190D01*
X91071244Y-94857848D01*
X90992052Y-94801092D01*
X90898960Y-94770762D01*
X90799945Y-94768021D01*
X90702982Y-94794027D01*
X90702982Y-94794027D01*
G37*
X90702982Y-94794027D02*
X90686330Y-94801866D01*
X90628695Y-94844086D01*
X90574195Y-94905700D01*
X90533501Y-94973543D01*
X90521926Y-95004734D01*
X90511366Y-95060449D01*
X90505069Y-95127781D01*
X90504304Y-95155585D01*
X90504211Y-95243316D01*
X91009150Y-95243316D01*
X90998387Y-95289270D01*
X90971967Y-95343620D01*
X90925778Y-95390591D01*
X90870828Y-95420848D01*
X90835811Y-95427131D01*
X90788323Y-95419506D01*
X90731665Y-95400383D01*
X90712418Y-95391584D01*
X90641241Y-95356036D01*
X90580498Y-95402367D01*
X90545448Y-95433703D01*
X90526798Y-95459567D01*
X90525853Y-95467158D01*
X90542515Y-95485556D01*
X90579030Y-95513515D01*
X90612172Y-95535327D01*
X90701607Y-95574537D01*
X90801871Y-95592285D01*
X90901246Y-95587670D01*
X90980461Y-95563551D01*
X91062120Y-95511884D01*
X91120151Y-95443856D01*
X91156454Y-95355843D01*
X91172928Y-95244216D01*
X91174389Y-95193138D01*
X91168543Y-95076091D01*
X91167825Y-95072686D01*
X91000511Y-95072686D01*
X90995903Y-95083662D01*
X90976964Y-95089715D01*
X90937902Y-95092310D01*
X90872923Y-95092910D01*
X90847903Y-95092921D01*
X90771779Y-95092014D01*
X90723504Y-95088720D01*
X90697540Y-95082181D01*
X90688352Y-95071537D01*
X90688027Y-95068119D01*
X90698513Y-95040956D01*
X90724758Y-95002903D01*
X90736041Y-94989579D01*
X90777928Y-94951896D01*
X90821591Y-94937080D01*
X90845115Y-94935842D01*
X90908757Y-94951329D01*
X90962127Y-94992930D01*
X90995981Y-95053353D01*
X90996581Y-95055322D01*
X91000511Y-95072686D01*
X91167825Y-95072686D01*
X91149101Y-94983928D01*
X91114078Y-94910190D01*
X91071244Y-94857848D01*
X90992052Y-94801092D01*
X90898960Y-94770762D01*
X90799945Y-94768021D01*
X90702982Y-94794027D01*
G36*
X88881372Y-94772547D02*
X88818092Y-94784548D01*
X88752443Y-94809648D01*
X88745428Y-94812848D01*
X88695644Y-94839026D01*
X88661166Y-94863353D01*
X88650022Y-94878937D01*
X88660634Y-94904353D01*
X88686412Y-94941853D01*
X88697854Y-94955852D01*
X88745008Y-95010954D01*
X88805799Y-94975086D01*
X88863653Y-94951192D01*
X88930500Y-94938420D01*
X88994606Y-94937613D01*
X89044236Y-94949615D01*
X89056146Y-94957105D01*
X89078828Y-94991450D01*
X89081584Y-95031013D01*
X89064612Y-95061920D01*
X89054573Y-95067913D01*
X89024490Y-95075357D01*
X88971611Y-95084106D01*
X88906425Y-95092467D01*
X88894400Y-95093778D01*
X88789703Y-95111888D01*
X88713768Y-95142651D01*
X88663408Y-95188907D01*
X88635436Y-95253497D01*
X88626722Y-95332387D01*
X88638760Y-95422065D01*
X88677849Y-95492486D01*
X88744145Y-95543777D01*
X88837806Y-95576067D01*
X88941777Y-95588807D01*
X89026562Y-95588654D01*
X89095335Y-95577083D01*
X89142303Y-95561109D01*
X89201650Y-95533275D01*
X89256494Y-95500973D01*
X89275987Y-95486755D01*
X89326119Y-95445835D01*
X89205197Y-95323477D01*
X89136457Y-95368967D01*
X89067512Y-95403133D01*
X88993889Y-95421004D01*
X88923117Y-95422889D01*
X88862726Y-95409101D01*
X88820243Y-95379949D01*
X88806526Y-95355352D01*
X88808583Y-95315904D01*
X88842670Y-95285737D01*
X88908692Y-95264906D01*
X88981026Y-95255279D01*
X89092348Y-95236910D01*
X89175048Y-95202254D01*
X89230235Y-95150297D01*
X89259012Y-95080023D01*
X89262999Y-94996707D01*
X89243307Y-94909681D01*
X89198411Y-94843902D01*
X89127909Y-94799068D01*
X89031399Y-94774879D01*
X88959900Y-94770137D01*
X88881372Y-94772547D01*
X88881372Y-94772547D01*
G37*
X88881372Y-94772547D02*
X88818092Y-94784548D01*
X88752443Y-94809648D01*
X88745428Y-94812848D01*
X88695644Y-94839026D01*
X88661166Y-94863353D01*
X88650022Y-94878937D01*
X88660634Y-94904353D01*
X88686412Y-94941853D01*
X88697854Y-94955852D01*
X88745008Y-95010954D01*
X88805799Y-94975086D01*
X88863653Y-94951192D01*
X88930500Y-94938420D01*
X88994606Y-94937613D01*
X89044236Y-94949615D01*
X89056146Y-94957105D01*
X89078828Y-94991450D01*
X89081584Y-95031013D01*
X89064612Y-95061920D01*
X89054573Y-95067913D01*
X89024490Y-95075357D01*
X88971611Y-95084106D01*
X88906425Y-95092467D01*
X88894400Y-95093778D01*
X88789703Y-95111888D01*
X88713768Y-95142651D01*
X88663408Y-95188907D01*
X88635436Y-95253497D01*
X88626722Y-95332387D01*
X88638760Y-95422065D01*
X88677849Y-95492486D01*
X88744145Y-95543777D01*
X88837806Y-95576067D01*
X88941777Y-95588807D01*
X89026562Y-95588654D01*
X89095335Y-95577083D01*
X89142303Y-95561109D01*
X89201650Y-95533275D01*
X89256494Y-95500973D01*
X89275987Y-95486755D01*
X89326119Y-95445835D01*
X89205197Y-95323477D01*
X89136457Y-95368967D01*
X89067512Y-95403133D01*
X88993889Y-95421004D01*
X88923117Y-95422889D01*
X88862726Y-95409101D01*
X88820243Y-95379949D01*
X88806526Y-95355352D01*
X88808583Y-95315904D01*
X88842670Y-95285737D01*
X88908692Y-95264906D01*
X88981026Y-95255279D01*
X89092348Y-95236910D01*
X89175048Y-95202254D01*
X89230235Y-95150297D01*
X89259012Y-95080023D01*
X89262999Y-94996707D01*
X89243307Y-94909681D01*
X89198411Y-94843902D01*
X89127909Y-94799068D01*
X89031399Y-94774879D01*
X88959900Y-94770137D01*
X88881372Y-94772547D01*
G36*
X88088331Y-94785310D02*
X88003808Y-94831340D01*
X87937679Y-94904006D01*
X87906522Y-94963106D01*
X87893145Y-95015305D01*
X87884478Y-95089719D01*
X87880763Y-95175442D01*
X87882246Y-95261569D01*
X87889169Y-95337193D01*
X87897255Y-95377584D01*
X87924535Y-95432840D01*
X87971780Y-95491530D01*
X88028718Y-95542852D01*
X88085076Y-95576005D01*
X88086450Y-95576531D01*
X88156384Y-95591018D01*
X88239263Y-95591377D01*
X88318023Y-95578188D01*
X88348434Y-95567617D01*
X88426761Y-95523201D01*
X88482857Y-95465007D01*
X88519714Y-95387965D01*
X88540320Y-95287001D01*
X88544982Y-95234116D01*
X88544387Y-95167663D01*
X88365264Y-95167663D01*
X88359230Y-95264630D01*
X88341862Y-95338523D01*
X88314260Y-95385736D01*
X88294596Y-95399237D01*
X88244213Y-95408651D01*
X88184327Y-95405864D01*
X88132551Y-95392316D01*
X88118973Y-95384862D01*
X88083151Y-95341451D01*
X88059507Y-95275014D01*
X88049442Y-95194161D01*
X88054358Y-95107502D01*
X88065345Y-95055349D01*
X88096891Y-94994951D01*
X88146689Y-94957197D01*
X88206663Y-94944143D01*
X88268736Y-94957849D01*
X88316418Y-94991372D01*
X88341475Y-95019031D01*
X88356100Y-95046294D01*
X88363071Y-95083190D01*
X88365167Y-95139750D01*
X88365264Y-95167663D01*
X88544387Y-95167663D01*
X88543718Y-95092994D01*
X88520735Y-94977271D01*
X88476028Y-94886941D01*
X88409595Y-94822000D01*
X88321435Y-94782445D01*
X88302505Y-94777858D01*
X88188734Y-94767090D01*
X88088331Y-94785310D01*
X88088331Y-94785310D01*
G37*
X88088331Y-94785310D02*
X88003808Y-94831340D01*
X87937679Y-94904006D01*
X87906522Y-94963106D01*
X87893145Y-95015305D01*
X87884478Y-95089719D01*
X87880763Y-95175442D01*
X87882246Y-95261569D01*
X87889169Y-95337193D01*
X87897255Y-95377584D01*
X87924535Y-95432840D01*
X87971780Y-95491530D01*
X88028718Y-95542852D01*
X88085076Y-95576005D01*
X88086450Y-95576531D01*
X88156384Y-95591018D01*
X88239263Y-95591377D01*
X88318023Y-95578188D01*
X88348434Y-95567617D01*
X88426761Y-95523201D01*
X88482857Y-95465007D01*
X88519714Y-95387965D01*
X88540320Y-95287001D01*
X88544982Y-95234116D01*
X88544387Y-95167663D01*
X88365264Y-95167663D01*
X88359230Y-95264630D01*
X88341862Y-95338523D01*
X88314260Y-95385736D01*
X88294596Y-95399237D01*
X88244213Y-95408651D01*
X88184327Y-95405864D01*
X88132551Y-95392316D01*
X88118973Y-95384862D01*
X88083151Y-95341451D01*
X88059507Y-95275014D01*
X88049442Y-95194161D01*
X88054358Y-95107502D01*
X88065345Y-95055349D01*
X88096891Y-94994951D01*
X88146689Y-94957197D01*
X88206663Y-94944143D01*
X88268736Y-94957849D01*
X88316418Y-94991372D01*
X88341475Y-95019031D01*
X88356100Y-95046294D01*
X88363071Y-95083190D01*
X88365167Y-95139750D01*
X88365264Y-95167663D01*
X88544387Y-95167663D01*
X88543718Y-95092994D01*
X88520735Y-94977271D01*
X88476028Y-94886941D01*
X88409595Y-94822000D01*
X88321435Y-94782445D01*
X88302505Y-94777858D01*
X88188734Y-94767090D01*
X88088331Y-94785310D01*
G36*
X87579869Y-95035533D02*
X87578290Y-95158089D01*
X87572519Y-95251179D01*
X87561009Y-95318651D01*
X87542210Y-95364355D01*
X87514574Y-95392139D01*
X87476552Y-95405854D01*
X87429474Y-95409358D01*
X87380168Y-95405432D01*
X87342717Y-95391089D01*
X87315572Y-95362478D01*
X87297185Y-95315751D01*
X87286007Y-95247058D01*
X87280489Y-95152550D01*
X87279079Y-95035533D01*
X87279079Y-94775421D01*
X87095264Y-94775421D01*
X87095264Y-95577526D01*
X87187172Y-95577526D01*
X87242578Y-95575281D01*
X87271109Y-95567396D01*
X87279079Y-95552428D01*
X87283880Y-95539097D01*
X87302986Y-95541917D01*
X87341496Y-95560783D01*
X87429761Y-95589887D01*
X87523377Y-95587825D01*
X87613079Y-95556221D01*
X87655796Y-95531257D01*
X87688379Y-95504226D01*
X87712183Y-95470405D01*
X87728561Y-95425068D01*
X87738869Y-95363489D01*
X87744459Y-95280943D01*
X87746688Y-95172705D01*
X87746974Y-95089004D01*
X87746974Y-94775421D01*
X87579869Y-94775421D01*
X87579869Y-95035533D01*
X87579869Y-95035533D01*
G37*
X87579869Y-95035533D02*
X87578290Y-95158089D01*
X87572519Y-95251179D01*
X87561009Y-95318651D01*
X87542210Y-95364355D01*
X87514574Y-95392139D01*
X87476552Y-95405854D01*
X87429474Y-95409358D01*
X87380168Y-95405432D01*
X87342717Y-95391089D01*
X87315572Y-95362478D01*
X87297185Y-95315751D01*
X87286007Y-95247058D01*
X87280489Y-95152550D01*
X87279079Y-95035533D01*
X87279079Y-94775421D01*
X87095264Y-94775421D01*
X87095264Y-95577526D01*
X87187172Y-95577526D01*
X87242578Y-95575281D01*
X87271109Y-95567396D01*
X87279079Y-95552428D01*
X87283880Y-95539097D01*
X87302986Y-95541917D01*
X87341496Y-95560783D01*
X87429761Y-95589887D01*
X87523377Y-95587825D01*
X87613079Y-95556221D01*
X87655796Y-95531257D01*
X87688379Y-95504226D01*
X87712183Y-95470405D01*
X87728561Y-95425068D01*
X87738869Y-95363489D01*
X87744459Y-95280943D01*
X87746688Y-95172705D01*
X87746974Y-95089004D01*
X87746974Y-94775421D01*
X87579869Y-94775421D01*
X87579869Y-95035533D01*
G36*
X85953424Y-94782419D02*
X85856605Y-94823549D01*
X85826110Y-94843571D01*
X85787135Y-94874340D01*
X85762669Y-94898533D01*
X85758422Y-94906413D01*
X85770416Y-94923899D01*
X85801113Y-94953570D01*
X85825688Y-94974279D01*
X85892954Y-95028336D01*
X85946070Y-94983642D01*
X85987116Y-94954789D01*
X86027137Y-94944829D01*
X86072941Y-94947261D01*
X86145676Y-94965345D01*
X86195744Y-95002881D01*
X86226171Y-95063562D01*
X86239983Y-95151081D01*
X86239987Y-95151136D01*
X86238792Y-95248958D01*
X86220228Y-95320730D01*
X86183196Y-95369595D01*
X86157950Y-95386143D01*
X86090903Y-95406749D01*
X86019291Y-95406762D01*
X85956985Y-95386768D01*
X85942237Y-95377000D01*
X85905250Y-95352047D01*
X85876332Y-95347958D01*
X85845144Y-95366530D01*
X85810664Y-95399887D01*
X85756088Y-95456196D01*
X85816682Y-95506142D01*
X85910302Y-95562513D01*
X86015875Y-95590293D01*
X86126202Y-95588282D01*
X86198657Y-95569862D01*
X86283344Y-95524310D01*
X86351073Y-95452650D01*
X86381843Y-95402066D01*
X86406764Y-95329488D01*
X86419234Y-95237569D01*
X86419330Y-95137948D01*
X86407130Y-95042267D01*
X86382710Y-94962169D01*
X86378864Y-94953956D01*
X86321907Y-94873413D01*
X86244791Y-94814771D01*
X86153610Y-94779247D01*
X86054457Y-94768057D01*
X85953424Y-94782419D01*
X85953424Y-94782419D01*
G37*
X85953424Y-94782419D02*
X85856605Y-94823549D01*
X85826110Y-94843571D01*
X85787135Y-94874340D01*
X85762669Y-94898533D01*
X85758422Y-94906413D01*
X85770416Y-94923899D01*
X85801113Y-94953570D01*
X85825688Y-94974279D01*
X85892954Y-95028336D01*
X85946070Y-94983642D01*
X85987116Y-94954789D01*
X86027137Y-94944829D01*
X86072941Y-94947261D01*
X86145676Y-94965345D01*
X86195744Y-95002881D01*
X86226171Y-95063562D01*
X86239983Y-95151081D01*
X86239987Y-95151136D01*
X86238792Y-95248958D01*
X86220228Y-95320730D01*
X86183196Y-95369595D01*
X86157950Y-95386143D01*
X86090903Y-95406749D01*
X86019291Y-95406762D01*
X85956985Y-95386768D01*
X85942237Y-95377000D01*
X85905250Y-95352047D01*
X85876332Y-95347958D01*
X85845144Y-95366530D01*
X85810664Y-95399887D01*
X85756088Y-95456196D01*
X85816682Y-95506142D01*
X85910302Y-95562513D01*
X86015875Y-95590293D01*
X86126202Y-95588282D01*
X86198657Y-95569862D01*
X86283344Y-95524310D01*
X86351073Y-95452650D01*
X86381843Y-95402066D01*
X86406764Y-95329488D01*
X86419234Y-95237569D01*
X86419330Y-95137948D01*
X86407130Y-95042267D01*
X86382710Y-94962169D01*
X86378864Y-94953956D01*
X86321907Y-94873413D01*
X86244791Y-94814771D01*
X86153610Y-94779247D01*
X86054457Y-94768057D01*
X85953424Y-94782419D01*
G36*
X85341216Y-94772554D02*
X85298426Y-94782949D01*
X85216391Y-94821013D01*
X85146243Y-94879149D01*
X85097695Y-94948852D01*
X85091025Y-94964502D01*
X85081876Y-95005496D01*
X85075471Y-95066138D01*
X85073290Y-95127430D01*
X85073290Y-95243316D01*
X85315593Y-95243316D01*
X85415529Y-95243693D01*
X85485931Y-95245987D01*
X85530687Y-95251938D01*
X85553685Y-95263285D01*
X85558811Y-95281771D01*
X85549952Y-95309136D01*
X85534083Y-95341155D01*
X85489816Y-95394592D01*
X85428301Y-95421215D01*
X85353115Y-95420347D01*
X85267947Y-95391371D01*
X85194341Y-95355611D01*
X85133266Y-95403904D01*
X85072190Y-95452197D01*
X85129649Y-95505285D01*
X85206359Y-95555445D01*
X85300698Y-95585688D01*
X85402173Y-95594151D01*
X85500289Y-95578974D01*
X85516119Y-95573824D01*
X85602353Y-95528791D01*
X85666499Y-95461652D01*
X85709909Y-95370405D01*
X85733936Y-95253044D01*
X85734216Y-95250529D01*
X85736367Y-95122627D01*
X85727671Y-95076997D01*
X85557895Y-95076997D01*
X85542303Y-95084013D01*
X85499971Y-95089388D01*
X85437566Y-95092457D01*
X85398019Y-95092921D01*
X85324272Y-95092630D01*
X85278160Y-95090783D01*
X85253900Y-95085912D01*
X85245706Y-95076555D01*
X85247794Y-95061245D01*
X85249545Y-95055322D01*
X85279440Y-94999668D01*
X85326458Y-94954815D01*
X85367951Y-94935105D01*
X85423074Y-94936295D01*
X85478932Y-94960875D01*
X85525788Y-95001570D01*
X85553906Y-95051108D01*
X85557895Y-95076997D01*
X85727671Y-95076997D01*
X85714926Y-95010133D01*
X85672389Y-94915727D01*
X85611253Y-94842088D01*
X85534015Y-94791893D01*
X85443170Y-94767822D01*
X85341216Y-94772554D01*
X85341216Y-94772554D01*
G37*
X85341216Y-94772554D02*
X85298426Y-94782949D01*
X85216391Y-94821013D01*
X85146243Y-94879149D01*
X85097695Y-94948852D01*
X85091025Y-94964502D01*
X85081876Y-95005496D01*
X85075471Y-95066138D01*
X85073290Y-95127430D01*
X85073290Y-95243316D01*
X85315593Y-95243316D01*
X85415529Y-95243693D01*
X85485931Y-95245987D01*
X85530687Y-95251938D01*
X85553685Y-95263285D01*
X85558811Y-95281771D01*
X85549952Y-95309136D01*
X85534083Y-95341155D01*
X85489816Y-95394592D01*
X85428301Y-95421215D01*
X85353115Y-95420347D01*
X85267947Y-95391371D01*
X85194341Y-95355611D01*
X85133266Y-95403904D01*
X85072190Y-95452197D01*
X85129649Y-95505285D01*
X85206359Y-95555445D01*
X85300698Y-95585688D01*
X85402173Y-95594151D01*
X85500289Y-95578974D01*
X85516119Y-95573824D01*
X85602353Y-95528791D01*
X85666499Y-95461652D01*
X85709909Y-95370405D01*
X85733936Y-95253044D01*
X85734216Y-95250529D01*
X85736367Y-95122627D01*
X85727671Y-95076997D01*
X85557895Y-95076997D01*
X85542303Y-95084013D01*
X85499971Y-95089388D01*
X85437566Y-95092457D01*
X85398019Y-95092921D01*
X85324272Y-95092630D01*
X85278160Y-95090783D01*
X85253900Y-95085912D01*
X85245706Y-95076555D01*
X85247794Y-95061245D01*
X85249545Y-95055322D01*
X85279440Y-94999668D01*
X85326458Y-94954815D01*
X85367951Y-94935105D01*
X85423074Y-94936295D01*
X85478932Y-94960875D01*
X85525788Y-95001570D01*
X85553906Y-95051108D01*
X85557895Y-95076997D01*
X85727671Y-95076997D01*
X85714926Y-95010133D01*
X85672389Y-94915727D01*
X85611253Y-94842088D01*
X85534015Y-94791893D01*
X85443170Y-94767822D01*
X85341216Y-94772554D01*
G36*
X89902043Y-94789226D02*
X89860454Y-94809090D01*
X89820175Y-94837784D01*
X89789490Y-94870809D01*
X89767139Y-94912931D01*
X89751864Y-94968915D01*
X89742408Y-95043528D01*
X89737513Y-95141535D01*
X89735919Y-95267702D01*
X89735894Y-95280914D01*
X89735527Y-95577526D01*
X89919343Y-95577526D01*
X89919343Y-95304081D01*
X89919473Y-95202777D01*
X89920379Y-95129353D01*
X89922827Y-95078271D01*
X89927586Y-95043990D01*
X89935426Y-95020971D01*
X89947115Y-95003673D01*
X89963398Y-94986581D01*
X90020366Y-94949857D01*
X90082555Y-94943042D01*
X90141801Y-94966261D01*
X90162405Y-94983543D01*
X90177530Y-94999791D01*
X90188390Y-95017191D01*
X90195690Y-95041212D01*
X90200137Y-95077322D01*
X90202436Y-95130988D01*
X90203296Y-95207680D01*
X90203422Y-95301043D01*
X90203422Y-95577526D01*
X90387237Y-95577526D01*
X90387237Y-94775421D01*
X90295329Y-94775421D01*
X90240149Y-94777603D01*
X90211680Y-94785351D01*
X90203425Y-94800468D01*
X90203422Y-94800916D01*
X90199592Y-94815720D01*
X90182699Y-94814040D01*
X90149112Y-94797773D01*
X90072937Y-94773840D01*
X89985800Y-94771178D01*
X89902043Y-94789226D01*
X89902043Y-94789226D01*
G37*
X89902043Y-94789226D02*
X89860454Y-94809090D01*
X89820175Y-94837784D01*
X89789490Y-94870809D01*
X89767139Y-94912931D01*
X89751864Y-94968915D01*
X89742408Y-95043528D01*
X89737513Y-95141535D01*
X89735919Y-95267702D01*
X89735894Y-95280914D01*
X89735527Y-95577526D01*
X89919343Y-95577526D01*
X89919343Y-95304081D01*
X89919473Y-95202777D01*
X89920379Y-95129353D01*
X89922827Y-95078271D01*
X89927586Y-95043990D01*
X89935426Y-95020971D01*
X89947115Y-95003673D01*
X89963398Y-94986581D01*
X90020366Y-94949857D01*
X90082555Y-94943042D01*
X90141801Y-94966261D01*
X90162405Y-94983543D01*
X90177530Y-94999791D01*
X90188390Y-95017191D01*
X90195690Y-95041212D01*
X90200137Y-95077322D01*
X90202436Y-95130988D01*
X90203296Y-95207680D01*
X90203422Y-95301043D01*
X90203422Y-95577526D01*
X90387237Y-95577526D01*
X90387237Y-94775421D01*
X90295329Y-94775421D01*
X90240149Y-94777603D01*
X90211680Y-94785351D01*
X90203425Y-94800468D01*
X90203422Y-94800916D01*
X90199592Y-94815720D01*
X90182699Y-94814040D01*
X90149112Y-94797773D01*
X90072937Y-94773840D01*
X89985800Y-94771178D01*
X89902043Y-94789226D01*
G36*
X86508612Y-94774645D02*
X86451135Y-94792206D01*
X86414128Y-94814395D01*
X86402073Y-94831942D01*
X86405391Y-94852742D01*
X86426921Y-94885419D01*
X86445126Y-94908562D01*
X86482656Y-94950402D01*
X86510852Y-94968005D01*
X86534889Y-94966856D01*
X86606192Y-94948710D01*
X86658558Y-94949534D01*
X86701082Y-94970098D01*
X86715358Y-94982134D01*
X86761053Y-95024483D01*
X86761053Y-95577526D01*
X86944869Y-95577526D01*
X86944869Y-94775421D01*
X86852961Y-94775421D01*
X86797781Y-94777603D01*
X86769312Y-94785351D01*
X86761057Y-94800468D01*
X86761053Y-94800916D01*
X86757155Y-94816749D01*
X86739526Y-94814684D01*
X86715099Y-94803261D01*
X86664650Y-94782005D01*
X86623684Y-94769216D01*
X86570972Y-94765938D01*
X86508612Y-94774645D01*
X86508612Y-94774645D01*
G37*
X86508612Y-94774645D02*
X86451135Y-94792206D01*
X86414128Y-94814395D01*
X86402073Y-94831942D01*
X86405391Y-94852742D01*
X86426921Y-94885419D01*
X86445126Y-94908562D01*
X86482656Y-94950402D01*
X86510852Y-94968005D01*
X86534889Y-94966856D01*
X86606192Y-94948710D01*
X86658558Y-94949534D01*
X86701082Y-94970098D01*
X86715358Y-94982134D01*
X86761053Y-95024483D01*
X86761053Y-95577526D01*
X86944869Y-95577526D01*
X86944869Y-94775421D01*
X86852961Y-94775421D01*
X86797781Y-94777603D01*
X86769312Y-94785351D01*
X86761057Y-94800468D01*
X86761053Y-94800916D01*
X86757155Y-94816749D01*
X86739526Y-94814684D01*
X86715099Y-94803261D01*
X86664650Y-94782005D01*
X86623684Y-94769216D01*
X86570972Y-94765938D01*
X86508612Y-94774645D01*
G36*
X88399036Y-89235576D02*
X88323487Y-89636322D01*
X87765959Y-89866154D01*
X87431535Y-89638748D01*
X87337878Y-89575431D01*
X87253218Y-89518896D01*
X87181505Y-89471727D01*
X87126689Y-89436502D01*
X87092720Y-89415805D01*
X87083470Y-89411342D01*
X87066805Y-89422820D01*
X87031194Y-89454551D01*
X86980629Y-89502483D01*
X86919100Y-89562562D01*
X86850601Y-89630733D01*
X86779121Y-89702945D01*
X86708653Y-89775142D01*
X86643189Y-89843273D01*
X86586720Y-89903283D01*
X86543237Y-89951119D01*
X86516732Y-89982727D01*
X86510395Y-89993305D01*
X86519514Y-90012806D01*
X86545080Y-90055531D01*
X86584403Y-90117298D01*
X86634797Y-90193931D01*
X86693573Y-90281248D01*
X86727632Y-90331052D01*
X86789711Y-90421993D01*
X86844874Y-90504059D01*
X86890446Y-90573163D01*
X86923750Y-90625222D01*
X86942110Y-90656150D01*
X86944869Y-90662650D01*
X86938615Y-90681121D01*
X86921566Y-90724172D01*
X86896297Y-90785749D01*
X86865378Y-90859799D01*
X86831382Y-90940270D01*
X86796882Y-91021107D01*
X86764449Y-91096258D01*
X86736657Y-91159671D01*
X86716077Y-91205293D01*
X86705281Y-91227069D01*
X86704644Y-91227926D01*
X86687693Y-91232084D01*
X86642549Y-91241361D01*
X86573890Y-91254844D01*
X86486398Y-91271621D01*
X86384750Y-91290781D01*
X86325444Y-91301830D01*
X86216828Y-91322510D01*
X86118723Y-91342189D01*
X86036091Y-91359789D01*
X85973896Y-91374233D01*
X85937101Y-91384446D01*
X85929704Y-91387686D01*
X85922460Y-91409617D01*
X85916615Y-91459147D01*
X85912165Y-91530485D01*
X85909107Y-91617839D01*
X85907435Y-91715417D01*
X85907147Y-91817426D01*
X85908239Y-91918075D01*
X85910706Y-92011572D01*
X85914544Y-92092125D01*
X85919750Y-92153942D01*
X85926319Y-92191230D01*
X85930259Y-92198993D01*
X85953812Y-92208298D01*
X86003718Y-92221600D01*
X86073377Y-92237337D01*
X86156187Y-92253946D01*
X86185095Y-92259319D01*
X86324469Y-92284848D01*
X86434564Y-92305408D01*
X86519018Y-92321815D01*
X86581470Y-92334887D01*
X86625556Y-92345441D01*
X86654915Y-92354294D01*
X86673185Y-92362263D01*
X86684002Y-92370165D01*
X86685515Y-92371727D01*
X86700623Y-92396886D01*
X86723671Y-92445850D01*
X86752356Y-92512621D01*
X86784378Y-92591205D01*
X86817435Y-92675607D01*
X86849227Y-92759830D01*
X86877451Y-92837879D01*
X86899807Y-92903759D01*
X86913993Y-92951473D01*
X86917707Y-92975027D01*
X86917398Y-92975852D01*
X86904811Y-92995104D01*
X86876256Y-93037463D01*
X86834733Y-93098521D01*
X86783244Y-93173868D01*
X86724789Y-93259096D01*
X86708142Y-93283315D01*
X86648785Y-93371123D01*
X86596553Y-93451238D01*
X86554292Y-93519062D01*
X86524847Y-93569993D01*
X86511063Y-93599431D01*
X86510395Y-93603048D01*
X86521976Y-93622057D01*
X86553976Y-93659714D01*
X86602282Y-93711973D01*
X86662780Y-93774786D01*
X86731356Y-93844106D01*
X86803896Y-93915885D01*
X86876288Y-93986077D01*
X86944416Y-94050635D01*
X87004168Y-94105510D01*
X87051429Y-94146656D01*
X87082087Y-94170026D01*
X87090568Y-94173842D01*
X87110309Y-94164855D01*
X87150726Y-94140616D01*
X87205237Y-94105209D01*
X87247177Y-94076711D01*
X87323171Y-94024418D01*
X87413166Y-93962845D01*
X87503436Y-93901370D01*
X87551968Y-93868469D01*
X87716238Y-93757359D01*
X87854131Y-93831916D01*
X87916951Y-93864578D01*
X87970371Y-93889966D01*
X88006516Y-93904446D01*
X88015716Y-93906460D01*
X88026779Y-93891584D01*
X88048606Y-93849547D01*
X88079566Y-93784227D01*
X88118030Y-93699500D01*
X88162368Y-93599245D01*
X88210953Y-93487339D01*
X88262154Y-93367659D01*
X88314341Y-93244084D01*
X88365887Y-93120491D01*
X88415160Y-93000757D01*
X88460533Y-92888759D01*
X88500375Y-92788377D01*
X88533058Y-92703486D01*
X88556951Y-92637965D01*
X88570426Y-92595690D01*
X88572594Y-92581172D01*
X88555417Y-92562653D01*
X88517810Y-92532590D01*
X88467634Y-92497232D01*
X88463422Y-92494434D01*
X88333736Y-92390625D01*
X88229166Y-92269515D01*
X88150619Y-92134976D01*
X88099001Y-91990882D01*
X88075218Y-91841105D01*
X88080177Y-91689517D01*
X88114783Y-91539992D01*
X88179943Y-91396400D01*
X88199114Y-91364984D01*
X88298826Y-91238125D01*
X88416623Y-91136255D01*
X88548429Y-91059904D01*
X88690167Y-91009602D01*
X88837758Y-90985879D01*
X88987127Y-90989265D01*
X89134197Y-91020288D01*
X89274889Y-91079480D01*
X89405127Y-91167369D01*
X89445414Y-91203042D01*
X89547945Y-91314706D01*
X89622659Y-91432257D01*
X89673910Y-91564020D01*
X89702454Y-91694507D01*
X89709500Y-91841216D01*
X89686004Y-91988653D01*
X89634351Y-92131834D01*
X89556929Y-92265777D01*
X89456125Y-92385498D01*
X89334324Y-92486014D01*
X89318316Y-92496609D01*
X89267602Y-92531306D01*
X89229050Y-92561370D01*
X89210619Y-92580565D01*
X89210351Y-92581172D01*
X89214308Y-92601936D01*
X89229993Y-92649062D01*
X89255778Y-92718673D01*
X89290031Y-92806893D01*
X89331123Y-92909844D01*
X89377424Y-93023650D01*
X89427304Y-93144435D01*
X89479133Y-93268321D01*
X89531281Y-93391432D01*
X89582118Y-93509891D01*
X89630013Y-93619823D01*
X89673338Y-93717349D01*
X89710462Y-93798593D01*
X89739756Y-93859679D01*
X89759588Y-93896730D01*
X89767574Y-93906460D01*
X89791979Y-93898883D01*
X89837642Y-93878560D01*
X89896690Y-93849125D01*
X89929160Y-93831916D01*
X90067053Y-93757359D01*
X90231323Y-93868469D01*
X90315179Y-93925390D01*
X90406987Y-93988030D01*
X90493020Y-94047011D01*
X90536113Y-94076711D01*
X90596723Y-94117410D01*
X90648045Y-94149663D01*
X90683385Y-94169384D01*
X90694863Y-94173554D01*
X90711570Y-94162307D01*
X90748546Y-94130911D01*
X90802205Y-94082624D01*
X90868962Y-94020708D01*
X90945234Y-93948421D01*
X90993473Y-93902008D01*
X91077867Y-93819087D01*
X91150803Y-93744920D01*
X91209331Y-93682680D01*
X91250503Y-93635541D01*
X91271372Y-93606673D01*
X91273374Y-93600815D01*
X91264083Y-93578532D01*
X91238409Y-93533477D01*
X91199200Y-93470211D01*
X91149303Y-93393295D01*
X91091567Y-93307292D01*
X91075149Y-93283315D01*
X91015323Y-93196170D01*
X90961650Y-93117710D01*
X90917130Y-93052345D01*
X90884765Y-93004484D01*
X90867555Y-92978535D01*
X90865893Y-92975852D01*
X90868379Y-92955172D01*
X90881577Y-92909704D01*
X90903186Y-92845444D01*
X90930904Y-92768387D01*
X90962430Y-92684529D01*
X90995463Y-92599866D01*
X91027701Y-92520392D01*
X91056843Y-92452104D01*
X91080588Y-92400997D01*
X91096635Y-92373067D01*
X91097775Y-92371727D01*
X91107588Y-92363745D01*
X91124161Y-92355851D01*
X91151132Y-92347229D01*
X91192139Y-92337062D01*
X91250820Y-92324531D01*
X91330813Y-92308821D01*
X91435755Y-92289113D01*
X91569285Y-92264592D01*
X91598196Y-92259319D01*
X91683882Y-92242764D01*
X91758582Y-92226569D01*
X91815694Y-92212296D01*
X91848617Y-92201508D01*
X91853031Y-92198993D01*
X91860306Y-92176696D01*
X91866219Y-92126869D01*
X91870766Y-92055304D01*
X91873945Y-91967793D01*
X91875749Y-91870128D01*
X91876177Y-91768101D01*
X91875223Y-91667503D01*
X91872884Y-91574127D01*
X91869156Y-91493765D01*
X91864034Y-91432209D01*
X91857516Y-91395250D01*
X91853586Y-91387686D01*
X91831708Y-91380056D01*
X91781891Y-91367642D01*
X91709097Y-91351522D01*
X91618289Y-91332773D01*
X91514431Y-91312471D01*
X91457846Y-91301830D01*
X91350486Y-91281760D01*
X91254746Y-91263580D01*
X91175306Y-91248199D01*
X91116846Y-91236531D01*
X91084045Y-91229488D01*
X91078646Y-91227926D01*
X91069522Y-91210322D01*
X91050235Y-91167918D01*
X91023355Y-91106772D01*
X90991454Y-91032943D01*
X90957102Y-90952489D01*
X90922871Y-90871468D01*
X90891331Y-90795937D01*
X90865054Y-90731955D01*
X90846611Y-90685580D01*
X90838571Y-90662869D01*
X90838422Y-90661876D01*
X90847535Y-90643961D01*
X90873086Y-90602733D01*
X90912388Y-90542291D01*
X90962757Y-90466731D01*
X91021506Y-90380152D01*
X91055658Y-90330421D01*
X91117890Y-90239236D01*
X91173164Y-90156449D01*
X91218782Y-90086249D01*
X91252048Y-90032824D01*
X91270264Y-90000361D01*
X91272895Y-89993083D01*
X91261586Y-89976145D01*
X91230319Y-89939978D01*
X91183090Y-89888635D01*
X91123892Y-89826167D01*
X91056719Y-89756626D01*
X90985566Y-89684065D01*
X90914426Y-89612535D01*
X90847293Y-89546087D01*
X90788161Y-89488774D01*
X90741025Y-89444647D01*
X90709877Y-89417759D01*
X90699457Y-89411342D01*
X90682491Y-89420365D01*
X90641911Y-89445715D01*
X90581663Y-89484810D01*
X90505693Y-89535071D01*
X90417946Y-89593917D01*
X90351756Y-89638748D01*
X90017332Y-89866154D01*
X89738567Y-89751238D01*
X89459803Y-89636322D01*
X89384254Y-89235576D01*
X89308706Y-88834829D01*
X88474585Y-88834829D01*
X88399036Y-89235576D01*
X88399036Y-89235576D01*
G37*
X88399036Y-89235576D02*
X88323487Y-89636322D01*
X87765959Y-89866154D01*
X87431535Y-89638748D01*
X87337878Y-89575431D01*
X87253218Y-89518896D01*
X87181505Y-89471727D01*
X87126689Y-89436502D01*
X87092720Y-89415805D01*
X87083470Y-89411342D01*
X87066805Y-89422820D01*
X87031194Y-89454551D01*
X86980629Y-89502483D01*
X86919100Y-89562562D01*
X86850601Y-89630733D01*
X86779121Y-89702945D01*
X86708653Y-89775142D01*
X86643189Y-89843273D01*
X86586720Y-89903283D01*
X86543237Y-89951119D01*
X86516732Y-89982727D01*
X86510395Y-89993305D01*
X86519514Y-90012806D01*
X86545080Y-90055531D01*
X86584403Y-90117298D01*
X86634797Y-90193931D01*
X86693573Y-90281248D01*
X86727632Y-90331052D01*
X86789711Y-90421993D01*
X86844874Y-90504059D01*
X86890446Y-90573163D01*
X86923750Y-90625222D01*
X86942110Y-90656150D01*
X86944869Y-90662650D01*
X86938615Y-90681121D01*
X86921566Y-90724172D01*
X86896297Y-90785749D01*
X86865378Y-90859799D01*
X86831382Y-90940270D01*
X86796882Y-91021107D01*
X86764449Y-91096258D01*
X86736657Y-91159671D01*
X86716077Y-91205293D01*
X86705281Y-91227069D01*
X86704644Y-91227926D01*
X86687693Y-91232084D01*
X86642549Y-91241361D01*
X86573890Y-91254844D01*
X86486398Y-91271621D01*
X86384750Y-91290781D01*
X86325444Y-91301830D01*
X86216828Y-91322510D01*
X86118723Y-91342189D01*
X86036091Y-91359789D01*
X85973896Y-91374233D01*
X85937101Y-91384446D01*
X85929704Y-91387686D01*
X85922460Y-91409617D01*
X85916615Y-91459147D01*
X85912165Y-91530485D01*
X85909107Y-91617839D01*
X85907435Y-91715417D01*
X85907147Y-91817426D01*
X85908239Y-91918075D01*
X85910706Y-92011572D01*
X85914544Y-92092125D01*
X85919750Y-92153942D01*
X85926319Y-92191230D01*
X85930259Y-92198993D01*
X85953812Y-92208298D01*
X86003718Y-92221600D01*
X86073377Y-92237337D01*
X86156187Y-92253946D01*
X86185095Y-92259319D01*
X86324469Y-92284848D01*
X86434564Y-92305408D01*
X86519018Y-92321815D01*
X86581470Y-92334887D01*
X86625556Y-92345441D01*
X86654915Y-92354294D01*
X86673185Y-92362263D01*
X86684002Y-92370165D01*
X86685515Y-92371727D01*
X86700623Y-92396886D01*
X86723671Y-92445850D01*
X86752356Y-92512621D01*
X86784378Y-92591205D01*
X86817435Y-92675607D01*
X86849227Y-92759830D01*
X86877451Y-92837879D01*
X86899807Y-92903759D01*
X86913993Y-92951473D01*
X86917707Y-92975027D01*
X86917398Y-92975852D01*
X86904811Y-92995104D01*
X86876256Y-93037463D01*
X86834733Y-93098521D01*
X86783244Y-93173868D01*
X86724789Y-93259096D01*
X86708142Y-93283315D01*
X86648785Y-93371123D01*
X86596553Y-93451238D01*
X86554292Y-93519062D01*
X86524847Y-93569993D01*
X86511063Y-93599431D01*
X86510395Y-93603048D01*
X86521976Y-93622057D01*
X86553976Y-93659714D01*
X86602282Y-93711973D01*
X86662780Y-93774786D01*
X86731356Y-93844106D01*
X86803896Y-93915885D01*
X86876288Y-93986077D01*
X86944416Y-94050635D01*
X87004168Y-94105510D01*
X87051429Y-94146656D01*
X87082087Y-94170026D01*
X87090568Y-94173842D01*
X87110309Y-94164855D01*
X87150726Y-94140616D01*
X87205237Y-94105209D01*
X87247177Y-94076711D01*
X87323171Y-94024418D01*
X87413166Y-93962845D01*
X87503436Y-93901370D01*
X87551968Y-93868469D01*
X87716238Y-93757359D01*
X87854131Y-93831916D01*
X87916951Y-93864578D01*
X87970371Y-93889966D01*
X88006516Y-93904446D01*
X88015716Y-93906460D01*
X88026779Y-93891584D01*
X88048606Y-93849547D01*
X88079566Y-93784227D01*
X88118030Y-93699500D01*
X88162368Y-93599245D01*
X88210953Y-93487339D01*
X88262154Y-93367659D01*
X88314341Y-93244084D01*
X88365887Y-93120491D01*
X88415160Y-93000757D01*
X88460533Y-92888759D01*
X88500375Y-92788377D01*
X88533058Y-92703486D01*
X88556951Y-92637965D01*
X88570426Y-92595690D01*
X88572594Y-92581172D01*
X88555417Y-92562653D01*
X88517810Y-92532590D01*
X88467634Y-92497232D01*
X88463422Y-92494434D01*
X88333736Y-92390625D01*
X88229166Y-92269515D01*
X88150619Y-92134976D01*
X88099001Y-91990882D01*
X88075218Y-91841105D01*
X88080177Y-91689517D01*
X88114783Y-91539992D01*
X88179943Y-91396400D01*
X88199114Y-91364984D01*
X88298826Y-91238125D01*
X88416623Y-91136255D01*
X88548429Y-91059904D01*
X88690167Y-91009602D01*
X88837758Y-90985879D01*
X88987127Y-90989265D01*
X89134197Y-91020288D01*
X89274889Y-91079480D01*
X89405127Y-91167369D01*
X89445414Y-91203042D01*
X89547945Y-91314706D01*
X89622659Y-91432257D01*
X89673910Y-91564020D01*
X89702454Y-91694507D01*
X89709500Y-91841216D01*
X89686004Y-91988653D01*
X89634351Y-92131834D01*
X89556929Y-92265777D01*
X89456125Y-92385498D01*
X89334324Y-92486014D01*
X89318316Y-92496609D01*
X89267602Y-92531306D01*
X89229050Y-92561370D01*
X89210619Y-92580565D01*
X89210351Y-92581172D01*
X89214308Y-92601936D01*
X89229993Y-92649062D01*
X89255778Y-92718673D01*
X89290031Y-92806893D01*
X89331123Y-92909844D01*
X89377424Y-93023650D01*
X89427304Y-93144435D01*
X89479133Y-93268321D01*
X89531281Y-93391432D01*
X89582118Y-93509891D01*
X89630013Y-93619823D01*
X89673338Y-93717349D01*
X89710462Y-93798593D01*
X89739756Y-93859679D01*
X89759588Y-93896730D01*
X89767574Y-93906460D01*
X89791979Y-93898883D01*
X89837642Y-93878560D01*
X89896690Y-93849125D01*
X89929160Y-93831916D01*
X90067053Y-93757359D01*
X90231323Y-93868469D01*
X90315179Y-93925390D01*
X90406987Y-93988030D01*
X90493020Y-94047011D01*
X90536113Y-94076711D01*
X90596723Y-94117410D01*
X90648045Y-94149663D01*
X90683385Y-94169384D01*
X90694863Y-94173554D01*
X90711570Y-94162307D01*
X90748546Y-94130911D01*
X90802205Y-94082624D01*
X90868962Y-94020708D01*
X90945234Y-93948421D01*
X90993473Y-93902008D01*
X91077867Y-93819087D01*
X91150803Y-93744920D01*
X91209331Y-93682680D01*
X91250503Y-93635541D01*
X91271372Y-93606673D01*
X91273374Y-93600815D01*
X91264083Y-93578532D01*
X91238409Y-93533477D01*
X91199200Y-93470211D01*
X91149303Y-93393295D01*
X91091567Y-93307292D01*
X91075149Y-93283315D01*
X91015323Y-93196170D01*
X90961650Y-93117710D01*
X90917130Y-93052345D01*
X90884765Y-93004484D01*
X90867555Y-92978535D01*
X90865893Y-92975852D01*
X90868379Y-92955172D01*
X90881577Y-92909704D01*
X90903186Y-92845444D01*
X90930904Y-92768387D01*
X90962430Y-92684529D01*
X90995463Y-92599866D01*
X91027701Y-92520392D01*
X91056843Y-92452104D01*
X91080588Y-92400997D01*
X91096635Y-92373067D01*
X91097775Y-92371727D01*
X91107588Y-92363745D01*
X91124161Y-92355851D01*
X91151132Y-92347229D01*
X91192139Y-92337062D01*
X91250820Y-92324531D01*
X91330813Y-92308821D01*
X91435755Y-92289113D01*
X91569285Y-92264592D01*
X91598196Y-92259319D01*
X91683882Y-92242764D01*
X91758582Y-92226569D01*
X91815694Y-92212296D01*
X91848617Y-92201508D01*
X91853031Y-92198993D01*
X91860306Y-92176696D01*
X91866219Y-92126869D01*
X91870766Y-92055304D01*
X91873945Y-91967793D01*
X91875749Y-91870128D01*
X91876177Y-91768101D01*
X91875223Y-91667503D01*
X91872884Y-91574127D01*
X91869156Y-91493765D01*
X91864034Y-91432209D01*
X91857516Y-91395250D01*
X91853586Y-91387686D01*
X91831708Y-91380056D01*
X91781891Y-91367642D01*
X91709097Y-91351522D01*
X91618289Y-91332773D01*
X91514431Y-91312471D01*
X91457846Y-91301830D01*
X91350486Y-91281760D01*
X91254746Y-91263580D01*
X91175306Y-91248199D01*
X91116846Y-91236531D01*
X91084045Y-91229488D01*
X91078646Y-91227926D01*
X91069522Y-91210322D01*
X91050235Y-91167918D01*
X91023355Y-91106772D01*
X90991454Y-91032943D01*
X90957102Y-90952489D01*
X90922871Y-90871468D01*
X90891331Y-90795937D01*
X90865054Y-90731955D01*
X90846611Y-90685580D01*
X90838571Y-90662869D01*
X90838422Y-90661876D01*
X90847535Y-90643961D01*
X90873086Y-90602733D01*
X90912388Y-90542291D01*
X90962757Y-90466731D01*
X91021506Y-90380152D01*
X91055658Y-90330421D01*
X91117890Y-90239236D01*
X91173164Y-90156449D01*
X91218782Y-90086249D01*
X91252048Y-90032824D01*
X91270264Y-90000361D01*
X91272895Y-89993083D01*
X91261586Y-89976145D01*
X91230319Y-89939978D01*
X91183090Y-89888635D01*
X91123892Y-89826167D01*
X91056719Y-89756626D01*
X90985566Y-89684065D01*
X90914426Y-89612535D01*
X90847293Y-89546087D01*
X90788161Y-89488774D01*
X90741025Y-89444647D01*
X90709877Y-89417759D01*
X90699457Y-89411342D01*
X90682491Y-89420365D01*
X90641911Y-89445715D01*
X90581663Y-89484810D01*
X90505693Y-89535071D01*
X90417946Y-89593917D01*
X90351756Y-89638748D01*
X90017332Y-89866154D01*
X89738567Y-89751238D01*
X89459803Y-89636322D01*
X89384254Y-89235576D01*
X89308706Y-88834829D01*
X88474585Y-88834829D01*
X88399036Y-89235576D01*
D11*
X89403952Y-112756190D02*
X89118238Y-112756190D01*
X89261095Y-113256190D02*
X89261095Y-112756190D01*
X88951571Y-113256190D02*
X88951571Y-112756190D01*
X88761095Y-112756190D01*
X88713476Y-112780000D01*
X88689667Y-112803810D01*
X88665857Y-112851429D01*
X88665857Y-112922857D01*
X88689667Y-112970476D01*
X88713476Y-112994286D01*
X88761095Y-113018095D01*
X88951571Y-113018095D01*
X88189667Y-113256190D02*
X88475381Y-113256190D01*
X88332524Y-113256190D02*
X88332524Y-112756190D01*
X88380143Y-112827619D01*
X88427762Y-112875238D01*
X88475381Y-112899048D01*
X94991952Y-112756190D02*
X94706238Y-112756190D01*
X94849095Y-113256190D02*
X94849095Y-112756190D01*
X94539571Y-113256190D02*
X94539571Y-112756190D01*
X94349095Y-112756190D01*
X94301476Y-112780000D01*
X94277667Y-112803810D01*
X94253857Y-112851429D01*
X94253857Y-112922857D01*
X94277667Y-112970476D01*
X94301476Y-112994286D01*
X94349095Y-113018095D01*
X94539571Y-113018095D01*
X94063381Y-112803810D02*
X94039571Y-112780000D01*
X93991952Y-112756190D01*
X93872905Y-112756190D01*
X93825286Y-112780000D01*
X93801476Y-112803810D01*
X93777667Y-112851429D01*
X93777667Y-112899048D01*
X93801476Y-112970476D01*
X94087190Y-113256190D01*
X93777667Y-113256190D01*
X81783952Y-112883190D02*
X81498238Y-112883190D01*
X81641095Y-113383190D02*
X81641095Y-112883190D01*
X81331571Y-113383190D02*
X81331571Y-112883190D01*
X81141095Y-112883190D01*
X81093476Y-112907000D01*
X81069667Y-112930810D01*
X81045857Y-112978429D01*
X81045857Y-113049857D01*
X81069667Y-113097476D01*
X81093476Y-113121286D01*
X81141095Y-113145095D01*
X81331571Y-113145095D01*
X80879190Y-112883190D02*
X80569667Y-112883190D01*
X80736333Y-113073667D01*
X80664905Y-113073667D01*
X80617286Y-113097476D01*
X80593476Y-113121286D01*
X80569667Y-113168905D01*
X80569667Y-113287952D01*
X80593476Y-113335571D01*
X80617286Y-113359381D01*
X80664905Y-113383190D01*
X80807762Y-113383190D01*
X80855381Y-113359381D01*
X80879190Y-113335571D01*
X81021952Y-108057190D02*
X80736238Y-108057190D01*
X80879095Y-108557190D02*
X80879095Y-108057190D01*
X80569571Y-108557190D02*
X80569571Y-108057190D01*
X80379095Y-108057190D01*
X80331476Y-108081000D01*
X80307667Y-108104810D01*
X80283857Y-108152429D01*
X80283857Y-108223857D01*
X80307667Y-108271476D01*
X80331476Y-108295286D01*
X80379095Y-108319095D01*
X80569571Y-108319095D01*
X79855286Y-108223857D02*
X79855286Y-108557190D01*
X79974333Y-108033381D02*
X80093381Y-108390524D01*
X79783857Y-108390524D01*
X82164952Y-95738190D02*
X81879238Y-95738190D01*
X82022095Y-96238190D02*
X82022095Y-95738190D01*
X81712571Y-96238190D02*
X81712571Y-95738190D01*
X81522095Y-95738190D01*
X81474476Y-95762000D01*
X81450667Y-95785810D01*
X81426857Y-95833429D01*
X81426857Y-95904857D01*
X81450667Y-95952476D01*
X81474476Y-95976286D01*
X81522095Y-96000095D01*
X81712571Y-96000095D01*
X80974476Y-95738190D02*
X81212571Y-95738190D01*
X81236381Y-95976286D01*
X81212571Y-95952476D01*
X81164952Y-95928667D01*
X81045905Y-95928667D01*
X80998286Y-95952476D01*
X80974476Y-95976286D01*
X80950667Y-96023905D01*
X80950667Y-96142952D01*
X80974476Y-96190571D01*
X80998286Y-96214381D01*
X81045905Y-96238190D01*
X81164952Y-96238190D01*
X81212571Y-96214381D01*
X81236381Y-96190571D01*
X96515952Y-99294190D02*
X96230238Y-99294190D01*
X96373095Y-99794190D02*
X96373095Y-99294190D01*
X96063571Y-99794190D02*
X96063571Y-99294190D01*
X95873095Y-99294190D01*
X95825476Y-99318000D01*
X95801667Y-99341810D01*
X95777857Y-99389429D01*
X95777857Y-99460857D01*
X95801667Y-99508476D01*
X95825476Y-99532286D01*
X95873095Y-99556095D01*
X96063571Y-99556095D01*
X95349286Y-99294190D02*
X95444524Y-99294190D01*
X95492143Y-99318000D01*
X95515952Y-99341810D01*
X95563571Y-99413238D01*
X95587381Y-99508476D01*
X95587381Y-99698952D01*
X95563571Y-99746571D01*
X95539762Y-99770381D01*
X95492143Y-99794190D01*
X95396905Y-99794190D01*
X95349286Y-99770381D01*
X95325476Y-99746571D01*
X95301667Y-99698952D01*
X95301667Y-99579905D01*
X95325476Y-99532286D01*
X95349286Y-99508476D01*
X95396905Y-99484667D01*
X95492143Y-99484667D01*
X95539762Y-99508476D01*
X95563571Y-99532286D01*
X95587381Y-99579905D01*
M02*
